<?xml version="1.0" encoding="UTF-8" standalone="no"?>
<svg
   width="140.00043"
   height="114.0005"
   viewBox="0 0 140.00043 114.0005"
   version="1.1"
   id="svg67"
   sodipodi:docname="paw-hover-working-180-trimmed.svg"
   inkscape:version="1.1 (c68e22c387, 2021-05-23)"
   xmlns:inkscape="http://www.inkscape.org/namespaces/inkscape"
   xmlns:sodipodi="http://sodipodi.sourceforge.net/DTD/sodipodi-0.dtd"
   xmlns:xlink="http://www.w3.org/1999/xlink"
   xmlns="http://www.w3.org/2000/svg"
   xmlns:svg="http://www.w3.org/2000/svg">
  <sodipodi:namedview
     id="namedview69"
     pagecolor="#ffffff"
     bordercolor="#666666"
     borderopacity="1.0"
     inkscape:pageshadow="2"
     inkscape:pageopacity="0.0"
     inkscape:pagecheckerboard="0"
     showgrid="false"
     inkscape:zoom="2.9833333"
     inkscape:cx="72.234637"
     inkscape:cy="56.480447"
     inkscape:window-width="1280"
     inkscape:window-height="961"
     inkscape:window-x="-8"
     inkscape:window-y="-8"
     inkscape:window-maximized="1"
     inkscape:current-layer="svg67" />
  <defs
     id="defs62">
    <filter
       id="alpha"
       filterUnits="objectBoundingBox"
       x="0"
       y="0"
       width="1"
       height="1">
      <feColorMatrix
         type="matrix"
         in="SourceGraphic"
         values="0 0 0 0 1 0 0 0 0 1 0 0 0 0 1 0 0 0 1 0"
         id="feColorMatrix40" />
    </filter>
    <mask
       id="mask0">
      <g
         filter="url(#alpha)"
         id="g45">
        <rect
           x="0"
           y="0"
           width="180"
           height="180"
           style="fill:#000000;fill-opacity:0.701961;stroke:none"
           id="rect43" />
      </g>
    </mask>
    <clipPath
       id="clip1">
      <rect
         x="0"
         y="0"
         width="180"
         height="180"
         id="rect48" />
    </clipPath>
    <g
       id="surface5"
       clip-path="url(#clip1)">
      <path
         style="fill:#f5a6bd;fill-opacity:1;fill-rule:nonzero;stroke:none"
         d="M 110.67969,33.953125 C 99.472656,36.882812 92.746094,50.882812 97.476562,61.40625 103.46875,74.710938 121.5,72.972656 128.22656,58.476562 c 1.41016,-3.078124 1.5586,-3.773437 1.5586,-8.339843 0,-4.417969 -0.14844,-5.261719 -1.36719,-7.792969 -1.50781,-3.078125 -4.08984,-5.761719 -7.25781,-7.398438 -2.29297,-1.191406 -7.69922,-1.6875 -10.48047,-0.992187 z m 0,0"
         id="path51" />
      <path
         style="fill:#f5a6bd;fill-opacity:1;fill-rule:nonzero;stroke:none"
         d="m 55.128906,34.800781 c -2.972656,1.089844 -6.679687,4.714844 -8.285156,8.042969 -1.21875,2.53125 -1.367188,3.375 -1.367188,7.792969 0,4.566406 0.148438,5.261719 1.5625,8.339843 3.167969,6.851563 9.308594,11.320313 16.082032,11.667969 4.578125,0.246094 7.648437,-0.796875 10.816406,-3.675781 7.503906,-6.851562 7.164062,-19.3125 -0.730469,-27.355469 -3.65625,-3.722656 -7.164062,-5.308593 -12.132812,-5.460937 -2.585938,-0.09766 -4.582031,0.152344 -5.945313,0.648437 z m 0,0"
         id="path53" />
      <path
         style="fill:#f5a6bd;fill-opacity:1;fill-rule:nonzero;stroke:none"
         d="m 138.07031,67.414062 c -6.38281,1.6875 -10.96484,5.363282 -13.74218,11.171876 -1.75391,3.523437 -1.85157,4.070312 -1.85157,8.242187 0,3.722656 0.19532,4.914063 1.1211,6.800781 1.46093,3.027344 3.94531,5.609375 7.0664,7.296874 2.24219,1.19141 3.07031,1.33985 7.21094,1.33985 4.38672,0 4.82422,-0.0977 8.28516,-1.83594 13.78906,-6.949221 15.64453,-25.417971 3.26562,-31.625002 -3.60547,-1.835938 -7.75,-2.332032 -11.35547,-1.390626 z m 0,0"
         id="path55" />
      <path
         style="fill:#f5a6bd;fill-opacity:1;fill-rule:nonzero;stroke:none"
         d="m 27.882812,69.25 c -3.800781,1.242188 -7.015624,4.070312 -8.820312,7.84375 -1.167969,2.433594 -1.363281,3.425781 -1.363281,7.097656 0,3.875 0.144531,4.519532 1.851562,7.992188 C 26.375,106.28516 44.84375,108.07031 51.46875,95.3125 52.640625,93.128906 52.785156,92.285156 52.785156,88.113281 52.738281,83.992188 52.589844,83.050781 51.375,80.570312 48.59375,74.710938 42.941406,70.042969 37.046875,68.800781 33.488281,68.058594 31.34375,68.15625 27.882812,69.25 Z m 0,0"
         id="path57" />
      <path
         style="fill:#f5a6bd;fill-opacity:1;fill-rule:nonzero;stroke:none"
         d="m 65.117188,94.023438 c 2.972656,-6.402344 9.308593,-11.8125 15.738281,-13.550782 3.121093,-0.84375 9.503906,-0.992187 12.625,-0.25 6.871091,1.589844 13.644531,7.199219 16.617191,13.753906 1.65625,3.574219 1.70312,3.621094 5.3125,5.410157 8.33203,4.070311 14.1289,13.304691 14.1289,22.589841 0,11.96485 -7.9414,22.28906 -19.29687,25.01953 -6.72266,1.58985 -14.714846,0.0508 -20.125002,-3.92187 l -2.484376,-1.83594 -2.488281,1.83594 c -5.503906,3.97265 -13.9375,5.60937 -20.417969,3.87109 -18.90625,-5.01172 -25.339843,-28.34765 -11.695312,-42.49609 2.242188,-2.33203 4.191406,-3.77344 6.773438,-5.01172 3.507812,-1.738281 3.605468,-1.839844 5.3125,-5.414062 z m 0,0"
         id="path59" />
    </g>
  </defs>
  <g
     id="surface1"
     transform="translate(-17.699219,-33.635174)">
    <use
       xlink:href="#surface5"
       mask="url(#mask0)"
       id="use64"
       x="0"
       y="0"
       width="100%"
       height="100%" />
  </g>
</svg>
