<?xml version="1.0" encoding="UTF-8" standalone="no"?>
<svg
   width="507.54056"
   height="351.63132"
   viewBox="0 0 507.54056 351.63132"
   fill="none"
   version="1.1"
   id="svg1055"
   sodipodi:docname="cat.svg"
   inkscape:version="1.1 (c68e22c387, 2021-05-23)"
   xmlns:inkscape="http://www.inkscape.org/namespaces/inkscape"
   xmlns:sodipodi="http://sodipodi.sourceforge.net/DTD/sodipodi-0.dtd"
   xmlns="http://www.w3.org/2000/svg"
   xmlns:svg="http://www.w3.org/2000/svg">
  <sodipodi:namedview
     id="namedview1057"
     pagecolor="#ffffff"
     bordercolor="#666666"
     borderopacity="1.0"
     inkscape:pageshadow="2"
     inkscape:pageopacity="0.0"
     inkscape:pagecheckerboard="0"
     showgrid="false"
     inkscape:zoom="1.8078818"
     inkscape:cx="254.16485"
     inkscape:cy="246.42098"
     inkscape:window-width="1280"
     inkscape:window-height="961"
     inkscape:window-x="-8"
     inkscape:window-y="-8"
     inkscape:window-maximized="1"
     inkscape:current-layer="svg1055" />
  <g
     clip-path="url(#clip0_11_764)"
     id="g1043"
     transform="translate(-16.712403,-44.699584)">
    <path
       d="M 181.62,73.0535 404.226,92.2724 C 476.509,98.5276 530.01,162.2 523.756,234.488 517.493,306.797 453.841,360.331 381.571,354.091 L 158.926,334.826 C 86.664,328.573 33.1562,264.9 39.3968,192.603 45.673,120.303 109.333,66.7627 181.62,73.0535 Z"
       fill="#faf7f5"
       id="path971" />
    <path
       d="m 384.811,368.451 c -4.222,10.2 0.796,21.957 11.178,26.289 10.382,4.331 22.25,-0.49 26.475,-10.71 4.224,-10.221 -0.797,-21.957 -11.179,-26.282 -10.383,-4.324 -22.251,0.49 -26.474,10.703 z"
       fill="#fffef1"
       id="path973" />
    <path
       d="m 405.752,381.599 c 4.402,0.427 8.824,-0.566 12.621,-2.834 3.797,-2.267 6.769,-5.69 8.483,-9.769 1.04,-2.52 1.565,-5.224 1.543,-7.95 -0.023,-2.727 -0.592,-5.421 -1.673,-7.924 -1.608,-3.782 -4.289,-7.009 -7.712,-9.282 -3.422,-2.273 -7.436,-3.493 -11.544,-3.507 -4.108,-0.015 -8.131,1.176 -11.57,3.425 -3.439,2.249 -6.144,5.458 -7.779,9.228 -2.062,5.115 -2.014,10.839 0.135,15.917 2.149,5.079 6.223,9.097 11.329,11.175 1.967,0.815 4.047,1.328 6.167,1.521 z m 2.688,-32.563 c 1.247,0.117 2.47,0.42 3.628,0.899 3.011,1.228 5.415,3.596 6.688,6.589 0.629,1.447 0.959,3.007 0.971,4.585 0.012,1.578 -0.294,3.142 -0.901,4.598 -0.82,2.128 -2.217,3.985 -4.033,5.363 -1.816,1.378 -3.98,2.223 -6.249,2.439 -2.269,0.217 -4.553,-0.203 -6.597,-1.212 -2.043,-1.01 -3.765,-2.569 -4.972,-4.503 -1.208,-1.934 -1.852,-4.166 -1.862,-6.447 -0.01,-2.28 0.615,-4.518 1.805,-6.463 1.19,-1.944 2.899,-3.519 4.933,-4.547 2.035,-1.028 4.315,-1.469 6.586,-1.273 z"
       fill="#28afc9"
       id="path975" />
    <path
       d="M 80.2443,88.2019 C 62.1453,76.3538 38.7824,80.0306 28.0549,96.4212 17.3274,112.812 23.3005,135.712 41.3995,147.56 c 18.099,11.848 41.4632,8.157 52.1894,-8.219 10.7261,-16.377 4.7537,-39.284 -13.3446,-51.1391 z"
       fill="#fffef1"
       id="path977" />
    <path
       d="m 71.7932,164.664 c 13.4052,1.236 26.5608,-4.229 33.9298,-15.494 10.999,-16.81 5.021,-40.268 -13.3243,-52.2802 -8.5741,-5.7247 -18.9732,-8.0476 -29.168,-6.5154 -10.1458,1.5987 -18.6952,7.0014 -24.0672,15.2096 -5.372,8.209 -6.9088,18.211 -4.312,28.15 2.6786,9.957 8.9689,18.557 17.6436,24.125 5.7789,3.814 12.4054,6.151 19.2981,6.805 z m 15.8429,-60.512 c 14.3459,9.399 19.1989,27.459 10.8204,40.261 -8.3784,12.802 -26.8387,15.576 -41.2052,6.175 -6.8699,-4.39 -11.86,-11.181 -13.9981,-19.051 -1.9646,-7.537 -0.839,-15.071 3.1771,-21.202 4.0161,-6.132 10.4574,-10.176 18.1473,-11.3866 8.0681,-1.19 16.2898,0.6652 23.0655,5.2046 z"
       fill="#28afc9"
       id="path979" />
    <path
       d="m 460.366,95.5992 17.614,4.0242 c 1.853,0.4226 3.605,1.2066 5.155,2.3076 1.55,1.1 2.868,2.495 3.879,4.105 1.012,1.61 1.696,3.404 2.014,5.278 0.318,1.875 0.264,3.794 -0.159,5.648 l -5.16,22.58 c -0.423,1.854 -1.207,3.606 -2.307,5.157 -1.1,1.551 -2.494,2.87 -4.104,3.882 -1.609,1.012 -3.402,1.697 -5.276,2.016 -1.874,0.318 -3.793,0.264 -5.646,-0.159 l -17.614,-4.024 c -4.201,-0.956 -8.546,-1.103 -12.802,-0.432 l -62.836,9.892 23.2,-101.6307 52.312,36.1871 c 3.545,2.4552 7.526,4.2096 11.73,5.1688 z"
       fill="#fffef1"
       id="path981" />
    <path
       d="m 367.458,161.162 69.173,-10.889 c 3.718,-0.588 7.514,-0.458 11.183,0.381 l 17.615,4.025 c 4.863,1.102 9.965,0.231 14.189,-2.423 4.223,-2.654 7.222,-6.874 8.342,-11.736 l 5.153,-22.587 c 1.103,-4.866 0.233,-9.97 -2.419,-14.195 -2.652,-4.2246 -6.87,-7.225 -11.73,-8.3438 l -17.622,-4.0179 c -3.668,-0.824 -7.144,-2.3426 -10.242,-4.4739 L 393.514,47.0169 Z m 77.268,-19.779 c -3.148,-0.292 -6.32,-0.188 -9.442,0.309 l -56.507,8.908 20.347,-89.138 47.042,32.5741 c 4,2.7761 8.495,4.7579 13.242,5.8376 l 17.618,3.9823 c 2.617,0.603 4.889,2.219 6.317,4.494 1.429,2.275 1.898,5.024 1.305,7.645 l -5.153,22.587 c -0.602,2.619 -2.217,4.893 -4.492,6.323 -2.274,1.43 -5.023,1.899 -7.643,1.304 l -17.614,-4.024 c -1.654,-0.378 -3.331,-0.645 -5.02,-0.802 z"
       fill="#ea4385"
       id="path983" />
    <path
       d="m 489.206,115.532 4.229,0.962 c 1.113,0.254 2.164,0.724 3.094,1.385 0.931,0.66 1.722,1.497 2.328,2.464 0.607,0.967 1.018,2.043 1.208,3.168 0.191,1.126 0.158,2.278 -0.097,3.39 l -1.934,8.505 c -0.518,2.243 -1.904,4.189 -3.854,5.411 -1.95,1.222 -4.306,1.619 -6.548,1.105 l -4.23,-0.961 z"
       fill="#faf7f5"
       id="path985" />
    <path
       d="m 488.379,146.431 c 3.141,0.284 6.279,-0.581 8.832,-2.434 2.553,-1.853 4.348,-4.568 5.053,-7.644 l 1.932,-8.469 c 0.381,-1.668 0.43,-3.394 0.144,-5.081 -0.286,-1.687 -0.901,-3.3 -1.811,-4.749 -0.909,-1.449 -2.095,-2.704 -3.489,-3.694 -1.395,-0.99 -2.971,-1.696 -4.638,-2.076 l -8.465,-1.931 -7.734,33.877 8.465,1.938 c 0.564,0.125 1.136,0.214 1.711,0.263 z m 4.09,-25.657 c 0.555,0.127 1.08,0.362 1.545,0.692 0.464,0.33 0.859,0.749 1.162,1.232 0.303,0.483 0.508,1.021 0.602,1.583 0.095,0.562 0.078,1.137 -0.05,1.693 l -1.931,8.469 c -0.26,1.121 -0.952,2.094 -1.926,2.707 -0.974,0.612 -2.15,0.814 -3.273,0.562 z"
       fill="#28afc9"
       id="path987" />
    <path
       d="m 467.809,150.761 -5.802,25.407 c -0.382,1.671 -1.089,3.25 -2.081,4.647 -0.992,1.397 -2.249,2.584 -3.7,3.495 -1.451,0.911 -3.067,1.526 -4.756,1.811 -1.689,0.286 -3.418,0.235 -5.087,-0.148 -1.668,-0.38 -3.244,-1.086 -4.639,-2.077 -1.395,-0.99 -2.581,-2.246 -3.491,-3.696 -0.909,-1.449 -1.524,-3.064 -1.809,-4.751 -0.286,-1.688 -0.236,-3.415 0.146,-5.083 l 5.816,-25.406 z"
       fill="#ffffff"
       id="path989" />
    <path
       d="m 447.722,190.572 c 4.189,0.382 8.375,-0.769 11.782,-3.239 3.406,-2.471 5.803,-6.092 6.745,-10.194 l 6.757,-29.647 -33.861,-7.732 -6.757,29.647 c -1.02,4.492 -0.217,9.205 2.233,13.105 2.45,3.9 6.346,6.668 10.834,7.696 0.747,0.172 1.504,0.294 2.267,0.364 z m 14.881,-36.55 -4.833,21.17 c -0.546,2.211 -1.938,4.118 -3.876,5.313 -1.938,1.194 -4.267,1.579 -6.486,1.073 -2.219,-0.506 -4.15,-1.863 -5.379,-3.78 -1.228,-1.917 -1.655,-4.239 -1.189,-6.468 l 4.832,-21.17 z"
       fill="#f6a6bf"
       id="path991" />
    <path
       d="m 448.207,119.552 c 2.196,-9.235 2.838,-18.771 1.898,-28.2167 3.161,1.9798 6.628,3.4208 10.261,4.2639 l 17.615,4.0242 c 1.853,0.4226 3.604,1.2066 5.154,2.3076 1.551,1.1 2.869,2.495 3.88,4.105 1.011,1.61 1.695,3.404 2.014,5.279 0.318,1.874 0.264,3.793 -0.159,5.647 l -5.16,22.58 c -0.423,1.854 -1.207,3.606 -2.307,5.157 -1.1,1.551 -2.495,2.87 -4.104,3.882 -1.61,1.012 -3.403,1.697 -5.277,2.016 -1.874,0.318 -3.792,0.265 -5.645,-0.159 l -17.614,-4.024 c -3.65,-0.817 -7.409,-1.028 -11.127,-0.623 4.954,-8.099 8.527,-16.967 10.571,-26.239 z"
       fill="#faf7f5"
       id="path993" />
    <path
       d="m 467.925,155.078 c 4.537,0.408 9.068,-0.843 12.754,-3.521 3.686,-2.678 6.278,-6.601 7.295,-11.043 l 5.154,-22.587 c 1.103,-4.866 0.233,-9.97 -2.419,-14.195 -2.652,-4.2246 -6.87,-7.225 -11.73,-8.3438 l -17.622,-4.0179 c -3.175,-0.74 -6.206,-1.9997 -8.97,-3.7283 l -7.589,-4.7023 0.987,8.8797 c 0.894,8.9606 0.298,18.0086 -1.765,26.7746 -1.935,8.794 -5.315,17.206 -10.002,24.894 l -4.742,7.575 8.879,-0.947 c 3.239,-0.355 6.515,-0.172 9.695,0.541 l 17.621,4.025 c 0.809,0.185 1.628,0.318 2.454,0.396 z m -13.06,-56.5906 c 1.485,0.5457 3.004,0.997 4.546,1.351 l 17.615,4.0176 c 2.617,0.603 4.889,2.219 6.318,4.494 1.428,2.275 1.897,5.024 1.305,7.644 l -5.154,22.587 c -0.6,2.621 -2.215,4.896 -4.49,6.326 -2.275,1.43 -5.025,1.898 -7.644,1.302 l -17.615,-4.024 c -1.544,-0.353 -3.109,-0.606 -4.686,-0.757 6.532,-13.367 9.888,-28.063 9.805,-42.9406 z"
       fill="#f6a6bf"
       id="path995" />
    <path
       d="m 352.118,97.6129 c -6.942,30.4201 0.936,58.1341 17.57,61.9341 16.633,3.799 35.782,-17.759 42.722,-48.165 6.941,-30.4065 -0.929,-58.1335 -17.57,-61.9337 -16.64,-3.8003 -35.783,17.7653 -42.722,48.1646 z"
       fill="#ffffff"
       id="path997" />
    <path
       d="m 371.597,164.24 c 18.463,1.702 37.856,-20.271 45.07,-51.888 3.538,-15.4013 3.542,-30.7335 -0.006,-43.0612 -3.776,-13.2947 -11.18,-21.8342 -20.855,-24.0393 -19.307,-4.4202 -40.329,18.1651 -47.921,51.4268 -3.538,15.4017 -3.541,30.7337 0.003,43.1037 3.776,13.287 11.18,21.827 20.847,24.038 0.944,0.202 1.9,0.342 2.862,0.42 z M 392.16,53.4076 c 0.578,0.0543 1.152,0.1473 1.718,0.2783 6.44,1.4692 11.567,7.8434 14.432,17.9409 3.126,11.0111 3.089,24.7873 -0.11,38.8152 -6.289,27.544 -23.489,48.089 -37.525,44.896 -6.44,-1.47 -11.567,-7.844 -14.438,-17.949 -3.126,-11.011 -3.083,-24.787 0.117,-38.8146 6.03,-26.4312 22.1,-46.4305 35.806,-45.1668 z"
       fill="#f6a6bf"
       id="path999" />
    <path
       d="m 366.119,100.809 c -4.629,20.27 -1.146,38.352 7.782,40.39 8.928,2.037 19.909,-12.742 24.54,-33.033 4.632,-20.292 1.14,-38.3536 -7.781,-40.3904 -8.921,-2.0367 -19.925,12.7613 -24.541,33.0334 z"
       fill="#f6a6bf"
       id="path1001" />
    <path
       d="m 374.502,145.688 c 5.597,0.516 11.523,-2.99 16.76,-10.039 4.986,-6.706 9.036,-16.109 11.404,-26.48 2.368,-10.3699 2.805,-20.6148 1.249,-28.827 -1.819,-9.4223 -6.172,-15.3933 -12.276,-16.7679 -6.103,-1.3746 -12.604,2.0851 -18.324,9.7817 -4.993,6.7046 -9.036,16.1088 -11.411,26.4786 -5.329,23.3406 -0.575,42.9376 11.048,45.5976 0.51,0.119 1.028,0.204 1.55,0.256 z m 14.789,-73.7182 c 0.134,0.0048 0.267,0.0171 0.399,0.0368 2.425,0.5554 4.607,4.3638 5.679,9.9476 1.361,7.0505 0.943,16.0124 -1.165,25.2418 -2.107,9.23 -5.621,17.483 -9.906,23.243 -3.392,4.566 -7.001,7.056 -9.427,6.501 -4.836,-1.109 -9.045,-15.376 -4.514,-35.19 2.107,-9.2294 5.628,-17.4887 9.907,-23.2498 3.203,-4.286 6.62,-6.7523 9.027,-6.5304 z"
       fill="#f6a6bf"
       id="path1003" />
    <path
       d="m 371.289,100.671 c 0.684,-3.0133 2.068,-5.8236 4.039,-8.203 1.971,-2.3795 4.474,-4.2613 7.307,-5.4931 2.833,-1.2317 5.916,-1.7789 9,-1.5971 3.083,0.1819 6.081,1.0875 8.749,2.6437 0.246,6.7787 -0.418,13.5595 -1.973,20.1625 -1.269,5.666 -3.161,11.173 -5.643,16.422 -3.132,0.374 -6.309,-0.011 -9.261,-1.122 -2.952,-1.111 -5.593,-2.916 -7.702,-5.263 -2.108,-2.347 -3.622,-5.166 -4.413,-8.221 -0.79,-3.055 -0.835,-6.255 -0.131,-9.331 z"
       fill="#ffffff"
       id="path1005" />
    <path
       d="m 388.215,128.993 c 1.693,0.154 3.399,0.129 5.087,-0.074 l 2.368,-0.276 1.038,-2.149 c 2.626,-5.54 4.625,-11.355 5.96,-17.339 1.644,-6.988 2.345,-14.1643 2.082,-21.3381 l -0.113,-2.3612 -2.041,-1.2047 c -3.261,-1.8939 -6.921,-2.9946 -10.685,-3.2132 -3.764,-0.2186 -7.527,0.451 -10.985,1.9547 -3.458,1.5037 -6.514,3.7995 -8.923,6.7021 -2.408,2.9026 -4.101,6.3308 -4.942,10.0081 -1.42,6.2213 -0.314,12.7513 3.076,18.1553 3.39,5.405 8.786,9.242 15.002,10.668 1.014,0.225 2.041,0.381 3.076,0.467 z m 1.731,-8.593 c -2.138,-0.075 -4.237,-0.595 -6.161,-1.529 -1.925,-0.933 -3.634,-2.259 -5.017,-3.892 -1.383,-1.632 -2.409,-3.536 -3.013,-5.589 -0.604,-2.053 -0.773,-4.21 -0.495,-6.332 0.278,-2.122 0.996,-4.1631 2.108,-5.9915 1.112,-1.8284 2.594,-3.4041 4.351,-4.6261 1.756,-1.222 3.748,-2.0632 5.849,-2.4698 2.1,-0.4067 4.262,-0.3696 6.347,0.1086 0.758,0.1695 1.501,0.3985 2.223,0.685 -0.025,5.5419 -0.674,11.0638 -1.935,16.4598 -1.022,4.511 -2.446,8.92 -4.257,13.176 z"
       fill="#f6a6bf"
       id="path1007" />
    <path
       d="m 202.017,366.16 86.507,7.482 c 1.147,0.106 2.289,-0.248 3.175,-0.985 0.885,-0.736 1.442,-1.794 1.548,-2.942 0.106,-1.147 -0.248,-2.289 -0.984,-3.175 -0.736,-0.886 -1.794,-1.443 -2.94,-1.549 l -86.508,-7.482 c -1.146,-0.106 -2.288,0.249 -3.174,0.985 -0.886,0.737 -1.443,1.795 -1.549,2.942 -0.105,1.147 0.249,2.29 0.985,3.176 0.736,0.886 1.793,1.443 2.94,1.548 z"
       fill="#ea4385"
       id="path1009" />
    <path
       d="m 447.755,358.358 c 0.994,0.093 1.989,-0.16 2.818,-0.714 28.465,-19.091 48.659,-48.246 56.529,-81.612 7.871,-33.367 2.834,-68.475 -14.098,-98.276 -0.279,-0.503 -0.654,-0.947 -1.105,-1.304 -0.45,-0.357 -0.967,-0.621 -1.521,-0.777 -0.554,-0.155 -1.132,-0.199 -1.703,-0.129 -0.571,0.07 -1.122,0.253 -1.622,0.538 -0.499,0.285 -0.937,0.666 -1.289,1.121 -0.351,0.456 -0.608,0.977 -0.756,1.533 -0.149,0.556 -0.185,1.135 -0.108,1.705 0.078,0.57 0.268,1.119 0.559,1.615 15.853,27.892 20.57,60.753 13.204,91.985 -7.366,31.231 -26.269,58.52 -52.914,76.386 -0.756,0.495 -1.338,1.214 -1.666,2.056 -0.327,0.842 -0.384,1.765 -0.162,2.641 0.223,0.876 0.713,1.66 1.402,2.243 0.69,0.584 1.544,0.937 2.444,1.011 z"
       fill="#f6a6bf"
       id="path1011" />
    <path
       d="m 123.792,101.606 c 0.446,0.041 0.896,0.014 1.334,-0.082 12.545,-2.7538 25.436,-3.5837 38.23,-2.4613 1.147,0.1057 2.289,-0.2486 3.175,-0.9851 0.885,-0.7365 1.443,-1.7948 1.548,-2.942 0.106,-1.1473 -0.248,-2.2896 -0.984,-3.1756 -0.736,-0.886 -1.794,-1.4431 -2.94,-1.5489 -13.669,-1.1945 -27.44,-0.3078 -40.843,2.6299 -1.008,0.2207 -1.905,0.7937 -2.53,1.616 -0.624,0.8223 -0.936,1.8403 -0.878,2.8714 0.058,1.031 0.481,2.0077 1.193,2.7546 0.713,0.747 1.668,1.216 2.695,1.323 z"
       fill="#fffef1"
       id="path1013" />
    <path
       d="m 139.919,360.788 0.769,0.071 27.301,2.362 c 1.12,0.058 2.219,-0.32 3.067,-1.054 0.847,-0.735 1.378,-1.769 1.482,-2.886 0.103,-1.117 -0.23,-2.231 -0.929,-3.108 -0.7,-0.877 -1.711,-1.449 -2.823,-1.597 l -27.299,-2.369 -0.7,-0.064 C 71.3823,345.744 19.9256,284.236 25.9479,214.687 c 1.4219,-16.758 6.1722,-33.064 13.9724,-47.964 0.5135,-1.018 0.6059,-2.198 0.2572,-3.284 -0.3487,-1.086 -1.1104,-1.992 -2.1207,-2.52 -1.0103,-0.529 -2.188,-0.639 -3.2788,-0.307 -1.0908,0.333 -2.0071,1.081 -2.5511,2.084 -8.3521,15.903 -13.451,33.312 -14.9985,51.208 -6.4635,74.33 48.5491,140.048 122.6906,146.884 z"
       fill="#f6a6bf"
       id="path1015" />
    <path
       fill-rule="evenodd"
       clip-rule="evenodd"
       d="m 268.926,172.088 v 0.264 c 0.025,-0.04 0.038,-0.086 0.038,-0.132 0,-0.047 -0.013,-0.093 -0.038,-0.132 z"
       fill="#241d50"
       id="path1017" />
    <path
       fill-rule="evenodd"
       clip-rule="evenodd"
       d="m 268.907,172.354 c -1.362,2.036 -35.872,-3.896 -35.872,-3.896 0,0 -18.951,32.782 -2.937,67.86 10.976,22.857 20.192,37.771 18.834,63.515 -10.415,2.144 -9.553,9.673 -2.973,9.372 1.233,0 7.242,0.106 8.091,0.035 8.034,-0.715 2.855,-33.573 0.981,-43.845 -0.399,-1.9 -0.563,-3.05 -0.563,-3.05 0,0 0.221,1.136 0.563,3.05 1.596,7.557 6.933,27.079 20.67,34.221 -1.02,-0.565 -6.345,-0.207 -9.981,1.494 -6.893,3.215 -11.606,9.159 3.407,8.093 18.706,0.426 36.72,-0.04 36.72,-0.04 0,0 49.548,-26.6 6.93,-70.268 -21.555,-22.084 -48.717,-9.617 -43.87,-66.541 z"
       fill="#241d50"
       id="path1019" />
    <path
       fill-rule="evenodd"
       clip-rule="evenodd"
       d="m 255.034,265.425 c -0.342,-1.915 -0.563,-3.051 -0.563,-3.051 0,0 0.164,1.15 0.563,3.051 z"
       fill="#241d50"
       id="path1021" />
    <path
       d="m 361.305,183.276 c -23.062,7.145 -29.796,41.59 -34.306,91.143 -0.643,7.015 -3.889,28.223 -25.96,33.847 0.078,0.179 0.15,0.35 0.221,0.529 30.618,2.854 43.852,-25.892 45.737,-51.1 3.419,-37.538 8.169,-62.575 28.421,-56.077 8.811,3.906 13.519,-26.453 -14.113,-18.342 z"
       fill="#2a2460"
       id="path1023" />
    <path
       fill-rule="evenodd"
       clip-rule="evenodd"
       d="m 292.127,144.818 c -5.946,0.68 -16.247,2.031 -17.345,3.374 -8.859,-10.428 -26.595,-11.319 -31.692,-11.347 l -21.876,-18.384 c -0.345,-0.292 -0.76,-0.489 -1.204,-0.571 -0.443,-0.082 -0.901,-0.046 -1.327,0.103 -0.427,0.149 -0.807,0.407 -1.103,0.749 -0.296,0.341 -0.498,0.755 -0.586,1.198 -1.498,7.558 -4.423,22.466 -4.18,22.909 -25.19,36.76 24.096,53.827 43.529,52.039 22.705,-4.353 28.016,-11.903 30.655,-19.29 3.045,-8.572 1.805,-10.086 1.805,-10.086 l 6.096,-17.144 c 0.154,-0.423 0.198,-0.88 0.127,-1.325 -0.071,-0.446 -0.253,-0.866 -0.53,-1.221 -0.278,-0.355 -0.641,-0.633 -1.055,-0.809 -0.415,-0.175 -0.867,-0.243 -1.314,-0.195 z"
       fill="#2a2460"
       id="path1025" />
    <path
       d="m 255.183,177.681 c -1.975,0.894 -3.386,1.001 -3.971,0.322 -0.712,-0.814 -0.363,-2.614 -0.128,-3.15 l 0.114,-0.15 c 0.097,-0.125 0.149,-0.278 0.149,-0.435 0,-0.158 -0.052,-0.311 -0.148,-0.436 -0.09,-0.134 -0.221,-0.233 -0.374,-0.282 -0.152,-0.049 -0.317,-0.046 -0.468,0.011 -0.208,0.096 -0.378,0.26 -0.484,0.464 -1.426,1.85 -2.902,2.7 -4.278,2.536 -3.272,-0.364 -5.645,-5.785 -5.645,-5.856 -0.038,-0.088 -0.092,-0.168 -0.16,-0.235 -0.068,-0.066 -0.149,-0.119 -0.237,-0.154 -0.088,-0.036 -0.182,-0.054 -0.278,-0.052 -0.095,10e-4 -0.189,0.021 -0.277,0.059 -0.087,0.037 -0.166,0.092 -0.233,0.16 -0.067,0.068 -0.119,0.149 -0.154,0.237 -0.036,0.088 -0.053,0.183 -0.052,0.279 0.001,0.095 0.02,0.189 0.058,0.277 0.107,0.257 2.708,6.243 6.778,6.735 0.716,0.066 1.438,-0.019 2.12,-0.249 0.681,-0.23 1.307,-0.601 1.837,-1.087 -0.014,0.5 0.085,0.996 0.286,1.454 0.203,0.457 0.504,0.863 0.883,1.189 0.424,0.277 0.901,0.461 1.401,0.541 0.5,0.08 1.011,0.053 1.5,-0.077 0.814,-0.17 1.606,-0.433 2.36,-0.786 0.088,-0.037 0.167,-0.092 0.234,-0.161 0.067,-0.069 0.119,-0.15 0.153,-0.239 0.035,-0.09 0.051,-0.185 0.048,-0.281 -0.003,-0.096 -0.025,-0.189 -0.065,-0.276 -0.038,-0.09 -0.094,-0.17 -0.164,-0.236 -0.07,-0.067 -0.153,-0.118 -0.244,-0.152 -0.091,-0.033 -0.187,-0.047 -0.284,-0.042 -0.096,0.005 -0.19,0.03 -0.277,0.072 z"
       fill="#ffffff"
       id="path1027" />
    <path
       fill-rule="evenodd"
       clip-rule="evenodd"
       d="m 252.282,169.196 c 0.143,0 -8.033,-6.678 -1.369,4.907 0,0 11.528,-5.665 1.369,-4.907 z"
       fill="url(#paint0_linear_11_764)"
       id="path1029"
       style="fill:url(#paint0_linear_11_764)" />
    <path
       fill-rule="evenodd"
       clip-rule="evenodd"
       d="m 195.842,156.772 c 0.912,-0.178 14.799,-1.373 30.651,9.539 0,0 -16.379,-14.376 -30.651,-9.539 z"
       fill="#ffffff"
       id="path1031" />
    <path
       fill-rule="evenodd"
       clip-rule="evenodd"
       d="m 195.084,167.915 c 0.784,-0.436 13.152,-5.616 30.709,-0.254 0,0 -19.018,-8.383 -30.709,0.254 z"
       fill="#ffffff"
       id="path1033" />
    <path
       fill-rule="evenodd"
       clip-rule="evenodd"
       d="m 267.451,178.518 c 14.093,1.205 21.2,8.647 21.093,8.64 -5.645,-9.149 -21.093,-8.64 -21.093,-8.64 z"
       fill="#ffffff"
       id="path1035" />
    <path
       fill-rule="evenodd"
       clip-rule="evenodd"
       d="m 267.23,179.575 c 12.496,5.184 16.83,14.098 16.737,14.062 -2.522,-10.078 -16.737,-14.062 -16.737,-14.062 z"
       fill="#ffffff"
       id="path1037" />
    <path
       opacity="0.21"
       fill-rule="evenodd"
       clip-rule="evenodd"
       d="m 220.472,124.517 c -3.628,0.679 -1.384,15.858 -1.384,15.858 4.277,-2.869 9.304,-4.409 14.45,-4.431 0,0 -9.444,-12.099 -13.066,-11.427 z"
       fill="#ffffff"
       id="path1039" />
    <path
       opacity="0.21"
       fill-rule="evenodd"
       clip-rule="evenodd"
       d="m 288.005,149.77 c -2.43,-0.714 -9.98,2.144 -9.98,2.144 4.769,0.842 7.584,6.678 7.584,6.678 0,0 4.834,-8.122 2.396,-8.822 z"
       fill="#ffffff"
       id="path1041" />
  </g>
  <defs
     id="defs1053">
    <linearGradient
       id="paint0_linear_11_764"
       x1="248.297"
       y1="170.689"
       x2="256.46701"
       y2="170.69"
       gradientUnits="userSpaceOnUse">
      <stop
         stop-color="#EC6588"
         id="stop1045" />
      <stop
         offset="1"
         stop-color="#E71A80"
         id="stop1047" />
    </linearGradient>
    <clipPath
       id="clip0_11_764">
      <rect
         width="510.08301"
         height="359.92401"
         fill="#ffffff"
         transform="matrix(-0.995776,-0.091813,-0.0918819,0.99577,541,47.5981)"
         id="rect1050"
         x="0"
         y="0" />
    </clipPath>
  </defs>
</svg>
