<?xml version="1.0" encoding="UTF-8" standalone="no"?>
<svg
   width="627"
   height="595"
   viewBox="0 0 627 595"
   fill="none"
   version="1.1"
   id="svg39"
   sodipodi:docname="conditions-bg.svg"
   inkscape:version="1.1 (c68e22c387, 2021-05-23)"
   xmlns:inkscape="http://www.inkscape.org/namespaces/inkscape"
   xmlns:sodipodi="http://sodipodi.sourceforge.net/DTD/sodipodi-0.dtd"
   xmlns="http://www.w3.org/2000/svg"
   xmlns:svg="http://www.w3.org/2000/svg">
  <defs
     id="defs43" />
  <sodipodi:namedview
     id="namedview41"
     pagecolor="#ffffff"
     bordercolor="#666666"
     borderopacity="1.0"
     inkscape:pageshadow="2"
     inkscape:pageopacity="0.0"
     inkscape:pagecheckerboard="0"
     showgrid="false"
     inkscape:zoom="1.194958"
     inkscape:cx="313.40014"
     inkscape:cy="297.5"
     inkscape:window-width="1280"
     inkscape:window-height="961"
     inkscape:window-x="-8"
     inkscape:window-y="-8"
     inkscape:window-maximized="1"
     inkscape:current-layer="svg39" />
  <path
     fill-rule="evenodd"
     clip-rule="evenodd"
     d="M313.793 85.4628C369.959 91.2453 416.901 27.8243 472.767 36.0037C533.238 44.8573 614.335 71.1603 625.785 131.142C638.89 199.79 542.016 243.254 525.284 311.11C514.157 356.237 573.617 407.409 548.083 446.258C522.009 485.929 453.382 457.772 412.741 482.342C370.744 507.731 360.444 572.643 313.793 587.9C266.309 603.429 208.097 592.883 168.73 562.143C129.741 531.697 136.313 470.535 109.928 428.708C82.0556 384.522 26.037 360.942 10.3788 311.11C-6.89612 256.135 -1.79446 194.93 19.6623 141.445C42.56 84.3679 74.2485 12.7063 134.707 1.19928C200.649 -11.3514 247.019 78.5882 313.793 85.4628Z"
     fill="#F9EAEF"
     fill-opacity="0.3"
     id="path27" />
  <g
     id="g126" />
  <g
     id="g134"
     transform="translate(123.01688,108.79044)">
    <path
       d="m 150.508,53.6544 c -14.722,17.3601 -9.693,47.5646 9.831,59.2526 24.711,14.754 51.761,-8.365 46.17,-39.3726 -1.211,-6.5672 -1.762,-7.8553 -6.934,-15.238 -5.002,-7.1419 -6.193,-8.3414 -11.021,-11.0616 -5.916,-3.2736 -13.108,-4.6976 -20.06,-3.7776 -5.035,0.6541 -14.303,5.9448 -17.986,10.1972 z m 22.037,5.2643 c 6.102,0.0344 9.716,1.6903 13.481,6.2306 13.947,16.9069 0.878,43.6337 -17.105,34.8143 -17.029,-8.2918 -14.165,-40.9115 3.624,-41.0449 z"
       fill="#ffffff"
       id="path29" />
    <path
       d="m 62.0567,117.603 c -3.5473,5.114 -5.4043,15.144 -4.2263,22.332 0.9061,5.465 1.6264,6.994 6.6291,14.136 5.1714,7.382 6.1936,8.341 11.953,11.724 12.8547,7.506 27.7955,7.812 39.0905,0.743 7.653,-4.758 11.413,-9.902 13.25,-18.124 4.321,-19.528 -10.337,-39.285 -32.1479,-43.393 -10.0977,-1.901 -17.5431,-0.517 -25.7112,4.842 -4.269,2.749 -7.2034,5.401 -8.8372,7.74 z m 24.4554,2.376 c 8.7133,-1.076 17.1539,2.464 23.1209,9.648 14.172,17.228 -5.956,34.545 -26.0305,22.406 -8.1398,-4.946 -12.7322,-15.007 -10.0634,-22.376 1.8429,-4.877 7.2987,-8.935 12.973,-9.678 z"
       fill="#ffffff"
       id="path31" />
    <path
       d="m 232.471,76.8925 c -8.363,9.9195 -11.576,21.0177 -9.469,33.5355 1.167,7.674 1.629,8.666 6.351,15.407 4.215,6.018 5.878,7.725 9.504,9.731 5.782,3.248 12.704,4.622 19.635,3.837 4.956,-0.599 6.458,-1.292 13.125,-5.958 7.058,-4.94 7.651,-5.595 11.252,-12.301 14.325,-26.7693 -3.605,-58.707 -30.551,-54.7948 -7.884,1.093 -15.112,4.9565 -19.847,10.5433 z m 23.482,4.4917 c 7.796,0.2837 13.165,4.7777 15.691,13.0555 3.901,12.5773 -4.464,27.9993 -16.104,29.5693 -11.371,1.62 -19.825,-10.281 -17.279,-24.5007 1.734,-9.7047 10.244,-18.4121 17.692,-18.1241 z"
       fill="#ffffff"
       id="path33" />
    <path
       d="m 57.2225,203.975 c -4.7119,6.287 -6.684,14.484 -5.3138,22.614 0.8721,5.25 1.6826,7.074 5.8422,13.012 4.3844,6.26 5.3504,7.138 12.03,10.834 26.9434,15.105 58.6901,-2.811 54.9101,-30.9 -0.591,-4.848 -1.311,-6.377 -6.033,-13.117 -4.744,-6.606 -6.047,-7.966 -10.818,-10.606 -11.1033,-6.34 -25.4845,-7.516 -36.3793,-2.88 -6.5682,2.804 -9.9065,5.38 -14.2382,11.043 z m 25.9573,1.683 c 12.1105,-1.899 24.9322,6.227 26.4072,16.676 0.614,4.713 -2.64,11.415 -7.031,14.489 -9.4116,6.587 -26.4097,3.177 -33.2112,-6.533 -3.0916,-4.413 -3.1259,-11.804 -0.0269,-16.723 1.8233,-3.07 9.0176,-7.149 13.8619,-7.909 z"
       fill="#ffffff"
       id="path35" />
    <path
       d="m 155.181,162.441 c -8.384,10.055 -12.453,25.938 -9.986,39.638 1.303,7.699 1.258,7.97 -2.421,14.731 -2.751,4.915 -4.258,9.438 -5.224,15.735 -5.939,38.24 30.832,68.71 66.938,55.516 12.398,-4.492 24.111,-16.637 28.476,-29.259 l 1.92,-5.769 6.08,0.169 c 13.202,0.327 27.806,-6.188 36.83,-16.331 15.182,-17.204 16.274,-42.843 2.727,-62.182 -10.511,-15.006 -30.299,-23.4 -48.319,-20.593 -7.827,1.173 -7.962,1.148 -14.676,-2.764 -12.204,-7.244 -29.457,-8.681 -42.313,-3.509 -5.863,2.309 -15.968,9.741 -20.032,14.618 z m 29.901,-1.196 c 9.788,-2.546 22.333,0.513 30.453,7.267 4.706,3.882 6.972,4.448 12.264,2.658 7.253,-2.327 12.434,-2.605 19.469,-1.071 9.975,2.227 14.354,5.141 20.481,13.888 4.272,6.099 5.195,8.084 6.168,13.143 1.539,8.371 0.418,15.613 -3.485,22.889 -3.02,5.701 -4.027,6.766 -10.458,11.267 -6.117,4.282 -7.832,5.004 -12.968,5.848 -3.331,0.417 -9.332,0.193 -13.449,-0.513 -10.042,-1.821 -11.846,-0.558 -13.725,9.607 -0.688,4.189 -2.608,9.958 -4.118,12.808 -2.472,4.481 -3.737,5.845 -9.854,10.126 -5.96,4.172 -7.989,5.114 -12.912,5.929 -8.275,1.367 -15.489,0.078 -22.798,-4.015 -5.781,-3.248 -6.804,-4.207 -11.413,-10.787 -6.048,-8.802 -7.347,-13.992 -6.05,-23.988 0.964,-7.133 2.998,-11.905 7.665,-17.923 3.493,-4.358 3.736,-6.681 1.696,-12.429 -3.515,-9.857 -2.1,-22.687 3.349,-30.926 4.051,-6.064 12.465,-12.073 19.685,-13.778 z"
       fill="#ffffff"
       id="path37" />
  </g>
</svg>
