<?xml version="1.0" encoding="UTF-8" standalone="no"?>
<svg
   width="192.99985"
   height="157.1571"
   viewBox="0 0 192.99985 157.1571"
   fill="none"
   version="1.1"
   id="svg19"
   xmlns="http://www.w3.org/2000/svg"
   xmlns:svg="http://www.w3.org/2000/svg">
  <defs
     id="defs23" />

  <circle
     cx="96.402954"
     cy="78.404854"
     r="123"
     stroke="#f6a6bf"
     id="circle17" />
  <g
     style="fill:none"
     id="g155"
     transform="translate(0,3.6309973e-5)">
    <g
       id="g141">
      <path
         d="M 128.186,0.437904 C 112.735,4.47583 103.464,23.7758 109.98,38.2849 c 8.263,18.3418 33.12,15.9464 42.391,-4.0379 1.949,-4.2432 2.15,-5.2014 2.15,-11.4978 0,-6.0911 -0.201,-7.2546 -1.881,-10.745 C 150.558,7.76093 146.997,4.06519 142.63,1.80669 139.473,0.164146 132.016,-0.520248 128.186,0.437904 Z M 138.734,12.2779 c 3.493,2.4639 4.904,4.8592 5.24,8.9656 1.209,15.262 -17.064,25.3226 -23.85,13.0719 -6.449,-11.5662 8.331,-29.08674 18.61,-22.0375 z"
         fill="#f6a6bf"
         id="path131" />
      <path
         d="M 51.5948,1.60341 C 47.4968,3.10908 42.391,8.10516 40.174,12.6906 c -1.6795,3.4904 -1.881,4.6539 -1.881,10.745 0,6.2964 0.2015,7.2546 2.1498,11.4978 4.3667,9.4447 12.8316,15.6042 22.1698,16.0833 6.315,0.3422 10.5474,-1.095 14.9142,-5.0645 C 87.8727,36.5076 87.4024,19.3292 76.5191,8.24204 71.4805,3.10908 66.6434,0.919014 59.791,0.713696 56.2304,0.576817 53.4759,0.919014 51.5948,1.60341 Z M 64.6952,12.759 c 5.4417,2.8745 8.8679,8.2812 9.4054,14.783 1.2092,15.5357 -17.3328,17.3836 -23.9837,2.3954 -2.6873,-6.0912 -1.2765,-13.6879 3.2247,-16.8362 3.0231,-2.0531 7.793,-2.19 11.3536,-0.3422 z"
         fill="#f6a6bf"
         id="path133" />
      <path
         d="m 165.939,46.5668 c -8.8,2.327 -15.115,7.3915 -18.945,15.3989 -2.418,4.8592 -2.553,5.612 -2.553,11.361 0,5.1329 0.269,6.7755 1.546,9.3762 2.015,4.1748 5.441,7.7336 9.741,10.0606 3.09,1.6425 4.232,1.8478 9.943,1.8478 6.046,0 6.651,-0.1369 11.42,-2.5322 19.013,-9.5816 21.566,-35.041 4.502,-43.596 -4.972,-2.5322 -10.682,-3.2166 -15.654,-1.9163 z m 11.69,11.9769 c 4.367,3.2851 5.643,8.0074 3.762,13.7564 -2.822,8.7602 -13.839,14.2354 -21.162,10.4712 -7.188,-3.6273 -7.256,-13.8248 -0.067,-20.9425 4.904,-4.8592 13.302,-6.4333 17.467,-3.2851 z"
         fill="#f6a6bf"
         id="path135" />
      <path
         d="M 14.0409,49.0966 C 8.80074,50.8076 4.36678,54.7086 1.88107,59.91 0.268725,63.2636 0,64.6324 0,69.6969 0,75.0352 0.201544,75.9249 2.55289,80.7156 11.9583,100.152 37.4199,102.616 46.5566,85.0273 48.1689,82.016 48.3705,80.8525 48.3705,75.1036 48.3033,69.4231 48.1017,68.1228 46.4222,64.7008 42.5929,56.6249 34.7999,50.1916 26.6709,48.4806 c -4.9042,-1.0266 -7.8602,-0.8897 -12.63,0.616 z m 14.2424,11.3609 c 7.7258,3.7642 11.8239,13.5511 8.4648,20.1212 -1.5451,2.9429 -6.1135,5.4752 -9.8756,5.4752 -8.0618,0 -16.4594,-8.7602 -16.4594,-17.0414 0,-3.7642 2.956,-8.0074 6.7181,-9.5815 2.2842,-1.0266 8.0618,-0.4791 11.1521,1.0265 z"
         fill="#f6a6bf"
         id="path137" />
      <path
         d="m 87.0714,64.566 c -8.8679,2.3954 -17.6015,9.8553 -21.6995,18.684 -2.3514,4.9276 -2.4857,5.0645 -7.3228,7.4599 -3.5606,1.711 -6.2478,3.6957 -9.3382,6.9124 -18.8107,19.5057 -9.9428,51.6717 16.1235,58.5837 8.9351,2.396 20.5575,0.137 28.1489,-5.338 l 3.4263,-2.532 3.4262,2.532 c 7.4572,5.475 18.4752,7.597 27.7462,5.407 15.653,-3.764 26.603,-18 26.603,-34.494 0,-12.798 -7.994,-25.5275 -19.482,-31.1396 -4.972,-2.4638 -5.039,-2.5322 -7.323,-7.4599 -4.098,-9.034 -13.436,-16.7676 -22.909,-18.9577 -4.299,-1.0266 -13.1,-0.8213 -17.3996,0.3422 z M 104.74,75.8585 c 6.651,2.4638 12.63,9.2394 14.578,16.3571 1.142,4.1063 2.217,5.3382 5.98,6.4333 5.105,1.5741 8.196,3.4901 11.622,7.1861 4.837,5.27 6.181,8.692 6.181,16.152 0,5.201 -0.269,6.707 -1.747,9.992 -2.486,5.407 -6.046,9.102 -11.219,11.703 -4.031,2.053 -5.039,2.259 -10.548,2.259 -5.24,0 -6.516,-0.274 -9.808,-1.848 -2.083,-1.095 -5.442,-3.628 -7.525,-5.681 -5.0382,-5.064 -6.5834,-5.064 -11.7564,0 -2.0826,2.122 -5.5088,4.654 -7.5243,5.681 -3.2247,1.574 -4.5011,1.848 -9.7412,1.848 -5.1058,0 -6.651,-0.274 -9.8085,-1.78 -5.3073,-2.532 -8.9351,-6.159 -11.488,-11.429 -2.0154,-4.175 -2.217,-5.133 -2.217,-10.745 0.0672,-7.46 1.4109,-10.951 6.1807,-16.152 3.4263,-3.696 6.5166,-5.612 11.6224,-7.1861 3.7621,-1.0951 4.837,-2.327 5.9791,-6.4333 1.9483,-7.0493 7.9274,-13.8248 14.3768,-16.3571 4.7698,-1.8478 12.0254,-1.9163 16.8624,0 z"
         fill="#f6a6bf"
         id="path139" />
    </g>
  </g>
</svg>
