<?xml version="1.0" encoding="UTF-8" standalone="no"?>
<svg
   width="90"
   height="90"
   viewBox="0 0 90 90"
   fill="none"
   version="1.1"
   id="svg52384"
   sodipodi:docname="paw-hover-working.svg"
   inkscape:version="1.1 (c68e22c387, 2021-05-23)"
   xmlns:inkscape="http://www.inkscape.org/namespaces/inkscape"
   xmlns:sodipodi="http://sodipodi.sourceforge.net/DTD/sodipodi-0.dtd"
   xmlns="http://www.w3.org/2000/svg"
   xmlns:svg="http://www.w3.org/2000/svg">
  <defs
     id="defs52388" />
  <sodipodi:namedview
     id="namedview52386"
     pagecolor="#ffffff"
     bordercolor="#666666"
     borderopacity="1.0"
     inkscape:pageshadow="2"
     inkscape:pageopacity="0.0"
     inkscape:pagecheckerboard="0"
     showgrid="false"
     inkscape:zoom="7.9"
     inkscape:cx="45"
     inkscape:cy="45"
     inkscape:window-width="1280"
     inkscape:window-height="961"
     inkscape:window-x="-8"
     inkscape:window-y="-8"
     inkscape:window-maximized="1"
     inkscape:current-layer="svg52384" />
  <g
     opacity="0.7"
     id="g52382"
     transform="rotate(45,43.872342,43.84013)">
    <path
       d="m 32.9859,16.7351 c -2.9272,4.9984 -0.3552,12.3258 5.0372,14.3756 6.8232,2.5848 12.5838,-4.4045 9.8362,-11.9074 -0.5885,-1.5879 -0.7826,-1.8853 -2.3974,-3.5001 -1.5621,-1.5622 -1.9122,-1.8088 -3.2381,-2.2733 -1.6224,-0.5541 -3.4834,-0.5888 -5.1825,-0.0481 -1.231,0.3886 -3.319,2.1255 -4.0554,3.3533 z"
       fill="#f6a6bf"
       id="path52372" />
    <path
       d="m 13.6442,36.6758 c -0.6648,1.4372 -0.693,4.0279 -0.0855,5.7725 0.4644,1.3259 0.7111,1.676 2.2732,3.2381 1.6148,1.6148 1.9123,1.8089 3.5001,2.3975 3.5422,1.3022 7.2928,0.711 9.8106,-1.561 1.7073,-1.5318 2.4242,-2.9859 2.5261,-5.1238 0.2311,-5.0756 -4.2951,-9.3606 -9.9298,-9.4129 -2.6086,-0.0242 -4.4108,0.6547 -6.2209,2.3594 -0.9482,0.8781 -1.5669,1.6723 -1.8738,2.3302 z"
       fill="#f6a6bf"
       id="path52374" />
    <path
       d="m 54.5004,18.8827 c -1.6603,2.8538 -1.981,5.7722 -0.9095,8.8079 0.6259,1.8665 0.7846,2.094 2.259,3.5684 1.3164,1.3164 1.8065,1.6688 2.8009,2.0084 1.5876,0.5538 3.379,0.5878 5.0784,0.0819 1.2139,-0.3713 1.5594,-0.6115 3.0239,-2.0761 1.5507,-1.5506 1.6706,-1.7408 2.2796,-3.5784 2.4187,-7.3333 -3.456,-14.5174 -10.0264,-12.3352 -1.9244,0.6256 -3.5644,1.9146 -4.5059,3.5231 z"
       fill="#f6a6bf"
       id="path52376" />
    <path
       d="m 16.1921,58.4877 c -0.9051,1.7827 -1.0418,3.9203 -0.3453,5.8918 0.4465,1.2735 0.7286,1.6935 2.0275,2.9924 1.3691,1.369 1.6489,1.5455 3.4806,2.1711 7.397,2.5727 14.5589,-3.3254 12.3912,-10.1795 -0.3588,-1.1858 -0.6055,-1.5359 -2.0799,-3.0103 -1.4741,-1.4396 -1.8593,-1.7214 -3.1676,-2.1682 -3.0533,-1.0891 -6.7018,-0.7404 -9.2254,0.9056 -1.521,0.9944 -2.244,1.7876 -3.0811,3.3971 z"
       fill="#f6a6bf"
       id="path52378" />
    <path
       d="m 38.1153,54.0836 c -1.2133,-3.3152 -0.8866,-7.4682 0.7734,-10.3569 0.8043,-1.401 3.0087,-3.7108 4.3746,-4.5502 2.9911,-1.8677 7.3694,-2.2792 10.7373,-1.0133 1.8495,0.678 1.8843,0.6783 3.7912,0.0352 4.3855,-1.507 9.7005,-0.2926 12.9828,2.9897 4.2301,4.2301 5.0725,10.6894 2.0234,15.6692 -1.816,2.9393 -5.1857,5.2209 -8.5024,5.7292 l -1.5281,0.2292 -0.2293,1.5282 c -0.5428,3.3511 -2.9442,6.911 -5.8501,8.5882 -8.4578,4.9123 -18.9817,-1.0629 -19.1598,-10.8896 -0.0324,-1.6175 0.1478,-2.8157 0.6221,-4.1677 0.6262,-1.8548 0.6256,-1.9244 -0.0351,-3.7912 z"
       fill="#f6a6bf"
       id="path52380" />
  </g>
</svg>
