<svg width="90" height="90" viewBox="0 0 90 90" fill="none" xmlns="http://www.w3.org/2000/svg">
<g opacity="0.7">
<path d="M32.9859 16.7351C30.0587 21.7335 32.6307 29.0609 38.0231 31.1107C44.8463 33.6955 50.6069 26.7062 47.8593 19.2033C47.2708 17.6154 47.0767 17.318 45.4619 15.7032C43.8998 14.141 43.5497 13.8944 42.2238 13.4299C40.6014 12.8758 38.7404 12.8411 37.0413 13.3818C35.8103 13.7704 33.7223 15.5073 32.9859 16.7351Z" fill="#F6A6BF"/>
<path d="M13.6442 36.6758C12.9794 38.113 12.9512 40.7037 13.5587 42.4483C14.0231 43.7742 14.2698 44.1243 15.8319 45.6864C17.4467 47.3012 17.7442 47.4953 19.332 48.0839C22.8742 49.3861 26.6248 48.7949 29.1426 46.5229C30.8499 44.9911 31.5668 43.537 31.6687 41.3991C31.8998 36.3235 27.3736 32.0385 21.7389 31.9862C19.1303 31.962 17.3281 32.6409 15.518 34.3456C14.5698 35.2237 13.9511 36.0179 13.6442 36.6758Z" fill="#F6A6BF"/>
<path d="M54.5004 18.8827C52.8401 21.7365 52.5194 24.6549 53.5909 27.6906C54.2168 29.5571 54.3755 29.7846 55.8499 31.259C57.1663 32.5754 57.6564 32.9278 58.6508 33.2674C60.2384 33.8212 62.0298 33.8552 63.7292 33.3493C64.9431 32.978 65.2886 32.7378 66.7531 31.2732C68.3038 29.7226 68.4237 29.5324 69.0327 27.6948C71.4514 20.3615 65.5767 13.1774 59.0063 15.3596C57.0819 15.9852 55.4419 17.2742 54.5004 18.8827Z" fill="#F6A6BF"/>
<path d="M16.1921 58.4877C15.287 60.2704 15.1503 62.408 15.8468 64.3795C16.2933 65.653 16.5754 66.073 17.8743 67.3719C19.2434 68.7409 19.5232 68.9174 21.3549 69.543C28.7519 72.1157 35.9138 66.2176 33.7461 59.3635C33.3873 58.1777 33.1406 57.8276 31.6662 56.3532C30.1921 54.9136 29.8069 54.6318 28.4986 54.185C25.4453 53.0959 21.7968 53.4446 19.2732 55.0906C17.7522 56.085 17.0292 56.8782 16.1921 58.4877Z" fill="#F6A6BF"/>
<path d="M38.1153 54.0836C36.902 50.7684 37.2287 46.6154 38.8887 43.7267C39.693 42.3257 41.8974 40.0159 43.2633 39.1765C46.2544 37.3088 50.6327 36.8973 54.0006 38.1632C55.8501 38.8412 55.8849 38.8415 57.7918 38.1984C62.1773 36.6914 67.4923 37.9058 70.7746 41.1881C75.0047 45.4182 75.8471 51.8775 72.798 56.8573C70.982 59.7966 67.6123 62.0782 64.2956 62.5865L62.7675 62.8157L62.5382 64.3439C61.9954 67.695 59.594 71.2549 56.6881 72.9321C48.2303 77.8444 37.7064 71.8692 37.5283 62.0425C37.4959 60.425 37.6761 59.2268 38.1504 57.8748C38.7766 56.02 38.776 55.9504 38.1153 54.0836Z" fill="#F6A6BF"/>
</g>
</svg>
