<svg width="371" height="384" viewBox="0 0 371 384" fill="none" xmlns="http://www.w3.org/2000/svg">
<g clip-path="url(#clip0_13_1669)">
<path d="M314.446 278.404C322.467 260.284 344.221 252.442 355.262 235.992C370.001 214.017 361.004 183.248 343.987 163.42C326.969 143.591 303.46 130.786 283.86 113.579C264.26 96.3726 247.695 71.3001 252.416 45.26C256.2 24.3468 273.982 7.31184 294.37 2.00549C314.758 -3.30086 336.926 2.16936 354.169 14.0774C383.671 34.4444 398.121 70.3559 408.943 104.847C415.591 126.01 421.748 147.93 431.001 167.922V384H340.491C333.557 365.792 326.626 347.584 319.697 329.376C313.471 313.043 307.268 294.541 314.446 278.404Z" fill="url(#paint0_linear_13_1669)"/>
<path d="M314.531 68.5065L318.55 64.7686C420.717 176.093 419.539 309.797 410.87 384H405.408C413.999 310.741 415.388 178.449 314.531 68.5065Z" fill="white"/>
<path d="M413.11 350.203L345.93 283.094L349.792 279.153L411.877 341.198C417.339 331.295 424.276 318.763 431.001 306.551V317.827C422.621 333.02 415.576 345.755 414.866 347.035L413.11 350.203Z" fill="white"/>
<path d="M386.62 175.671L382.812 97.9255L388.266 97.5822L392.823 190.865L325.361 115.514L329.426 111.784L386.62 175.671Z" fill="white"/>
<path d="M328.795 365.646C315.242 371.202 268.106 388.893 273.193 363.906C277.594 342.236 308.172 352.911 323.567 359.817C311.688 346.103 300.511 331.797 290.078 316.953C272.374 326.551 205.95 360.231 209.493 323.117C212.778 288.743 265.539 304.077 286.177 311.412C280.434 303.25 274.824 295.025 269.269 286.925C263.807 278.997 258.423 271.068 252.883 263.218C250.095 259.254 247.234 255.246 244.3 251.193C230.131 266.34 178.758 318.162 170.425 281.923C162.435 247.042 220.838 246.16 241.132 246.878C228.282 229.507 213.917 211.887 197.61 196.07C185.906 208.742 130.913 265.934 122.307 228.329C114.067 192.378 176.394 192.542 194.777 193.362C182.462 181.568 168.851 171.206 154.204 162.476C149.655 159.807 145.012 157.388 140.323 155.203C131.787 168.469 104.665 207.541 94.6932 184.45C85.7515 163.732 117.531 155.273 133.847 152.355C117.57 145.525 100.234 141.565 82.607 140.649C77.7928 151.73 62.3202 184.06 52.1301 167.961C43.8281 154.93 61.6414 145.355 73.8915 140.579C60.0299 140.731 46.3103 143.39 33.396 148.429C23.3775 157.794 3.27018 174.181 0.266178 158.621C-2.6598 143.404 19.2421 142.015 31.3595 142.374C45.3718 136.98 60.2582 134.216 75.2726 134.219C62.8352 126.041 40.6836 109.303 56.0392 102.584C72.6431 95.3114 79.7981 123.092 81.975 134.344C101.562 135.247 120.817 139.744 138.778 147.61C130.351 132.627 109.846 92.3539 134.198 94.6169C159.533 96.9579 147.462 137.388 143.257 149.631C148.04 151.871 152.776 154.313 157.411 157.052C172.194 165.855 185.949 176.28 198.421 188.133C195.113 165.886 187.131 96.1775 219.948 112.526C253.757 129.358 213.386 179.011 202.205 191.746C218.224 207.306 232.37 224.521 245.042 241.54C241.616 217.521 234.859 151.886 266.85 167.774C300.666 184.622 260.272 234.283 249.099 247.01C252.22 251.256 255.232 255.467 258.134 259.644C263.659 267.51 269.058 275.462 274.52 283.414C279.982 291.365 285.443 299.372 291.038 307.339C287.605 283.265 280.933 217.818 312.885 233.713C346.772 250.584 306.151 300.402 295.072 313.02C306.526 329.079 318.558 344.858 331.744 359.474C329.637 344.53 324.269 295.189 347.107 306.832C370.734 318.888 341.333 353.769 333.976 361.932C337.463 365.717 340.998 369.423 344.689 373.021C348.122 376.392 352.156 380.122 356.665 384H347.123C344.782 381.885 342.504 379.739 340.225 377.508C336.309 373.653 332.498 369.699 328.795 365.646Z" fill="#2F296C"/>
<path d="M381.735 355.408C393.111 361.089 388.468 373.824 382.117 384H369.063C367.869 369.017 368.447 348.767 381.735 355.408Z" fill="#2F296C"/>
<path d="M96.3156 319.832C128.533 299.216 173.655 290.288 211.724 299.653C249.176 308.845 275.315 333.207 299.519 356.485L328.1 383.992H44.8652C53.058 359.45 70.5982 336.329 96.3156 319.832Z" fill="url(#paint1_linear_13_1669)"/>
<path d="M136.795 342.298C148.398 335.587 161.92 332.934 176.963 334.417C222.562 338.888 268.254 364.413 297.412 384H288.002C259.179 365.319 216.998 342.852 175.886 338.818C162.404 337.499 150.38 339.84 140.104 345.787C125.435 354.261 115.791 369.072 109.307 384.023H103.346C110.157 367.948 120.543 351.702 136.795 342.298Z" fill="white"/>
</g>
<defs>
<linearGradient id="paint0_linear_13_1669" x1="458.552" y1="192.004" x2="251.596" y2="192.004" gradientUnits="userSpaceOnUse">
<stop stop-color="#82CDE4"/>
<stop offset="0.23" stop-color="#69C2D8"/>
<stop offset="0.72" stop-color="#28A6BA"/>
<stop offset="1" stop-color="#0094A7"/>
</linearGradient>
<linearGradient id="paint1_linear_13_1669" x1="329.41" y1="339.981" x2="44.3893" y2="339.981" gradientUnits="userSpaceOnUse">
<stop stop-color="#E71A80"/>
<stop offset="1" stop-color="#EC6588"/>
</linearGradient>
<clipPath id="clip0_13_1669">
<rect width="431" height="384" fill="white"/>
</clipPath>
</defs>
</svg>
