<svg width="300" height="298" viewBox="0 0 300 298" fill="none" xmlns="http://www.w3.org/2000/svg">
<a xlink:href="#">
    <path fill-rule="evenodd" clip-rule="evenodd" d="M299.393 123.914C296.827 152.785 271.679 174.547 251.738 172.778C231.796 171.009 211.651 146.171 214.217 117.299C216.784 88.4276 241.09 66.4565 261.031 68.2258C280.973 69.9945 301.96 95.0428 299.393 123.914Z" fill="#28AFC9"></path>

</a>
<a xlink:href="#">
<path fill-rule="evenodd" clip-rule="evenodd" d="M186.305 104.996C166.324 106.205 142.627 83.7309 140.853 54.7983C139.079 25.8663 159.901 1.43211 179.882 0.223788C199.864 -0.985136 223.561 21.4894 225.335 50.422C227.109 79.354 206.287 103.788 186.305 104.996Z" fill="#28AFC9"></path>
</a>
<a xlink:href="#">
<path fill-rule="evenodd" clip-rule="evenodd" d="M107.141 119.131C88.0375 125.09 61.2575 112.332 52.5594 84.6696C43.8612 57.0076 56.5388 24.9161 75.6412 18.9567C94.7442 12.9973 120.312 25.7551 129.01 53.4171C137.708 81.0797 126.244 113.171 107.141 119.131Z" fill="#28AFC9"></path>
</a>
<a xlink:href="#">
<path fill-rule="evenodd" clip-rule="evenodd" d="M78.4303 140.824C90.5963 167.152 83.0994 198.642 64.9151 206.984C46.7309 215.327 17.7048 204.36 5.53816 178.031C-6.62851 151.701 2.6721 119.98 20.8563 111.638C39.0406 103.296 66.2636 114.494 78.4303 140.824Z" fill="#28AFC9"></path>
</a>
<a xlink:href="#">
<path fill-rule="evenodd" clip-rule="evenodd" d="M101.998 193.887C129.251 113.054 166.638 108.083 212.424 165.989C217.707 172.671 224.075 178.464 231.458 182.733C289.921 216.535 279.465 271.927 232.19 273.683C226.53 273.893 220.893 273.037 215.408 271.627C196.7 266.818 178.505 268.083 161.196 279.822C101.507 329.837 41.3085 263.517 91.2139 211.97C96.1569 206.865 99.7303 200.613 101.998 193.887Z" fill="#28AFC9"/>
</a>
<path d="M141.752 206.703C142.862 206.727 143.773 207.013 144.485 207.563C145.194 208.097 145.673 208.869 145.922 209.879C146.274 211.308 146.02 212.549 145.159 213.601C144.298 214.653 142.865 215.426 140.861 215.919L133.124 217.822L129.1 201.511L136.394 199.717C138.227 199.266 139.747 199.279 140.952 199.757C142.158 200.235 142.926 201.142 143.255 202.478C143.466 203.332 143.438 204.122 143.172 204.846C142.921 205.567 142.448 206.186 141.752 206.703ZM133.802 207.745L137.857 206.747C138.835 206.506 139.533 206.129 139.95 205.614C140.367 205.1 140.482 204.462 140.294 203.701C140.106 202.939 139.708 202.428 139.099 202.165C138.487 201.888 137.691 201.869 136.713 202.11L132.658 203.108L133.802 207.745ZM140.193 213.612C142.337 213.084 143.21 212.013 142.811 210.397C142.42 208.813 141.153 208.284 139.009 208.812L134.348 209.958L135.532 214.758L140.193 213.612ZM155.865 212.401C154.576 212.718 153.351 212.731 152.192 212.439C151.032 212.148 150.046 211.591 149.234 210.77C148.417 209.932 147.858 208.9 147.555 207.673C147.252 206.446 147.269 205.28 147.607 204.175C147.944 203.071 148.55 202.122 149.426 201.33C150.318 200.534 151.416 199.976 152.721 199.655C153.948 199.353 155.082 199.338 156.121 199.609C157.176 199.877 158.051 200.42 158.747 201.237L156.832 203.092C156.333 202.605 155.777 202.289 155.164 202.143C154.563 201.978 153.944 201.974 153.307 202.13C152.219 202.398 151.406 202.977 150.868 203.867C150.326 204.742 150.2 205.77 150.491 206.951C150.783 208.131 151.366 208.993 152.242 209.535C153.129 210.059 154.124 210.184 155.227 209.913C155.864 209.756 156.412 209.473 156.871 209.064C157.342 208.635 157.686 208.089 157.901 207.426L160.46 208.181C160.209 209.231 159.68 210.128 158.874 210.87C158.08 211.592 157.077 212.103 155.865 212.401ZM173.656 201.326C173.706 201.528 173.762 201.819 173.822 202.2L164.058 204.602C164.455 205.476 165.078 206.097 165.926 206.465C166.787 206.814 167.753 206.856 168.825 206.593C170.192 206.256 171.208 205.529 171.871 204.41L173.875 205.82C173.481 206.625 172.898 207.304 172.128 207.856C171.358 208.408 170.437 208.816 169.365 209.08C167.997 209.416 166.726 209.44 165.551 209.153C164.376 208.865 163.382 208.311 162.57 207.489C161.769 206.648 161.217 205.614 160.915 204.386C160.616 203.175 160.619 202.02 160.925 200.924C161.243 199.807 161.825 198.857 162.669 198.072C163.514 197.288 164.55 196.745 165.777 196.443C166.989 196.145 168.136 196.151 169.218 196.461C170.312 196.753 171.243 197.323 172.013 198.171C172.794 199.001 173.342 200.052 173.656 201.326ZM166.352 198.773C165.42 199.002 164.697 199.477 164.182 200.197C163.679 200.897 163.471 201.723 163.557 202.674L170.619 200.936C170.272 200.066 169.711 199.429 168.936 199.027C168.161 198.624 167.3 198.54 166.352 198.773ZM162.998 195.199C162.594 195.298 162.228 195.248 161.899 195.049C161.569 194.85 161.355 194.548 161.255 194.145C161.152 193.725 161.199 193.351 161.398 193.022C161.597 192.693 161.899 192.479 162.303 192.379C162.707 192.28 163.073 192.33 163.403 192.529C163.732 192.728 163.948 193.037 164.052 193.457C164.151 193.86 164.102 194.227 163.903 194.556C163.704 194.885 163.402 195.099 162.998 195.199ZM167.52 194.086C167.116 194.186 166.749 194.136 166.42 193.937C166.09 193.738 165.876 193.436 165.776 193.032C165.673 192.613 165.721 192.239 165.92 191.91C166.119 191.58 166.42 191.366 166.824 191.267C167.228 191.167 167.595 191.217 167.924 191.416C168.253 191.616 168.47 191.925 168.573 192.344C168.673 192.748 168.623 193.115 168.424 193.444C168.225 193.773 167.924 193.987 167.52 194.086ZM190.388 203.908C189.129 204.217 187.928 204.224 186.784 203.929C185.64 203.634 184.662 203.076 183.849 202.254C183.049 201.413 182.497 200.379 182.194 199.151C181.891 197.924 181.901 196.76 182.223 195.66C182.56 194.555 183.166 193.607 184.042 192.815C184.918 192.022 185.985 191.471 187.243 191.162C188.517 190.848 189.726 190.839 190.87 191.135C192.014 191.43 192.985 191.99 193.782 192.816C194.594 193.638 195.152 194.662 195.455 195.889C195.757 197.116 195.742 198.29 195.409 199.41C195.087 200.511 194.488 201.457 193.613 202.249C192.737 203.042 191.662 203.594 190.388 203.908ZM189.773 201.414C190.845 201.151 191.642 200.576 192.165 199.689C192.688 198.802 192.806 197.777 192.518 196.612C192.231 195.446 191.649 194.593 190.774 194.05C189.898 193.508 188.925 193.368 187.853 193.632C186.781 193.896 185.983 194.471 185.46 195.357C184.953 196.24 184.843 197.264 185.131 198.429C185.418 199.594 185.992 200.45 186.852 200.996C187.727 201.539 188.701 201.678 189.773 201.414ZM147.037 224.887L149.95 224.171L151.197 229.227L157.466 227.685L156.219 222.628L159.132 221.912L162.202 234.355L159.289 235.071L158.076 230.155L151.807 231.697L153.02 236.613L150.107 237.33L147.037 224.887ZM167.64 219.67C169.473 219.219 170.98 219.318 172.162 219.967C173.356 220.596 174.171 221.796 174.608 223.567L176.407 230.86L173.657 231.536L173.283 230.022C173.06 230.653 172.651 231.199 172.056 231.659C171.472 232.099 170.714 232.433 169.782 232.663C168.85 232.892 167.996 232.937 167.22 232.799C166.44 232.645 165.787 232.336 165.261 231.872C164.746 231.389 164.401 230.79 164.224 230.075C163.949 228.957 164.14 227.963 164.799 227.092C165.469 226.202 166.697 225.537 168.484 225.098L171.7 224.307L171.654 224.12C171.44 223.25 171.011 222.647 170.368 222.311C169.74 221.971 168.913 221.927 167.888 222.18C167.189 222.352 166.524 222.631 165.894 223.016C165.28 223.398 164.787 223.84 164.417 224.344L162.752 222.504C163.282 221.846 163.973 221.273 164.824 220.783C165.676 220.294 166.614 219.923 167.64 219.67ZM169.865 230.393C170.595 230.214 171.2 229.892 171.678 229.428C172.169 228.945 172.454 228.364 172.534 227.685L172.177 226.241L169.171 226.98C167.493 227.393 166.79 228.151 167.062 229.254C167.193 229.782 167.506 230.15 168.002 230.357C168.498 230.565 169.119 230.577 169.865 230.393ZM185.715 228.743C184.426 229.06 183.201 229.073 182.042 228.782C180.882 228.49 179.896 227.934 179.084 227.112C178.267 226.275 177.708 225.243 177.405 224.015C177.102 222.788 177.119 221.622 177.457 220.518C177.794 219.413 178.4 218.465 179.276 217.673C180.167 216.877 181.266 216.318 182.571 215.997C183.798 215.695 184.931 215.68 185.971 215.952C187.026 216.219 187.901 216.762 188.597 217.579L186.682 219.435C186.183 218.948 185.627 218.631 185.014 218.486C184.413 218.32 183.794 218.316 183.157 218.473C182.069 218.74 181.256 219.319 180.718 220.21C180.176 221.085 180.05 222.112 180.341 223.293C180.633 224.474 181.216 225.335 182.091 225.878C182.979 226.401 183.974 226.527 185.077 226.256C185.714 226.099 186.262 225.816 186.721 225.406C187.192 224.977 187.535 224.431 187.751 223.769L190.31 224.523C190.059 225.574 189.53 226.47 188.724 227.212C187.93 227.935 186.927 228.445 185.715 228.743Z" fill="white"/>
<path d="M226.409 119.116C225.437 118.887 224.609 118.472 223.927 117.87C223.246 117.259 222.772 116.528 222.503 115.678C222.236 114.82 222.212 113.927 222.43 113.001C222.649 112.074 223.069 111.291 223.691 110.651C224.314 110.002 225.066 109.561 225.946 109.327C226.828 109.084 227.755 109.077 228.727 109.306C229.699 109.535 230.525 109.955 231.206 110.566C231.888 111.168 232.364 111.894 232.633 112.744C232.902 113.594 232.926 114.486 232.705 115.422C232.484 116.357 232.063 117.145 231.442 117.785C230.821 118.425 230.069 118.866 229.187 119.109C228.307 119.343 227.381 119.345 226.409 119.116ZM226.776 117.563C227.412 117.713 228.017 117.707 228.592 117.545C229.17 117.374 229.664 117.069 230.075 116.629C230.488 116.179 230.77 115.637 230.92 115.001C231.07 114.365 231.06 113.759 230.89 113.182C230.721 112.595 230.416 112.102 229.974 111.7C229.534 111.29 228.996 111.009 228.36 110.859C227.724 110.71 227.117 110.72 226.54 110.891C225.965 111.053 225.47 111.358 225.057 111.807C224.646 112.247 224.366 112.785 224.216 113.421C224.065 114.057 224.074 114.668 224.243 115.254C224.413 115.831 224.718 116.325 225.159 116.736C225.601 117.137 226.14 117.413 226.776 117.563ZM242.042 114.975L240.323 122.251L238.633 121.853L240.011 116.022L236.427 115.177L235.049 121.008L233.346 120.607L235.065 113.331L242.042 114.975ZM250.936 117.071L249.216 124.347L247.513 123.946L248.891 118.114L246.166 117.472L245.756 118.9C245.483 119.852 245.202 120.639 244.911 121.261C244.631 121.876 244.287 122.337 243.879 122.643C243.482 122.943 243.011 123.028 242.466 122.9C242.212 122.84 241.91 122.716 241.561 122.529L241.981 121.117C242.102 121.174 242.208 121.214 242.299 121.235C242.644 121.317 242.935 121.241 243.172 121.01C243.411 120.769 243.598 120.463 243.734 120.092C243.881 119.714 244.057 119.171 244.263 118.462L245.049 115.684L250.936 117.071ZM255.961 118.169C257.033 118.422 257.789 118.873 258.23 119.524C258.682 120.167 258.786 121.007 258.541 122.042L257.533 126.307L255.925 125.928L256.135 125.042C255.851 125.311 255.493 125.486 255.062 125.566C254.641 125.64 254.159 125.612 253.614 125.484C253.069 125.355 252.613 125.152 252.247 124.874C251.884 124.587 251.627 124.253 251.477 123.873C251.338 123.485 251.318 123.083 251.417 122.665C251.572 122.011 251.936 121.545 252.51 121.268C253.095 120.984 253.909 120.965 254.954 121.211L256.835 121.654L256.86 121.545C256.981 121.037 256.919 120.61 256.674 120.265C256.439 119.921 256.021 119.679 255.422 119.538C255.013 119.442 254.594 119.41 254.164 119.443C253.743 119.478 253.37 119.577 253.043 119.74L252.669 118.343C253.119 118.142 253.63 118.027 254.203 117.999C254.775 117.971 255.361 118.028 255.961 118.169ZM254.261 124.327C254.688 124.428 255.087 124.422 255.46 124.308C255.843 124.187 256.146 123.961 256.368 123.63L256.567 122.785L254.81 122.371C253.828 122.14 253.262 122.347 253.109 122.992C253.036 123.3 253.101 123.575 253.303 123.814C253.506 124.054 253.825 124.225 254.261 124.327ZM266.783 122.33L264.235 121.73L262.857 127.561L261.154 127.16L262.532 121.329L259.97 120.725L260.311 119.281L267.125 120.886L266.783 122.33ZM268.36 121.177L270.064 121.579L268.93 126.375L274.084 122.526L275.637 122.892L273.918 130.168L272.214 129.766L273.348 124.97L268.208 128.822L266.641 128.453L268.36 121.177ZM283.351 126.235L280.803 125.634L279.425 131.466L277.721 131.064L279.1 125.233L276.538 124.629L276.879 123.185L283.692 124.79L283.351 126.235ZM288.013 128.34C288.94 128.558 289.599 128.934 289.991 129.468C290.392 130.003 290.502 130.653 290.322 131.416C290.133 132.215 289.714 132.768 289.066 133.076C288.418 133.383 287.6 133.416 286.612 133.174L283.209 132.357L284.928 125.082L286.631 125.483L286.068 127.867L288.013 128.34ZM286.758 131.885C287.256 132.012 287.662 131.997 287.977 131.841C288.292 131.685 288.499 131.398 288.598 130.981C288.694 130.572 288.638 130.242 288.429 129.991C288.219 129.741 287.857 129.55 287.341 129.419L285.791 129.039L285.208 131.505L286.758 131.885Z" fill="white"/>
<path d="M63.6855 55.4972C64.3441 55.555 64.8933 55.7653 65.3333 56.1281C65.7808 56.479 66.0701 56.9472 66.2013 57.5327C66.339 58.1474 66.2592 58.7288 65.9618 59.2769C65.6622 59.8151 65.2031 60.2814 64.5843 60.6758C63.9753 61.068 63.2756 61.3524 62.485 61.529C61.8019 61.6816 61.0931 61.7426 60.3586 61.712C59.6317 61.6694 58.9329 61.5233 58.2621 61.2735L58.5654 59.7457C59.0821 59.9479 59.6323 60.0709 60.216 60.1147C60.7975 60.1487 61.3566 60.1058 61.8934 59.9859C62.6644 59.8136 63.2697 59.5196 63.7095 59.1037C64.159 58.6857 64.3247 58.2132 64.2066 57.6862C64.1061 57.2374 63.8441 56.9373 63.4208 56.7859C62.9975 56.6346 62.4589 56.6319 61.805 56.778L59.4188 57.311L59.0843 55.818L61.3241 55.3177C61.8902 55.1912 62.308 54.975 62.5776 54.6688C62.8472 54.3627 62.9372 54.0096 62.8475 53.6095C62.7404 53.1313 62.4378 52.8096 61.9396 52.6442C61.4511 52.4767 60.8702 52.4681 60.1968 52.6185C59.7381 52.721 59.2801 52.8951 58.8227 53.1407C58.3632 53.3765 57.9471 53.6693 57.5745 54.0189L56.63 52.6161C57.0936 52.2154 57.6029 51.8813 58.1579 51.6139C58.7204 51.3345 59.2945 51.1294 59.88 50.9986C60.6413 50.8286 61.3653 50.7898 62.0521 50.8823C62.7487 50.9726 63.3365 51.1948 63.8155 51.5489C64.2923 51.8932 64.5963 52.3581 64.7275 52.9436C64.8411 53.451 64.804 53.9256 64.616 54.3672C64.4279 54.8088 64.1178 55.1855 63.6855 55.4972ZM69.9396 51.4104C71.0912 51.1532 72.0318 51.2351 72.7615 51.6561C73.4988 52.0652 73.992 52.826 74.2412 53.9384L75.2676 58.5198L73.5402 58.9057L73.327 57.9543C73.1791 58.346 72.916 58.6814 72.5379 58.9606C72.1674 59.2278 71.6893 59.4268 71.1037 59.5576C70.5182 59.6884 69.9839 59.7053 69.501 59.6082C69.016 59.5014 68.6121 59.2996 68.2894 59.0028C67.9743 58.6941 67.7665 58.3153 67.6659 57.8664C67.5085 57.1638 67.6414 56.545 68.0647 56.0098C68.4955 55.4627 69.2721 55.0638 70.3944 54.8131L72.4146 54.3618L72.3884 54.2447C72.266 53.6983 72.0061 53.3157 71.6087 53.0971C71.221 52.8763 70.7051 52.8379 70.061 52.9817C69.6218 53.0799 69.2028 53.2452 68.804 53.4777C68.415 53.7081 68.1014 53.9779 67.8632 54.2873L66.8475 53.1155C67.1875 52.7117 67.6268 52.3625 68.1654 52.068C68.7041 51.7735 69.2954 51.5543 69.9396 51.4104ZM71.186 58.1406C71.6447 58.0381 72.0267 57.8452 72.3322 57.5618C72.6452 57.2664 72.8311 56.9072 72.8901 56.4842L72.6868 55.5767L70.7983 55.9986C69.7443 56.234 69.2949 56.6982 69.4501 57.391C69.5244 57.7228 69.7152 57.9568 70.0224 58.0931C70.3297 58.2294 70.7175 58.2452 71.186 58.1406ZM82.3832 48.7229L84.1343 56.5391L82.4947 56.9054L81.9667 54.5488L79.9026 55.0099L78.8349 57.723L76.8732 58.1612L78.1341 55.1437C77.5243 55.075 77.0233 54.8744 76.6312 54.5419C76.2466 54.1974 75.9876 53.7276 75.8542 53.1324C75.6531 52.2346 75.8151 51.4709 76.3402 50.8413C76.8652 50.2117 77.684 49.7726 78.7966 49.5241L82.3832 48.7229ZM79.1995 51.0479C78.0186 51.3117 77.5276 51.8876 77.7265 52.7756C77.9233 53.6538 78.5926 53.9654 79.7344 53.7103L81.6814 53.2754L81.0879 50.6261L79.1995 51.0479ZM91.3495 50.6546C92.3812 50.7315 93.0042 51.2481 93.2185 52.2044C93.3759 52.907 93.2337 53.5074 92.7919 54.0057C92.3502 54.504 91.6121 54.8687 90.5776 55.0998L86.5957 55.9893L84.8447 48.173L88.6655 47.3195C89.6219 47.1059 90.4079 47.1147 91.0233 47.3461C91.6388 47.5775 92.0187 48.0152 92.163 48.6592C92.2526 49.0593 92.2228 49.4297 92.0737 49.7704C91.9343 50.1089 91.6929 50.4037 91.3495 50.6546ZM87.318 51.048L89.2357 50.6196C90.1824 50.4081 90.5825 49.9755 90.436 49.3217C90.2939 48.6874 89.7495 48.476 88.8029 48.6875L86.8851 49.1159L87.318 51.048ZM90.1328 53.8005C91.138 53.576 91.5674 53.1368 91.4209 52.483C91.3444 52.1415 91.1704 51.9139 90.899 51.8003C90.6255 51.677 90.2398 51.671 89.7421 51.7821L87.5901 52.2629L88.0394 54.2682L90.1328 53.8005ZM98.2076 50.1062L96.7876 50.4234L97.4893 53.5558L95.6594 53.9646L93.9084 46.1483L95.7383 45.7395L96.4466 48.9012L97.9105 48.5741L99.5152 44.8958L101.477 44.4576L99.4796 48.8538L103.418 52.2314L101.266 52.7121L98.2076 50.1062ZM105.708 43.4201C106.86 43.1629 107.801 43.2448 108.53 43.6658C109.268 44.0749 109.761 44.8357 110.01 45.9481L111.036 50.5296L109.309 50.9154L109.096 49.964C108.948 50.3557 108.685 50.6911 108.307 50.9703C107.936 51.2375 107.458 51.4365 106.873 51.5673C106.287 51.6981 105.753 51.715 105.27 51.6179C104.785 51.5111 104.381 51.3093 104.058 51.0125C103.743 50.7038 103.535 50.325 103.435 49.8761C103.277 49.1735 103.41 48.5547 103.833 48.0195C104.264 47.4724 105.041 47.0735 106.163 46.8228L108.183 46.3715L108.157 46.2544C108.035 45.708 107.775 45.3254 107.377 45.1068C106.99 44.886 106.474 44.8476 105.83 44.9914C105.391 45.0896 104.972 45.2549 104.573 45.4874C104.184 45.7178 103.87 45.9876 103.632 46.297L102.616 45.1252C102.956 44.7214 103.396 44.3723 103.934 44.0777C104.473 43.7832 105.064 43.564 105.708 43.4201ZM106.955 50.1503C107.413 50.0478 107.796 49.8549 108.101 49.5715C108.414 49.2761 108.6 48.9169 108.659 48.4939L108.456 47.5864L106.567 48.0083C105.513 48.2437 105.064 48.7079 105.219 49.4007C105.293 49.7325 105.484 49.9665 105.791 50.1028C106.098 50.2391 106.486 50.2549 106.955 50.1503Z" fill="white"/>
<path d="M82.1088 66.1695L83.3161 65.8534L84.059 68.6825L87.8569 67.688L87.114 64.8589L88.3213 64.5428L90.0713 71.2069L88.864 71.523L88.131 68.7317L84.333 69.7261L85.066 72.5175L83.8587 72.8336L82.1088 66.1695ZM93.0292 63.2429C93.9514 63.0014 94.7151 63.0434 95.3203 63.3687C95.9338 63.6918 96.3583 64.3018 96.5938 65.1988L97.6504 69.2224L96.506 69.522L96.2748 68.6419C96.1551 69.0047 95.9286 69.3193 95.5953 69.5858C95.2682 69.8416 94.849 70.0365 94.3375 70.1704C93.5914 70.3658 92.9446 70.3426 92.3972 70.1007C91.8582 69.8566 91.5117 69.4411 91.3576 68.8544C91.2035 68.2676 91.294 67.7422 91.6292 67.2782C91.9621 66.8057 92.5939 66.4477 93.5245 66.204L95.4361 65.7035L95.3733 65.4646C95.2369 64.9449 94.9814 64.5862 94.6069 64.3886C94.2325 64.1911 93.7518 64.1691 93.1649 64.3228C92.7709 64.4259 92.4028 64.594 92.0607 64.8269C91.7165 65.0514 91.443 65.3067 91.2403 65.5927L90.4996 64.8191C90.7707 64.4525 91.1265 64.1353 91.5669 63.8677C92.0052 63.5917 92.4926 63.3834 93.0292 63.2429ZM94.2944 69.1873C94.7556 69.0666 95.1274 68.8617 95.4099 68.5727C95.6902 68.2753 95.8563 67.9183 95.9082 67.5015L95.6639 66.5711L93.8026 67.0584C92.7798 67.3263 92.3586 67.8039 92.5391 68.4912C92.6271 68.8265 92.8264 69.0565 93.137 69.1813C93.4475 69.306 93.8333 69.308 94.2944 69.1873ZM68.086 86.6226C68.7065 86.4601 69.2961 86.4535 69.855 86.6028C70.4139 86.7521 70.8925 87.0389 71.2906 87.4632C71.695 87.877 71.9797 88.3982 72.1448 89.0269C72.3143 89.6723 72.3183 90.2849 72.157 90.8647C72.0018 91.4339 71.6964 91.926 71.2408 92.3409C70.7937 92.7537 70.2347 93.0478 69.564 93.2235C68.4322 93.5198 67.4548 93.3636 66.6318 92.7549C65.8151 92.1356 65.2218 91.1218 64.852 89.7135C64.4933 88.3472 64.4935 87.2049 64.8527 86.2866C65.2097 85.36 65.9337 84.6194 67.0247 84.065L69.8898 82.5891L70.3564 83.6495L67.7104 84.9874C66.8891 85.4085 66.3252 85.9055 66.0187 86.4785C65.7122 87.0515 65.6429 87.7774 65.8109 88.6562C65.9837 88.154 66.2657 87.7263 66.6568 87.3731C67.0479 87.0198 67.5243 86.7696 68.086 86.6226ZM69.325 92.211C69.7526 92.099 70.1046 91.9038 70.3809 91.6254C70.6657 91.3448 70.8562 91.0127 70.9526 90.6291C71.0468 90.2371 71.0367 89.8232 70.9222 89.3873C70.7483 88.7251 70.4074 88.2455 69.8993 87.9485C69.3912 87.6515 68.8102 87.5886 68.1562 87.7599C67.5022 87.9311 67.0227 88.2717 66.7175 88.7816C66.4207 89.2893 66.3593 89.8743 66.5332 90.5365C66.6477 90.9724 66.8422 91.3381 67.1169 91.6335C67.3978 91.9183 67.7312 92.1132 68.1172 92.2181C68.5032 92.3231 68.9058 92.3207 69.325 92.211ZM76.4751 84.1169C77.1207 83.9478 77.7366 83.9388 78.3229 84.0899C78.9092 84.241 79.412 84.5349 79.8313 84.9716C80.259 85.4061 80.5609 85.9587 80.737 86.6293C80.9131 87.2999 80.9226 87.9334 80.7657 88.53C80.6149 89.1159 80.3212 89.6184 79.8846 90.0373C79.448 90.4562 78.907 90.7502 78.2614 90.9192C77.7835 91.0444 77.3191 91.0674 76.8683 90.9884C76.4258 90.9071 76.02 90.7267 75.6509 90.4471L76.5555 93.8923L75.3482 94.2084L72.9578 85.105L74.1148 84.8021L74.3921 85.8583C74.5636 85.4192 74.8305 85.0537 75.1929 84.7617C75.5531 84.4613 75.9805 84.2464 76.4751 84.1169ZM77.8834 89.8894C78.311 89.7774 78.6672 89.5811 78.9519 89.3005C79.2428 89.0094 79.4385 88.6625 79.5389 88.2599C79.6454 87.8468 79.6382 87.4097 79.5171 86.9487C79.3961 86.4876 79.1887 86.1074 78.895 85.808C78.6075 85.4981 78.2666 85.2917 77.8722 85.1889C77.4863 85.0839 77.0795 85.0874 76.6519 85.1994C76.2327 85.3092 75.8776 85.5096 75.5867 85.8008C75.302 86.0814 75.1052 86.4241 74.9965 86.8289C74.8961 87.2314 74.9064 87.6632 75.0275 88.1242C75.1485 88.5853 75.3528 88.9708 75.6403 89.2807C75.9256 89.5823 76.2665 89.7887 76.6631 89.8999C77.0574 90.0026 77.4642 89.9992 77.8834 89.8894ZM86.2406 88.83C85.5782 89.0034 84.9445 89.0126 84.3392 88.8575C83.734 88.7024 83.2133 88.4087 82.7772 87.9764C82.3473 87.5335 82.0465 86.9852 81.8748 86.3313C81.7031 85.6775 81.6969 85.0565 81.856 84.4683C82.0214 83.8696 82.3308 83.3586 82.7841 82.9352C83.2353 82.5036 83.792 82.201 84.4543 82.0276C85.1167 81.8541 85.7463 81.8461 86.3431 82.0033C86.9462 82.15 87.4626 82.4448 87.8925 82.8877C88.3286 83.32 88.6325 83.8631 88.8042 84.5169C88.9759 85.1708 88.9791 85.797 88.8137 86.3958C88.6546 86.984 88.3494 87.4939 87.8982 87.9256C87.4555 88.3551 86.9029 88.6565 86.2406 88.83ZM85.9632 87.7738C86.3908 87.6618 86.747 87.4655 87.0317 87.1849C87.3226 86.8937 87.5183 86.5469 87.6187 86.1443C87.7169 85.7334 87.7054 85.2974 87.5843 84.8363C87.4633 84.3753 87.2601 83.994 86.9748 83.6924C86.6873 83.3825 86.3464 83.1761 85.9521 83.0733C85.5661 82.9683 85.1593 82.9718 84.7317 83.0838C84.3041 83.1957 83.9438 83.3931 83.6506 83.6759C83.3659 83.9565 83.1703 84.3034 83.0637 84.7165C82.9633 85.1191 82.9736 85.5509 83.0947 86.0119C83.2158 86.4729 83.42 86.8584 83.7075 87.1684C84.0012 87.4678 84.3421 87.6741 84.7303 87.7875C85.1247 87.8903 85.5357 87.8857 85.9632 87.7738ZM89.6726 80.7284L90.8799 80.4123L91.6228 83.2414L95.4208 82.2469L94.6779 79.4178L95.8852 79.1017L97.6351 85.7658L96.4278 86.0819L95.6948 83.2905L91.8968 84.285L92.6298 87.0764L91.4225 87.3925L89.6726 80.7284ZM98.2327 78.487L99.44 78.1709L100.714 83.0244L103.527 77.1007L104.621 76.8142L106.371 83.4783L105.164 83.7944L103.889 78.9409L101.089 84.8613L99.9826 85.1511L98.2327 78.487ZM110.482 75.2124C111.128 75.0434 111.744 75.0344 112.33 75.1855C112.916 75.3366 113.419 75.6305 113.838 76.0672C114.266 76.5017 114.568 77.0542 114.744 77.7248C114.92 78.3954 114.93 79.029 114.773 79.6256C114.622 80.2115 114.328 80.714 113.891 81.1329C113.455 81.5518 112.914 81.8458 112.268 82.0148C111.79 82.14 111.326 82.163 110.875 82.084C110.433 82.0027 110.027 81.8223 109.658 81.5427L110.562 84.9879L109.355 85.304L106.965 76.2006L108.122 75.8977L108.399 76.9539C108.57 76.5148 108.837 76.1492 109.2 75.8573C109.56 75.5569 109.987 75.342 110.482 75.2124ZM111.89 80.985C112.318 80.873 112.674 80.6767 112.959 80.3961C113.25 80.1049 113.445 79.7581 113.546 79.3555C113.652 78.9424 113.645 78.5053 113.524 78.0442C113.403 77.5832 113.196 77.203 112.902 76.9036C112.614 76.5937 112.273 76.3873 111.879 76.2845C111.493 76.1795 111.086 76.183 110.659 76.295C110.24 76.4047 109.884 76.6052 109.594 76.8964C109.309 77.177 109.112 77.5197 109.003 77.9244C108.903 78.327 108.913 78.7588 109.034 79.2198C109.155 79.6809 109.36 80.0664 109.647 80.3763C109.932 80.6779 110.273 80.8843 110.67 80.9954C111.064 81.0982 111.471 81.0947 111.89 80.985ZM120.247 79.9255C119.585 80.099 118.951 80.1081 118.346 79.953C117.741 79.798 117.22 79.5043 116.784 79.072C116.354 78.6291 116.053 78.0807 115.882 77.4269C115.71 76.7731 115.704 76.1521 115.863 75.5639C116.028 74.9652 116.338 74.4541 116.791 74.0308C117.242 73.5991 117.799 73.2966 118.461 73.1231C119.124 72.9497 119.753 72.9416 120.35 73.0989C120.953 73.2456 121.47 73.5404 121.899 73.9833C122.336 74.4156 122.639 74.9587 122.811 75.6125C122.983 76.2663 122.986 76.8926 122.821 77.4914C122.661 78.0795 122.356 78.5895 121.905 79.0211C121.462 79.4506 120.91 79.7521 120.247 79.9255ZM119.97 78.8693C120.398 78.7574 120.754 78.5611 121.039 78.2805C121.33 77.9893 121.525 77.6424 121.626 77.2399C121.724 76.8289 121.712 76.3929 121.591 75.9319C121.47 75.4709 121.267 75.0896 120.982 74.788C120.694 74.478 120.353 74.2717 119.959 74.1689C119.573 74.0639 119.166 74.0674 118.739 74.1793C118.311 74.2913 117.951 74.4887 117.658 74.7715C117.373 75.0521 117.177 75.399 117.071 75.8121C116.97 76.2147 116.981 76.6464 117.102 77.1075C117.223 77.5685 117.427 77.954 117.714 78.264C118.008 78.5634 118.349 78.7697 118.737 78.8831C119.132 78.9859 119.543 78.9813 119.97 78.8693ZM83.4411 102.326C84.3619 102.318 84.9357 102.746 85.1624 103.609C85.3165 104.196 85.2131 104.707 84.8524 105.142C84.5001 105.574 83.888 105.905 83.016 106.133L79.8091 106.973L78.0592 100.309L81.1529 99.4986C81.941 99.2922 82.5969 99.2818 83.1205 99.4672C83.6419 99.6442 83.9741 100.005 84.1172 100.55C84.2096 100.902 84.1936 101.233 84.069 101.544C83.9505 101.843 83.7413 102.104 83.4411 102.326ZM79.9942 102.866L81.8051 102.392C82.2662 102.271 82.5922 102.096 82.7829 101.867C82.982 101.636 83.0397 101.361 82.9561 101.042C82.7888 100.405 82.2357 100.21 81.2967 100.455L79.4857 100.93L79.9942 102.866ZM82.6837 105.226C83.1867 105.094 83.5431 104.915 83.7528 104.69C83.9625 104.465 84.0233 104.185 83.9353 103.85C83.845 103.506 83.6605 103.281 83.3817 103.175C83.1113 103.067 82.7288 103.077 82.2342 103.207L80.222 103.734L80.747 105.733L82.6837 105.226ZM88.1445 97.6007C89.0668 97.3592 89.8304 97.4012 90.4356 97.7265C91.0491 98.0496 91.4736 98.6596 91.7091 99.5566L92.7657 103.58L91.6213 103.88L91.3902 103C91.2704 103.363 91.0439 103.677 90.7106 103.944C90.3835 104.199 89.9643 104.394 89.4529 104.528C88.7067 104.724 88.0599 104.7 87.5125 104.458C86.9735 104.214 86.627 103.799 86.4729 103.212C86.3188 102.625 86.4093 102.1 86.7445 101.636C87.0774 101.164 87.7092 100.806 88.6398 100.562L90.5514 100.061L90.4886 99.8224C90.3522 99.3027 90.0967 98.944 89.7222 98.7464C89.3478 98.5489 88.8671 98.5269 88.2802 98.6806C87.8862 98.7837 87.5181 98.9518 87.1761 99.1847C86.8318 99.4092 86.5583 99.6645 86.3557 99.9505L85.6149 99.1769C85.886 98.8103 86.2418 98.4931 86.6822 98.2255C87.1205 97.9495 87.6079 97.7412 88.1445 97.6007ZM89.4098 103.545C89.8709 103.424 90.2427 103.219 90.5252 102.93C90.8056 102.633 90.9717 102.276 91.0235 101.859L90.7792 100.929L88.9179 101.416C87.8951 101.684 87.4739 102.162 87.6544 102.849C87.7425 103.184 87.9417 103.414 88.2523 103.539C88.5628 103.664 88.9486 103.666 89.4098 103.545ZM93.1898 96.3469L94.3971 96.0307L95.14 98.8598L98.9379 97.8654L98.195 95.0363L99.4023 94.7201L101.152 101.384L99.9449 101.7L99.212 98.909L95.414 99.9034L96.147 102.695L94.9397 103.011L93.1898 96.3469ZM101.75 94.1055L102.957 93.7894L104.232 98.6428L107.044 92.7191L108.138 92.4327L109.888 99.0967L108.681 99.4129L107.407 94.5594L104.606 100.48L103.5 100.77L101.75 94.1055ZM117.391 93.6115C117.415 93.7037 117.438 93.8275 117.461 93.9827L112.054 95.3987C112.283 95.9657 112.663 96.3724 113.194 96.6187C113.731 96.8544 114.326 96.8866 114.98 96.7154C115.776 96.5068 116.347 96.0707 116.693 95.4068L117.564 96.0119C117.355 96.443 117.048 96.81 116.643 97.113C116.247 97.4137 115.773 97.6366 115.219 97.7815C114.515 97.9659 113.853 97.9869 113.233 97.8446C112.611 97.6939 112.081 97.3982 111.643 96.9575C111.213 96.5147 110.912 95.9663 110.741 95.3125C110.571 94.667 110.561 94.0471 110.709 93.4528C110.866 92.8562 111.159 92.3496 111.587 91.9328C112.021 91.5055 112.557 91.2085 113.194 91.0416C113.831 90.8748 114.436 90.8733 115.008 91.0372C115.586 91.1905 116.081 91.4907 116.494 91.938C116.916 92.3831 117.215 92.9409 117.391 93.6115ZM113.462 92.0601C112.883 92.2116 112.443 92.5149 112.142 92.9702C111.848 93.4232 111.743 93.9435 111.826 94.5311L116.102 93.4115C115.887 92.8675 115.536 92.471 115.05 92.2221C114.57 91.9626 114.04 91.9086 113.462 92.0601Z" fill="white"/>
<path d="M15.8784 161.815L20.9487 171.01L19.24 171.949L17.067 168.009L12.3089 170.625L14.4819 174.565L12.7732 175.505L7.70283 166.31L9.41154 165.371L11.5049 169.167L16.263 166.551L14.1696 162.754L15.8784 161.815ZM26.5246 168.063C25.8148 168.454 25.0906 168.652 24.3521 168.659C23.6135 168.666 22.9324 168.487 22.3088 168.122C21.6891 167.744 21.1885 167.209 20.807 166.517C20.4255 165.825 20.2428 165.121 20.2589 164.405C20.2837 163.683 20.4964 163.013 20.897 162.393C21.2975 161.774 21.8527 161.269 22.5625 160.878C23.281 160.483 24.0096 160.282 24.7481 160.276C25.4867 160.269 26.1634 160.45 26.7783 160.82C27.4019 161.184 27.9044 161.713 28.2859 162.404C28.6674 163.096 28.8482 163.807 28.8282 164.537C28.8121 165.253 28.6038 165.921 28.2032 166.541C27.8027 167.161 27.2431 167.668 26.5246 168.063ZM25.7495 166.658C26.3542 166.325 26.7426 165.849 26.9148 165.23C27.0869 164.61 26.992 163.972 26.6298 163.315C26.2676 162.658 25.7783 162.237 25.1619 162.051C24.5454 161.865 23.9349 161.938 23.3303 162.271C22.7256 162.603 22.3372 163.079 22.165 163.699C22.0016 164.314 22.101 164.949 22.4632 165.606C22.8253 166.263 23.3103 166.687 23.9179 166.878C24.5344 167.064 25.1449 166.99 25.7495 166.658ZM38.7435 161.225L36.1794 156.575L35.972 161.79L35.2622 162.18L30.77 159.532L33.3414 164.195L31.843 165.019L27.975 158.005L29.6969 157.058L34.6135 160.072L34.8099 154.247L36.3477 153.401L40.2288 160.408L38.7435 161.225ZM47.0923 152.115C47.1551 152.228 47.2356 152.395 47.334 152.615L41.8267 155.643C42.208 156.107 42.6847 156.381 43.2568 156.466C43.8328 156.537 44.4231 156.407 45.0277 156.074C45.7988 155.65 46.2941 155.047 46.5135 154.265L47.9519 154.792C47.8441 155.342 47.6023 155.846 47.2266 156.303C46.8509 156.761 46.3607 157.156 45.7561 157.488C44.985 157.912 44.2214 158.133 43.4653 158.149C42.7092 158.165 42.0193 157.991 41.3957 157.626C40.776 157.248 40.2754 156.713 39.894 156.021C39.5173 155.338 39.3326 154.641 39.3399 153.93C39.3512 153.204 39.5483 152.537 39.9313 151.927C40.3144 151.317 40.852 150.821 41.5442 150.441C42.2277 150.065 42.9212 149.883 43.6248 149.896C44.3322 149.895 44.987 150.088 45.5892 150.476C46.1953 150.85 46.6963 151.397 47.0923 152.115ZM42.2686 151.754C41.7428 152.043 41.3829 152.447 41.1887 152.964C40.9984 153.468 41.0063 154 41.2123 154.56L45.195 152.37C44.8448 151.901 44.4031 151.608 43.87 151.49C43.3369 151.372 42.8031 151.46 42.2686 151.754ZM50.7807 145.362C51.4642 144.986 52.1553 144.8 52.854 144.804C53.5615 144.803 54.2183 144.989 54.8243 145.364C55.4304 145.738 55.929 146.28 56.3202 146.989C56.7113 147.698 56.9057 148.413 56.9032 149.134C56.8959 149.845 56.7027 150.499 56.3236 151.096C55.9532 151.687 55.4263 152.171 54.7429 152.547C53.7965 153.067 52.8734 153.164 51.9737 152.837L53.8497 156.239L52.2068 157.142L46.9336 147.58L48.4977 146.72L49.0048 147.639C49.0929 147.157 49.2883 146.725 49.5908 146.341C49.9022 145.953 50.2988 145.627 50.7807 145.362ZM53.7838 151.243C54.3884 150.91 54.7724 150.436 54.9359 149.822C55.1081 149.202 55.0131 148.564 54.6509 147.907C54.2887 147.25 53.7994 146.829 53.183 146.643C52.5753 146.452 51.9691 146.523 51.3645 146.855C50.9702 147.072 50.666 147.359 50.452 147.717C50.2331 148.065 50.1234 148.456 50.1229 148.89C50.1224 149.324 50.2428 149.76 50.4843 150.198C50.7257 150.636 51.0302 150.971 51.3977 151.202C51.7652 151.434 52.1574 151.555 52.5743 151.565C52.9863 151.567 53.3895 151.459 53.7838 151.243ZM58.5037 141.115C59.5377 140.547 60.464 140.363 61.2825 140.563C62.105 140.75 62.7914 141.342 63.3419 142.341L65.6091 146.452L64.0581 147.305L63.5873 146.451C63.5548 146.868 63.396 147.264 63.1109 147.637C62.8298 147.997 62.4264 148.322 61.9006 148.611C61.3749 148.9 60.8666 149.065 60.3757 149.107C59.8799 149.14 59.4356 149.059 59.0427 148.864C58.6537 148.656 58.3482 148.35 58.1261 147.948C57.7784 147.317 57.7329 146.686 57.9897 146.054C58.2504 145.408 58.8846 144.809 59.8923 144.255L61.7062 143.257L61.6482 143.152C61.3778 142.662 61.0212 142.367 60.5784 142.268C60.1444 142.164 59.6382 142.272 59.0599 142.59C58.6655 142.806 58.3094 143.082 57.9915 143.417C57.6823 143.747 57.4566 144.093 57.3144 144.457L56.0112 143.616C56.2248 143.133 56.549 142.675 56.9839 142.242C57.4188 141.809 57.9254 141.433 58.5037 141.115ZM61.5832 147.228C61.9951 147.001 62.308 146.709 62.5221 146.352C62.7401 145.981 62.8182 145.584 62.7565 145.162L62.3074 144.347L60.6118 145.28C59.6655 145.8 59.3637 146.371 59.7066 146.993C59.8707 147.291 60.1194 147.462 60.4526 147.507C60.7857 147.552 61.1626 147.459 61.5832 147.228Z" fill="white"/>
<path d="M25.7483 179.289L26.7577 178.734L28.9945 182.79L30.1752 176.854L31.09 176.351L34.1612 181.921L33.1517 182.476L30.915 178.42L29.7448 184.349L28.8195 184.858L25.7483 179.289ZM44.4092 175.135L45.6319 177.352L44.675 177.879L43.9391 176.544L38.9444 179.291L35.8732 173.721L36.8827 173.166L39.4671 177.853L42.5165 176.176L39.9321 171.489L40.9415 170.934L43.5259 175.621L44.4092 175.135ZM49.7229 169.776C49.7654 169.853 49.8144 169.958 49.8699 170.092L45.3484 172.578C45.6819 173.034 46.114 173.312 46.6446 173.413C47.1784 173.503 47.7187 173.398 48.2655 173.097C48.9315 172.731 49.3441 172.212 49.5035 171.54L50.42 171.885C50.3299 172.318 50.1381 172.715 49.8445 173.078C49.558 173.436 49.1834 173.743 48.7207 173.997C48.1319 174.321 47.5439 174.489 46.9569 174.501C46.3661 174.507 45.8247 174.361 45.3328 174.066C44.848 173.766 44.4549 173.344 44.1535 172.797C43.8561 172.258 43.7068 171.705 43.7056 171.14C43.7114 170.571 43.859 170.051 44.1482 169.582C44.4406 169.102 44.8532 168.715 45.386 168.422C45.9188 168.129 46.4596 167.991 47.0084 168.009C47.5603 168.016 48.0717 168.173 48.5426 168.48C49.0204 168.783 49.4139 169.215 49.7229 169.776ZM45.8554 169.273C45.3717 169.539 45.0462 169.91 44.879 170.385C44.7188 170.857 44.742 171.346 44.9486 171.853L48.5237 169.887C48.2088 169.449 47.8055 169.173 47.3138 169.06C46.8252 168.936 46.3391 169.007 45.8554 169.273ZM49.736 166.098L50.7454 165.543L52.0492 167.908L55.2248 166.162L53.921 163.797L54.9304 163.242L58.0016 168.811L56.9922 169.367L55.7057 167.034L52.5302 168.78L53.8166 171.113L52.8071 171.668L49.736 166.098ZM60.4494 162.672C61.1543 162.294 61.7794 162.16 62.3248 162.271C62.8701 162.382 63.3012 162.725 63.618 163.299C63.9502 163.902 64.0038 164.479 63.7788 165.032C63.5569 165.574 63.069 166.048 62.3151 166.453L59.9644 167.732L56.8932 162.163L57.9027 161.608L58.9399 163.489L60.4494 162.672ZM62.4032 159.133L63.4126 158.578L66.4838 164.147L65.4744 164.702L62.4032 159.133ZM61.8185 165.727C62.278 165.483 62.5713 165.203 62.6983 164.887C62.8323 164.567 62.797 164.221 62.5922 163.85C62.3914 163.485 62.1289 163.283 61.8048 163.242C61.4808 163.201 61.0855 163.304 60.619 163.551L59.3456 164.224L60.5509 166.41L61.8185 165.727Z" fill="white"/>
<path d="M164.444 39.5886C165.113 39.7725 165.622 40.0855 165.969 40.5275C166.316 40.9595 166.488 41.5005 166.485 42.1505C166.479 43.0705 166.135 43.7835 165.452 44.2896C164.769 44.7956 163.783 45.0449 162.493 45.0374L157.513 45.0084L157.574 34.5086L162.269 34.5359C163.449 34.5427 164.367 34.7831 165.025 35.2569C165.682 35.7308 166.008 36.3977 166.003 37.2577C166 37.8076 165.862 38.2818 165.59 38.6803C165.327 39.0788 164.946 39.3815 164.444 39.5886ZM159.468 39.0047L162.078 39.0198C162.708 39.0235 163.188 38.9013 163.52 38.6532C163.851 38.4052 164.018 38.0361 164.021 37.5461C164.024 37.0561 163.861 36.6852 163.533 36.4333C163.204 36.1714 162.725 36.0386 162.095 36.0349L159.485 36.0197L159.468 39.0047ZM162.441 43.537C163.821 43.5451 164.514 43.0291 164.52 41.9891C164.526 40.9691 163.839 40.4551 162.459 40.4471L159.459 40.4296L159.441 43.5196L162.441 43.537ZM168.526 37.0623L170.401 37.0732L170.37 42.3531L174.826 37.099L176.535 37.1089L176.489 45.1188L174.614 45.1079L174.645 39.828L170.204 45.0822L168.479 45.0722L168.526 37.0623ZM187.57 43.5932L187.55 46.9681L185.795 46.9579L185.806 45.173L179.626 45.137L179.616 46.922L177.876 46.9119L177.895 43.5369L178.27 43.5391C178.78 43.5221 179.127 43.1991 179.311 42.5701C179.505 41.9313 179.635 41.032 179.702 39.8724L179.823 37.128L186.423 37.1664L186.385 43.5863L187.57 43.5932ZM181.411 40.0173C181.365 40.9371 181.286 41.6866 181.173 42.266C181.059 42.8453 180.857 43.2741 180.565 43.5525L184.51 43.5754L184.538 38.7455L181.463 38.7276L181.411 40.0173ZM196.758 41.2766C196.758 41.4066 196.747 41.5915 196.725 41.8314L190.44 41.7949C190.547 42.3855 190.829 42.8571 191.287 43.2098C191.755 43.5525 192.334 43.7259 193.024 43.7299C193.904 43.735 194.631 43.4493 195.204 42.8726L196.202 44.0334C195.84 44.4613 195.383 44.7837 194.832 45.0005C194.28 45.2173 193.66 45.3236 192.97 45.3196C192.09 45.3145 191.316 45.135 190.648 44.7811C189.98 44.4272 189.463 43.9392 189.096 43.3171C188.74 42.685 188.564 41.974 188.569 41.184C188.573 40.404 188.752 39.705 189.106 39.0871C189.47 38.4592 189.968 37.972 190.6 37.6257C191.232 37.2794 191.943 37.1085 192.733 37.1131C193.513 37.1177 194.207 37.2967 194.814 37.6502C195.432 37.9938 195.91 38.4816 196.246 39.1136C196.592 39.7356 196.763 40.4566 196.758 41.2766ZM192.724 38.6131C192.124 38.6096 191.613 38.7866 191.191 39.1442C190.779 39.4918 190.526 39.9603 190.432 40.5498L194.977 40.5762C194.901 39.9958 194.659 39.5244 194.251 39.162C193.843 38.7996 193.334 38.6166 192.724 38.6131ZM202.355 45.3742C201.545 45.3695 200.816 45.1903 200.168 44.8365C199.52 44.4827 199.013 43.9948 198.647 43.3726C198.291 42.7405 198.115 42.0295 198.119 41.2395C198.124 40.4495 198.308 39.7456 198.672 39.1277C199.045 38.5099 199.558 38.0278 200.21 37.6816C200.862 37.3354 201.593 37.1647 202.403 37.1694C203.223 37.1741 203.957 37.3534 204.605 37.7072C205.253 38.061 205.755 38.5489 206.112 39.171C206.478 39.7931 206.659 40.4992 206.654 41.2892C206.65 42.0791 206.46 42.7881 206.087 43.4159C205.723 44.0338 205.215 44.5158 204.563 44.8621C203.911 45.2083 203.175 45.379 202.355 45.3742ZM202.365 43.7693C203.055 43.7733 203.626 43.5466 204.079 43.0892C204.531 42.6318 204.76 42.0282 204.764 41.2782C204.769 40.5282 204.547 39.9219 204.1 39.4593C203.653 38.9967 203.084 38.7634 202.394 38.7593C201.704 38.7553 201.133 38.982 200.68 39.4394C200.237 39.8968 200.014 40.5005 200.009 41.2505C200.005 42.0005 200.221 42.6068 200.659 43.0693C201.106 43.5319 201.675 43.7652 202.365 43.7693Z" fill="white"/>
<path d="M153.216 56.1219L154.464 56.1292L154.447 59.0541L158.373 59.0769L158.39 56.152L159.638 56.1593L159.598 63.0491L158.35 63.0419L158.366 60.1559L154.441 60.1331L154.424 63.019L153.176 63.0118L153.216 56.1219ZM164.522 56.1227C165.475 56.1282 166.202 56.3664 166.702 56.8374C167.21 57.3083 167.462 58.0075 167.456 58.9348L167.432 63.0947L166.249 63.0878L166.254 62.1778C166.045 62.4973 165.744 62.7425 165.353 62.9136C164.971 63.0761 164.515 63.1557 163.987 63.1527C163.215 63.1482 162.597 62.9582 162.131 62.5829C161.674 62.2075 161.447 61.7165 161.451 61.1099C161.454 60.5032 161.678 60.0192 162.122 59.6578C162.566 59.2877 163.269 59.1054 164.231 59.111L166.207 59.1225L166.209 58.8755C166.212 58.3382 166.058 57.9256 165.748 57.6378C165.438 57.35 164.979 57.2043 164.372 57.2008C163.965 57.1984 163.566 57.2655 163.175 57.4018C162.784 57.5296 162.454 57.7053 162.184 57.9291L161.67 56.9901C162.027 56.7062 162.453 56.492 162.947 56.3475C163.442 56.1944 163.967 56.1194 164.522 56.1227ZM164.2 62.1919C164.677 62.1947 165.089 62.0931 165.437 61.8871C165.785 61.6724 166.038 61.3706 166.196 60.9815L166.202 60.0195L164.278 60.0083C163.221 60.0022 162.69 60.3544 162.686 61.0651C162.684 61.4117 162.817 61.6855 163.084 61.8864C163.352 62.0873 163.724 62.1891 164.2 62.1919ZM173.228 56.4723C173.869 56.476 174.441 56.6224 174.942 56.9113C175.443 57.2002 175.83 57.6011 176.105 58.1141C176.388 58.6184 176.527 59.1955 176.523 59.8455C176.52 60.5129 176.364 61.1056 176.058 61.6239C175.76 62.1335 175.338 62.5297 174.79 62.8125C174.251 63.0954 173.635 63.2348 172.942 63.2308C171.772 63.2239 170.868 62.82 170.232 62.019C169.604 61.2093 169.294 60.0765 169.303 58.6205C169.311 57.2079 169.608 56.1046 170.193 55.3106C170.778 54.508 171.67 53.9802 172.867 53.7272L176.017 53.0435L176.192 54.1885L173.29 54.7956C172.387 54.9897 171.714 55.3238 171.269 55.7979C170.824 56.272 170.569 56.9552 170.503 57.8475C170.8 57.4072 171.184 57.0671 171.653 56.8271C172.122 56.5872 172.647 56.4689 173.228 56.4723ZM172.974 62.1909C173.416 62.1935 173.806 62.0961 174.145 61.8987C174.493 61.7014 174.764 61.43 174.956 61.0844C175.149 60.7302 175.247 60.3278 175.249 59.8771C175.253 59.1925 175.048 58.6409 174.635 58.2225C174.221 57.8041 173.677 57.5929 173.001 57.589C172.325 57.5851 171.773 57.7899 171.346 58.2034C170.928 58.617 170.716 59.1661 170.712 59.8507C170.71 60.3014 170.803 60.7049 170.991 61.0614C171.189 61.4092 171.46 61.6838 171.806 61.8851C172.151 62.0865 172.54 62.1884 172.974 62.1909ZM184.191 56.3021L184.151 63.1919L182.903 63.1847L182.937 57.3868L179.973 57.3695L179.886 58.9031C179.837 59.8301 179.75 60.6053 179.625 61.2286C179.5 61.8432 179.298 62.336 179.018 62.7071C178.739 63.0781 178.352 63.2622 177.858 63.2594C177.633 63.258 177.377 63.2176 177.092 63.1379L177.176 62.0854C177.289 62.112 177.393 62.1256 177.488 62.1262C177.835 62.1282 178.095 61.978 178.27 61.6757C178.446 61.3734 178.56 61.0144 178.615 60.5987C178.669 60.183 178.72 59.5896 178.768 58.8186L178.9 56.2713L184.191 56.3021ZM192.701 56.2866C193.369 56.2904 193.966 56.4456 194.493 56.752C195.02 57.0497 195.433 57.4681 195.733 58.0072C196.034 58.5377 196.182 59.1409 196.178 59.8168C196.174 60.4928 196.019 61.0986 195.712 61.6342C195.406 62.1611 194.987 62.5746 194.457 62.8749C193.926 63.1751 193.328 63.3233 192.66 63.3194C192.054 63.3159 191.504 63.1871 191.011 62.9328C190.519 62.6786 190.114 62.3253 189.796 61.8728C189.486 61.4116 189.294 60.8905 189.22 60.3094L187.829 60.3013L187.812 63.2132L186.564 63.206L186.604 56.3161L187.852 56.3234L187.836 59.1443L189.24 59.1525C189.33 58.581 189.532 58.0795 189.846 57.648C190.17 57.2079 190.575 56.8722 191.061 56.641C191.557 56.4012 192.103 56.2831 192.701 56.2866ZM192.667 62.2275C193.091 62.2299 193.473 62.1325 193.812 61.9351C194.16 61.7378 194.435 61.4577 194.636 61.0949C194.838 60.7234 194.94 60.295 194.943 59.8097C194.946 59.333 194.848 58.9121 194.651 58.5469C194.454 58.1731 194.183 57.8855 193.837 57.6842C193.5 57.4829 193.12 57.381 192.695 57.3785C192.27 57.3761 191.884 57.4735 191.536 57.6708C191.188 57.8681 190.914 58.1525 190.712 58.524C190.519 58.8869 190.422 59.3067 190.419 59.7833C190.416 60.2687 190.509 60.6982 190.697 61.072C190.895 61.4371 191.166 61.7204 191.511 61.9217C191.857 62.1231 192.242 62.225 192.667 62.2275ZM204.914 62.2207L204.898 64.9117L203.728 64.9048L203.737 63.3059L197.979 63.2724L197.969 64.8714L196.786 64.8645L196.802 62.1735L197.166 62.1756C197.608 62.1522 197.913 61.842 198.081 61.2449C198.25 60.6479 198.367 59.8036 198.434 58.712L198.552 56.3856L203.895 56.4167L203.861 62.2146L204.914 62.2207ZM199.578 58.8096C199.538 59.6761 199.46 60.3949 199.344 60.9663C199.237 61.529 199.039 61.9352 198.752 62.1849L202.613 62.2073L202.64 57.5014L199.65 57.484L199.578 58.8096ZM212.78 59.9524C212.779 60.0477 212.77 60.1734 212.752 60.3293L207.162 60.2967C207.236 60.9039 207.498 61.395 207.946 61.7703C208.403 62.137 208.97 62.3223 209.646 62.3262C210.469 62.331 211.134 62.0575 211.64 61.5058L212.324 62.3158C212.01 62.678 211.618 62.953 211.149 63.141C210.689 63.329 210.173 63.4213 209.601 63.418C208.873 63.4137 208.228 63.2627 207.666 62.9647C207.105 62.6581 206.67 62.2352 206.361 61.6961C206.061 61.157 205.912 60.5495 205.916 59.8735C205.92 59.2062 206.071 58.6047 206.369 58.0691C206.675 57.5335 207.089 57.1199 207.611 56.8283C208.142 56.528 208.736 56.3798 209.395 56.3837C210.053 56.3875 210.638 56.5426 211.147 56.8489C211.665 57.1465 212.066 57.5649 212.349 58.1039C212.64 58.6429 212.784 59.2591 212.78 59.9524ZM209.389 57.4366C208.791 57.4332 208.287 57.6122 207.877 57.9739C207.477 58.3355 207.24 58.8108 207.167 59.3998L211.587 59.4255C211.521 58.8444 211.286 58.3707 210.88 58.0043C210.484 57.6294 209.987 57.4401 209.389 57.4366ZM170.864 72.2248L172.112 72.2321L172.095 75.157L176.021 75.1799L176.038 72.2549L177.286 72.2622L177.246 79.1521L175.998 79.1448L176.015 76.2588L172.089 76.236L172.072 79.122L170.824 79.1147L170.864 72.2248ZM179.712 72.2763L180.96 72.2835L180.931 77.3015L185.185 72.3081L186.316 72.3147L186.276 79.2046L185.028 79.1973L185.057 74.1794L180.816 79.1728L179.672 79.1662L179.712 72.2763ZM194.945 75.8489C194.945 75.9443 194.935 76.0699 194.917 76.2258L189.327 76.1933C189.402 76.8004 189.663 77.2916 190.112 77.6669C190.569 78.0335 191.135 78.2188 191.811 78.2228C192.635 78.2275 193.299 77.9541 193.805 77.4023L194.489 78.2123C194.175 78.5745 193.784 78.8496 193.315 79.0375C192.854 79.2255 192.338 79.3178 191.766 79.3145C191.038 79.3103 190.393 79.1592 189.832 78.8613C189.27 78.5547 188.835 78.1318 188.526 77.5926C188.226 77.0536 188.078 76.446 188.082 75.77C188.085 75.1027 188.236 74.5012 188.534 73.9656C188.841 73.4301 189.255 73.0165 189.776 72.7248C190.307 72.4246 190.901 72.2764 191.56 72.2802C192.219 72.284 192.803 72.4391 193.312 72.7454C193.831 73.0431 194.231 73.4614 194.514 74.0004C194.806 74.5394 194.949 75.1556 194.945 75.8489ZM191.554 73.3332C190.956 73.3297 190.452 73.5088 190.043 73.8704C189.642 74.2321 189.405 74.7074 189.332 75.2963L193.752 75.322C193.686 74.7409 193.451 74.2672 193.046 73.9009C192.649 73.5259 192.152 73.3367 191.554 73.3332Z" fill="white"/>
</svg>
