<svg width="381" height="379" viewBox="0 0 381 379" fill="red" xmlns="http://www.w3.org/2000/svg">
        <!-- 1st finger -->
                        <a xlink:href="#">
                            <path fill-rule="evenodd" clip-rule="evenodd"
                                d="M99.6081 179.101C115.059 212.586 105.538 252.636 82.4439 263.245C59.3499 273.855 22.4868 259.907 7.03516 226.422C-8.4165 192.936 3.39527 152.593 26.4893 141.983C49.5832 131.373 84.1565 145.615 99.6081 179.101Z" />
                        </a>
                        <!-- 2nd finger -->
                        <a xlink:href="#">
                            <path fill-rule="evenodd" clip-rule="evenodd"
                                d="M136.07 151.512C111.809 159.091 77.7988 142.865 66.7521 107.684C55.7054 72.5029 71.8059 31.6886 96.066 24.1093C120.327 16.5301 152.798 32.7556 163.845 67.9365C174.891 103.118 160.331 143.933 136.07 151.512Z" />
                        </a>
                        <!-- 3rd finger -->
                        <a xlink:href="http://ya.ru">
                            <path fill-rule="evenodd" clip-rule="evenodd"
                                d="M236.61 133.536C211.233 135.073 181.138 106.49 178.885 69.6931C176.632 32.8971 203.075 1.82136 228.452 0.284604C253.829 -1.25292 283.924 27.3304 286.177 64.1273C288.43 100.923 261.987 131.999 236.61 133.536Z" />
                        </a>
                        <!-- 4th finger -->
                        <a xlink:href="#">
                            <path fill-rule="evenodd" clip-rule="evenodd"
                                d="M380.231 157.596C376.972 194.314 345.034 221.991 319.708 219.742C294.382 217.492 268.798 185.902 272.057 149.182C275.317 112.463 306.186 84.5202 331.512 86.7704C356.837 89.0198 383.491 120.877 380.231 157.596Z" />
                        </a>
                        <!-- sole -->
                        <a xlink:href="#">
                            <path fill-rule="evenodd" clip-rule="evenodd"
                                d="M129.539 246.588C164.15 143.783 211.632 137.461 269.78 211.107C276.49 219.605 284.576 226.973 293.953 232.402C368.202 275.392 354.923 345.84 294.883 348.073C287.694 348.34 280.536 347.252 273.57 345.458C249.811 339.343 226.704 340.951 204.72 355.881C128.915 419.49 52.4634 335.145 115.843 269.586C122.121 263.093 126.659 255.142 129.539 246.588Z" />
                        </a>
                      
<path d="M185.713 259.518C187.563 259.557 189.081 260.034 190.268 260.95C191.448 261.84 192.246 263.127 192.66 264.81C193.247 267.192 192.823 269.26 191.388 271.014C189.952 272.769 187.565 274.057 184.224 274.88L171.33 278.057L164.632 250.87L176.789 247.875C179.844 247.122 182.376 247.144 184.385 247.94C186.393 248.735 187.672 250.247 188.221 252.474C188.571 253.898 188.525 255.214 188.081 256.422C187.663 257.623 186.874 258.655 185.713 259.518ZM172.464 261.258L179.222 259.593C180.854 259.191 182.017 258.561 182.712 257.703C183.407 256.845 183.598 255.782 183.285 254.513C182.973 253.245 182.309 252.392 181.296 251.955C180.275 251.492 178.949 251.462 177.318 251.864L170.56 253.529L172.464 261.258ZM183.112 271.034C186.685 270.154 188.14 268.368 187.477 265.675C186.826 263.034 184.714 262.153 181.141 263.034L173.373 264.947L175.344 272.948L183.112 271.034ZM209.229 269.008C207.08 269.538 205.04 269.56 203.108 269.074C201.175 268.589 199.533 267.662 198.179 266.293C196.819 264.897 195.887 263.177 195.383 261.132C194.879 259.086 194.909 257.143 195.471 255.301C196.034 253.46 197.045 251.879 198.505 250.558C199.99 249.231 201.821 248.299 203.996 247.763C206.041 247.259 207.93 247.234 209.662 247.686C211.419 248.132 212.878 249.036 214.037 250.398L210.845 253.491C210.013 252.68 209.087 252.153 208.066 251.91C207.064 251.635 206.033 251.628 204.971 251.89C203.159 252.336 201.803 253.302 200.906 254.786C200.002 256.245 199.792 257.958 200.277 259.926C200.762 261.894 201.734 263.33 203.192 264.234C204.67 265.105 206.328 265.315 208.167 264.862C209.228 264.6 210.142 264.128 210.908 263.445C211.693 262.73 212.265 261.82 212.624 260.715L216.889 261.972C216.469 263.723 215.587 265.217 214.244 266.454C212.921 267.659 211.249 268.511 209.229 269.008ZM238.882 250.539C238.965 250.875 239.057 251.361 239.158 251.995L222.885 256.004C223.546 257.462 224.584 258.497 225.998 259.109C227.432 259.69 229.042 259.76 230.829 259.32C233.107 258.759 234.8 257.545 235.905 255.68L239.244 258.03C238.587 259.373 237.616 260.504 236.332 261.425C235.048 262.345 233.513 263.026 231.727 263.466C229.448 264.027 227.33 264.068 225.372 263.589C223.414 263.111 221.758 262.187 220.404 260.817C219.07 259.416 218.151 257.692 217.647 255.647C217.15 253.627 217.156 251.703 217.667 249.874C218.197 248.013 219.167 246.429 220.574 245.121C221.982 243.813 223.709 242.907 225.755 242.403C227.774 241.905 229.685 241.915 231.488 242.432C233.31 242.917 234.863 243.867 236.145 245.281C237.447 246.663 238.359 248.416 238.882 250.539ZM226.712 246.287C225.158 246.669 223.952 247.461 223.094 248.661C222.256 249.829 221.909 251.205 222.052 252.79L233.82 249.891C233.243 248.44 232.309 247.379 231.018 246.709C229.726 246.038 228.291 245.897 226.712 246.287ZM221.124 240.33C220.451 240.496 219.84 240.413 219.292 240.081C218.743 239.75 218.386 239.247 218.22 238.574C218.048 237.875 218.128 237.251 218.459 236.702C218.791 236.154 219.294 235.796 219.967 235.631C220.64 235.465 221.251 235.548 221.799 235.879C222.348 236.211 222.708 236.727 222.881 237.426C223.047 238.099 222.964 238.71 222.632 239.258C222.3 239.807 221.798 240.164 221.124 240.33ZM228.659 238.474C227.986 238.64 227.375 238.557 226.826 238.225C226.278 237.893 225.921 237.391 225.755 236.718C225.583 236.019 225.662 235.395 225.994 234.846C226.326 234.297 226.828 233.94 227.501 233.774C228.175 233.609 228.786 233.691 229.334 234.023C229.883 234.355 230.243 234.87 230.415 235.569C230.581 236.243 230.498 236.854 230.167 237.402C229.835 237.951 229.332 238.308 228.659 238.474ZM173.249 318.039C171.151 318.555 169.149 318.568 167.243 318.076C165.337 317.585 163.707 316.654 162.354 315.285C161.02 313.883 160.101 312.16 159.597 310.114C159.093 308.069 159.109 306.128 159.646 304.293C160.208 302.452 161.219 300.871 162.679 299.55C164.139 298.229 165.917 297.31 168.015 296.794C170.138 296.271 172.153 296.255 174.059 296.747C175.965 297.238 177.582 298.172 178.91 299.547C180.263 300.917 181.192 302.624 181.696 304.67C182.2 306.715 182.174 308.672 181.618 310.539C181.081 312.374 180.083 313.952 178.623 315.273C177.163 316.593 175.372 317.515 173.249 318.039ZM172.225 313.883C174.011 313.443 175.34 312.483 176.212 311.005C177.084 309.527 177.281 307.817 176.802 305.875C176.324 303.933 175.355 302.51 173.897 301.606C172.438 300.702 170.816 300.47 169.029 300.911C167.242 301.351 165.913 302.31 165.041 303.788C164.196 305.26 164.012 306.967 164.49 308.908C164.969 310.85 165.924 312.277 167.357 313.187C168.816 314.091 170.438 314.323 172.225 313.883ZM194.671 290.474L199.526 289.278L201.602 297.706L212.05 295.132L209.973 286.704L214.828 285.508L219.938 306.248L215.083 307.444L213.064 299.249L202.616 301.823L204.635 310.018L199.78 311.214L194.671 290.474ZM229.006 281.768C232.061 281.015 234.573 281.179 236.542 282.259C238.531 283.307 239.889 285.307 240.616 288.259L243.611 300.416L239.028 301.545L238.406 299.02C238.034 300.073 237.351 300.983 236.359 301.749C235.387 302.483 234.123 303.041 232.57 303.424C231.016 303.807 229.593 303.883 228.3 303.652C227.001 303.395 225.913 302.881 225.036 302.108C224.179 301.303 223.603 300.305 223.31 299.114C222.851 297.25 223.17 295.592 224.268 294.14C225.386 292.657 227.433 291.548 230.411 290.814L235.771 289.494L235.694 289.183C235.337 287.733 234.622 286.728 233.551 286.168C232.505 285.602 231.127 285.53 229.419 285.951C228.253 286.238 227.146 286.703 226.096 287.346C225.072 287.983 224.251 288.72 223.634 289.559L220.86 286.494C221.743 285.397 222.895 284.441 224.314 283.624C225.733 282.808 227.297 282.189 229.006 281.768ZM232.709 299.641C233.926 299.341 234.933 298.805 235.732 298.031C236.549 297.225 237.025 296.257 237.158 295.126L236.565 292.718L231.555 293.952C228.758 294.641 227.586 295.904 228.039 297.743C228.256 298.623 228.778 299.236 229.605 299.582C230.431 299.927 231.466 299.947 232.709 299.641ZM259.123 296.882C256.974 297.412 254.933 297.434 253.001 296.949C251.069 296.463 249.426 295.536 248.073 294.167C246.713 292.772 245.781 291.051 245.277 289.006C244.773 286.96 244.802 285.017 245.365 283.175C245.927 281.334 246.939 279.753 248.398 278.432C249.884 277.105 251.714 276.173 253.889 275.638C255.935 275.134 257.823 275.108 259.555 275.56C261.313 276.006 262.771 276.91 263.931 278.272L260.738 281.365C259.907 280.554 258.98 280.027 257.959 279.784C256.958 279.509 255.926 279.502 254.865 279.764C253.052 280.211 251.697 281.176 250.799 282.661C249.895 284.119 249.686 285.832 250.171 287.8C250.655 289.768 251.627 291.204 253.086 292.108C254.564 292.98 256.222 293.189 258.06 292.736C259.122 292.475 260.036 292.002 260.801 291.319C261.586 290.604 262.158 289.694 262.518 288.589L266.782 289.846C266.362 291.597 265.481 293.091 264.138 294.329C262.814 295.534 261.143 296.385 259.123 296.882Z" fill="red"/>
<path d="M291.861 149.359C290.681 149.08 289.676 148.575 288.847 147.844C288.021 147.102 287.444 146.215 287.117 145.183C286.793 144.139 286.763 143.055 287.029 141.93C287.294 140.805 287.804 139.854 288.558 139.077C289.315 138.289 290.227 137.754 291.295 137.47C292.366 137.175 293.492 137.167 294.672 137.446C295.852 137.724 296.856 138.235 297.682 138.977C298.511 139.708 299.089 140.59 299.416 141.622C299.743 142.654 299.772 143.738 299.504 144.874C299.236 146.01 298.725 146.967 297.971 147.744C297.217 148.521 296.305 149.057 295.234 149.351C294.165 149.635 293.041 149.637 291.861 149.359ZM292.306 147.473C293.078 147.655 293.813 147.648 294.512 147.452C295.213 147.244 295.813 146.874 296.311 146.339C296.813 145.794 297.155 145.135 297.337 144.363C297.519 143.591 297.506 142.854 297.299 142.153C297.095 141.441 296.724 140.841 296.187 140.354C295.652 139.855 294.999 139.514 294.227 139.332C293.455 139.15 292.718 139.162 292.017 139.37C291.319 139.566 290.719 139.937 290.218 140.482C289.719 141.016 289.379 141.67 289.196 142.442C289.014 143.214 289.025 143.956 289.23 144.668C289.437 145.369 289.808 145.969 290.342 146.468C290.879 146.955 291.534 147.29 292.306 147.473ZM310.84 144.336L308.755 153.171L306.704 152.687L308.375 145.605L304.023 144.578L302.352 151.66L300.284 151.172L302.369 142.336L310.84 144.336ZM321.639 146.884L319.554 155.719L317.486 155.231L319.157 148.15L315.848 147.369L315.351 149.103C315.02 150.259 314.678 151.215 314.325 151.97C313.986 152.717 313.569 153.276 313.073 153.648C312.592 154.012 312.02 154.116 311.358 153.96C311.049 153.887 310.683 153.736 310.259 153.508L310.769 151.794C310.915 151.864 311.044 151.912 311.154 151.938C311.573 152.037 311.927 151.945 312.214 151.664C312.504 151.372 312.732 151 312.896 150.55C313.074 150.091 313.288 149.431 313.538 148.57L314.491 145.197L321.639 146.884ZM327.74 148.219C329.042 148.526 329.96 149.075 330.496 149.865C331.045 150.647 331.171 151.666 330.875 152.924L329.652 158.102L327.7 157.642L327.954 156.566C327.609 156.892 327.175 157.104 326.651 157.202C326.141 157.291 325.555 157.258 324.893 157.101C324.231 156.945 323.678 156.698 323.234 156.361C322.792 156.012 322.48 155.606 322.298 155.144C322.13 154.674 322.106 154.185 322.225 153.677C322.413 152.883 322.855 152.318 323.551 151.981C324.261 151.637 325.251 151.614 326.519 151.913L328.802 152.452L328.834 152.32C328.979 151.702 328.904 151.183 328.607 150.764C328.321 150.347 327.814 150.053 327.086 149.881C326.59 149.764 326.081 149.725 325.559 149.765C325.048 149.808 324.595 149.928 324.199 150.125L323.743 148.429C324.29 148.185 324.911 148.046 325.606 148.012C326.301 147.978 327.012 148.047 327.74 148.219ZM325.679 155.697C326.197 155.82 326.682 155.812 327.134 155.674C327.599 155.528 327.967 155.253 328.236 154.851L328.478 153.825L326.344 153.322C325.153 153.041 324.465 153.292 324.28 154.075C324.191 154.45 324.27 154.783 324.516 155.074C324.762 155.364 325.149 155.572 325.679 155.697ZM340.882 153.276L337.788 152.546L336.116 159.628L334.048 159.14L335.719 152.058L332.609 151.324L333.023 149.57L341.296 151.523L340.882 153.276ZM342.796 151.877L344.864 152.365L343.49 158.189L349.745 153.517L351.631 153.962L349.546 162.797L347.478 162.309L348.852 156.485L342.613 161.161L340.711 160.712L342.796 151.877ZM360.998 158.024L357.904 157.293L356.233 164.375L354.165 163.887L355.836 156.805L352.725 156.071L353.139 154.318L361.412 156.27L360.998 158.024ZM366.659 160.582C367.784 160.848 368.585 161.304 369.061 161.952C369.548 162.603 369.682 163.392 369.463 164.318C369.234 165.289 368.726 165.961 367.939 166.334C367.153 166.707 366.159 166.747 364.96 166.452L360.827 165.459L362.912 156.624L364.98 157.112L364.297 160.007L366.659 160.582ZM365.137 164.887C365.741 165.041 366.234 165.023 366.616 164.834C366.999 164.645 367.25 164.297 367.37 163.789C367.487 163.293 367.418 162.892 367.164 162.588C366.91 162.283 366.47 162.051 365.844 161.892L363.961 161.43L363.255 164.425L365.137 164.887Z" fill="white"/>
<path d="M85.6494 82.5381C86.5274 82.615 87.2596 82.8952 87.846 83.3789C88.4425 83.8466 88.828 84.4708 89.0027 85.2515C89.1861 86.0712 89.0794 86.8466 88.6827 87.5775C88.2831 88.2953 87.6708 88.9173 86.8458 89.4435C86.0338 89.9667 85.1008 90.3462 84.0468 90.582C83.136 90.7857 82.191 90.8673 81.2119 90.8268C80.2429 90.7703 79.3112 90.5757 78.417 90.2429L78.822 88.2053C79.5107 88.4748 80.2442 88.6386 81.0223 88.6968C81.7976 88.742 82.543 88.6845 83.2586 88.5244C84.2866 88.2945 85.0937 87.9021 85.6801 87.3474C86.2795 86.7898 86.5006 86.1596 86.3434 85.457C86.2095 84.8585 85.8604 84.4584 85.2961 84.2567C84.7318 84.055 84.0137 84.0517 83.142 84.2467L79.9606 84.9584L79.5152 82.9676L82.5014 82.2996C83.2561 82.1308 83.8132 81.8422 84.1727 81.4338C84.5323 81.0255 84.6524 80.5546 84.533 80.0211C84.3904 79.3835 83.987 78.9546 83.3229 78.7343C82.6718 78.511 81.8973 78.4998 80.9995 78.7007C80.388 78.8375 79.7773 79.0697 79.1674 79.3974C78.5547 79.7121 77.9999 80.1027 77.5031 80.569L76.2444 78.6987C76.8626 78.1642 77.5417 77.7185 78.2817 77.3617C79.0317 76.989 79.7971 76.7153 80.5778 76.5406C81.5927 76.3136 82.558 76.2616 83.4736 76.3847C84.4022 76.5049 85.1858 76.8009 85.8242 77.273C86.4597 77.7319 86.8648 78.3518 87.0395 79.1325C87.1908 79.8091 87.1411 80.4419 86.8903 81.0309C86.6395 81.6198 86.2259 82.1222 85.6494 82.5381ZM93.9886 77.0861C95.524 76.7426 96.778 76.8515 97.7507 77.4127C98.7334 77.9579 99.3907 78.9722 99.7225 80.4556L101.089 86.5646L98.7861 87.0798L98.5023 85.8111C98.3049 86.3335 97.9541 86.7809 97.4499 87.1533C96.9558 87.5097 96.3184 87.7753 95.5377 87.9499C94.757 88.1246 94.0447 88.1473 93.401 88.018C92.7543 87.8758 92.216 87.6068 91.7859 87.2112C91.3659 86.7996 91.089 86.2945 90.9551 85.696C90.7455 84.7592 90.9229 83.9338 91.4874 83.2201C92.062 82.4904 93.0974 81.9581 94.5938 81.6234L97.2872 81.0209L97.2523 80.8647C97.0893 80.1361 96.7429 79.626 96.2132 79.3347C95.6965 79.0404 95.0087 78.9893 94.1499 79.1814C93.5644 79.3124 93.0058 79.533 92.474 79.8432C91.9552 80.1506 91.5371 80.5105 91.2195 80.9231L89.8658 79.361C90.3192 78.8224 90.9049 78.3566 91.6231 77.9636C92.3414 77.5707 93.1298 77.2782 93.9886 77.0861ZM95.6478 86.0603C96.2594 85.9235 96.7688 85.6661 97.1761 85.2881C97.5935 84.8941 97.8415 84.415 97.9203 83.8509L97.6496 82.6408L95.1318 83.2041C93.7265 83.5184 93.1272 84.1375 93.3339 85.0614C93.4329 85.5038 93.6871 85.8158 94.0967 85.9974C94.5062 86.1791 95.0232 86.2 95.6478 86.0603ZM110.579 73.4977L112.911 83.9201L110.725 84.4091L110.022 81.2667L107.27 81.8824L105.845 85.5006L103.23 86.0857L104.912 82.0614C104.099 81.97 103.431 81.7027 102.908 81.2594C102.396 80.8003 102.051 80.1738 101.873 79.3801C101.605 78.183 101.822 77.1646 102.522 76.3248C103.222 75.485 104.314 74.8992 105.797 74.5674L110.579 73.4977ZM106.334 76.5993C104.759 76.9515 104.105 77.7196 104.369 78.9037C104.631 80.0747 105.524 80.49 107.046 80.1494L109.642 79.5687L108.851 76.036L106.334 76.5993ZM122.532 76.0703C123.907 76.1725 124.738 76.8612 125.023 78.1363C125.232 79.0732 125.043 79.8739 124.454 80.5385C123.864 81.2032 122.88 81.6898 121.501 81.9983L116.192 83.1859L113.861 72.7635L118.955 71.624C120.23 71.3387 121.278 71.3502 122.098 71.6586C122.919 71.9669 123.425 72.5504 123.617 73.4092C123.736 73.9427 123.697 74.4366 123.498 74.891C123.312 75.3425 122.99 75.7356 122.532 76.0703ZM117.157 76.5964L119.714 76.0244C120.976 75.7421 121.509 75.165 121.314 74.2932C121.125 73.4474 120.4 73.1657 119.137 73.4481L116.581 74.0201L117.157 76.5964ZM120.909 80.2659C122.249 79.9661 122.821 79.3803 122.626 78.5085C122.524 78.0531 122.293 77.7497 121.931 77.5984C121.566 77.434 121.052 77.4261 120.388 77.5745L117.519 78.2163L118.118 80.8902L120.909 80.2659ZM131.675 75.3366L129.782 75.7601L130.716 79.9369L128.276 80.4826L125.945 70.0602L128.385 69.5145L129.328 73.7303L131.279 73.2936L133.42 68.388L136.035 67.8029L133.371 73.666L138.621 78.1685L135.752 78.8104L131.675 75.3366ZM141.677 66.4179C143.212 66.0744 144.466 66.1833 145.439 66.7445C146.422 67.2897 147.079 68.304 147.411 69.7874L148.778 75.8964L146.475 76.4116L146.191 75.1429C145.993 75.6653 145.643 76.1127 145.138 76.4851C144.644 76.8415 144.007 77.1071 143.226 77.2817C142.445 77.4564 141.733 77.4791 141.089 77.3498C140.443 77.2076 139.904 76.9386 139.474 76.543C139.054 76.1314 138.777 75.6263 138.644 75.0278C138.434 74.0909 138.611 73.2656 139.176 72.5519C139.75 71.8222 140.786 71.2899 142.282 70.9552L144.976 70.3527L144.941 70.1965C144.778 69.4679 144.431 68.9578 143.902 68.6665C143.385 68.3722 142.697 68.3211 141.838 68.5132C141.253 68.6442 140.694 68.8648 140.162 69.175C139.644 69.4824 139.226 69.8423 138.908 70.2549L137.554 68.6928C138.008 68.1542 138.593 67.6884 139.312 67.2954C140.03 66.9025 140.818 66.61 141.677 66.4179ZM143.336 75.3921C143.948 75.2553 144.457 74.9979 144.865 74.6198C145.282 74.2259 145.53 73.7468 145.609 73.1827L145.338 71.9726L142.82 72.5359C141.415 72.8502 140.816 73.4693 141.022 74.3932C141.121 74.8356 141.376 75.1476 141.785 75.3292C142.195 75.5109 142.712 75.5318 143.336 75.3921Z" fill="white"/>
<path d="M78.0525 105.984L78.8882 105.765L79.4018 107.724L82.0309 107.035L81.5173 105.076L82.3531 104.857L83.5629 109.471L82.7272 109.69L82.2204 107.757L79.5913 108.447L80.0981 110.379L79.2623 110.598L78.0525 105.984ZM85.6121 103.956C86.2505 103.788 86.7791 103.817 87.1979 104.042C87.6225 104.266 87.9162 104.688 88.079 105.309L88.8095 108.095L88.0173 108.303L87.8575 107.693C87.7745 107.945 87.6177 108.163 87.3869 108.347C87.1605 108.524 86.8703 108.659 86.5162 108.752C85.9997 108.888 85.552 108.872 85.1731 108.704C84.8001 108.535 84.5603 108.248 84.4538 107.842C84.3473 107.435 84.41 107.071 84.6421 106.75C84.8727 106.423 85.3101 106.175 85.9543 106.006L87.2775 105.659L87.2342 105.494C87.1398 105.134 86.9631 104.885 86.7039 104.749C86.4447 104.612 86.112 104.597 85.7058 104.703C85.433 104.775 85.1782 104.891 84.9414 105.053C84.703 105.208 84.5137 105.385 84.3733 105.583L83.8607 105.048C84.0485 104.794 84.2948 104.574 84.5998 104.389C84.9032 104.197 85.2406 104.053 85.6121 103.956ZM86.4866 108.071C86.8058 107.988 87.0632 107.846 87.2588 107.646C87.4529 107.44 87.568 107.192 87.604 106.904L87.4351 106.26L86.1466 106.598C85.4385 106.783 85.1469 107.114 85.2717 107.59C85.3326 107.822 85.4705 107.981 85.6854 108.068C85.9003 108.154 86.1674 108.155 86.4866 108.071ZM93.8342 102.014C94.2637 101.901 94.6718 101.896 95.0587 102C95.4455 102.103 95.7767 102.301 96.0522 102.595C96.332 102.882 96.5289 103.242 96.6431 103.678C96.7603 104.125 96.7629 104.549 96.6511 104.95C96.5436 105.344 96.3321 105.685 96.0167 105.973C95.7071 106.259 95.3201 106.462 94.8558 106.584C94.0723 106.79 93.3958 106.682 92.8263 106.26C92.2611 105.832 91.8507 105.13 91.595 104.155C91.3469 103.209 91.3473 102.418 91.5962 101.782C91.8435 101.14 92.3448 100.627 93.1 100.243L95.0835 99.2205L95.4063 99.9546L93.5745 100.882C93.0059 101.173 92.6155 101.518 92.4032 101.914C92.1909 102.311 92.1428 102.814 92.2589 103.422C92.3787 103.075 92.5739 102.778 92.8447 102.534C93.1155 102.289 93.4453 102.116 93.8342 102.014ZM94.6906 105.883C94.9866 105.805 95.2303 105.67 95.4216 105.477C95.6187 105.283 95.7507 105.053 95.8175 104.787C95.8828 104.516 95.8759 104.229 95.7968 103.928C95.6765 103.469 95.4406 103.137 95.089 102.931C94.7374 102.726 94.3352 102.683 93.8825 102.801C93.4298 102.92 93.0978 103.156 92.8864 103.509C92.6809 103.861 92.6383 104.266 92.7585 104.724C92.8376 105.026 92.9722 105.279 93.1623 105.484C93.3567 105.681 93.5874 105.816 93.8546 105.888C94.1217 105.961 94.4004 105.959 94.6906 105.883ZM99.6415 100.277C100.088 100.16 100.515 100.153 100.921 100.258C101.326 100.362 101.674 100.566 101.964 100.868C102.26 101.169 102.469 101.551 102.591 102.016C102.713 102.48 102.719 102.919 102.61 103.332C102.506 103.738 102.303 104.086 102 104.376C101.698 104.666 101.323 104.87 100.877 104.987C100.546 105.073 100.224 105.09 99.9122 105.035C99.6059 104.979 99.3251 104.854 99.0697 104.66L99.6951 107.046L98.8594 107.265L97.2067 100.962L98.0076 100.752L98.1993 101.483C98.3181 101.179 98.5029 100.926 98.7538 100.724C99.0032 100.516 99.2991 100.367 99.6415 100.277ZM100.615 104.274C100.911 104.196 101.158 104.06 101.355 103.866C101.556 103.664 101.692 103.424 101.761 103.145C101.835 102.859 101.83 102.556 101.747 102.237C101.663 101.918 101.519 101.655 101.316 101.447C101.117 101.233 100.881 101.09 100.608 101.019C100.341 100.946 100.06 100.949 99.7637 101.026C99.4735 101.103 99.2277 101.241 99.0262 101.443C98.8291 101.638 98.6928 101.875 98.6174 102.155C98.5479 102.434 98.5549 102.733 98.6386 103.052C98.7223 103.371 98.8637 103.638 99.0626 103.853C99.26 104.062 99.4959 104.204 99.7704 104.281C100.043 104.352 100.325 104.35 100.615 104.274ZM106.4 103.538C105.942 103.659 105.503 103.665 105.084 103.558C104.665 103.451 104.305 103.247 104.003 102.948C103.705 102.642 103.497 102.262 103.379 101.809C103.26 101.356 103.256 100.926 103.366 100.519C103.481 100.105 103.695 99.7507 104.009 99.4575C104.321 99.1584 104.707 98.9488 105.165 98.8286C105.624 98.7084 106.059 98.7026 106.472 98.8114C106.89 98.9129 107.247 99.1169 107.545 99.4235C107.847 99.7227 108.057 100.099 108.176 100.551C108.294 101.004 108.296 101.438 108.182 101.852C108.071 102.26 107.86 102.613 107.548 102.912C107.241 103.209 106.859 103.418 106.4 103.538ZM106.208 102.807C106.504 102.729 106.751 102.593 106.948 102.399C107.149 102.197 107.285 101.957 107.355 101.678C107.423 101.394 107.415 101.092 107.331 100.773C107.247 100.454 107.107 100.19 106.909 99.9809C106.71 99.7663 106.475 99.6235 106.202 99.5524C105.934 99.4798 105.653 99.4823 105.357 99.5599C105.061 99.6375 104.811 99.7742 104.608 99.9701C104.411 100.164 104.276 100.405 104.202 100.691C104.132 100.97 104.139 101.269 104.223 101.588C104.307 101.907 104.448 102.174 104.647 102.388C104.85 102.596 105.086 102.738 105.355 102.817C105.628 102.888 105.912 102.885 106.208 102.807ZM108.777 97.9279L109.613 97.7088L110.127 99.6676L112.756 98.9782L112.242 97.0194L113.078 96.8002L114.288 101.414L113.452 101.633L112.945 99.7007L110.316 100.39L110.823 102.323L109.987 102.542L108.777 97.9279ZM114.703 96.3741L115.539 96.155L116.42 99.5154L118.368 95.4131L119.126 95.2145L120.335 99.8285L119.5 100.048L118.619 96.6872L116.679 100.787L115.913 100.988L114.703 96.3741ZM123.183 94.1041C123.629 93.9869 124.056 93.9806 124.462 94.0851C124.867 94.1896 125.215 94.393 125.506 94.6953C125.801 94.996 126.01 95.3786 126.132 95.8429C126.254 96.3072 126.26 96.7459 126.152 97.159C126.047 97.5648 125.844 97.9127 125.541 98.2029C125.239 98.4931 124.864 98.6967 124.418 98.8139C124.087 98.9006 123.765 98.9167 123.453 98.8621C123.147 98.8059 122.866 98.6811 122.611 98.4875L123.236 100.873L122.4 101.092L120.748 94.7891L121.549 94.5791L121.74 95.3104C121.859 95.0063 122.044 94.7532 122.295 94.5509C122.544 94.3428 122.84 94.1939 123.183 94.1041ZM124.156 98.1009C124.452 98.0233 124.699 97.8873 124.896 97.6929C125.097 97.4912 125.233 97.251 125.302 96.9723C125.376 96.6862 125.371 96.3835 125.288 96.0643C125.204 95.7451 125.06 95.4819 124.857 95.2746C124.658 95.0601 124.422 94.9173 124.149 94.8462C123.882 94.7736 123.601 94.7761 123.305 94.8537C123.015 94.9298 122.769 95.0686 122.567 95.2703C122.37 95.4647 122.234 95.702 122.158 95.9823C122.089 96.2611 122.096 96.56 122.18 96.8793C122.263 97.1985 122.405 97.4654 122.604 97.6799C122.801 97.8887 123.037 98.0315 123.311 98.1084C123.584 98.1795 123.866 98.177 124.156 98.1009ZM129.941 97.3655C129.483 97.4858 129.044 97.4923 128.625 97.385C128.206 97.2777 127.846 97.0745 127.544 96.7752C127.247 96.4687 127.038 96.089 126.92 95.6363C126.801 95.1836 126.797 94.7537 126.907 94.3464C127.022 93.9317 127.236 93.5778 127.55 93.2846C127.862 92.9856 128.248 92.776 128.706 92.6558C129.165 92.5355 129.6 92.5298 130.014 92.6386C130.431 92.74 130.788 92.9441 131.086 93.2506C131.388 93.5499 131.598 93.9258 131.717 94.3785C131.835 94.8312 131.837 95.2649 131.723 95.6795C131.612 96.0868 131.401 96.44 131.089 96.739C130.782 97.0365 130.4 97.2453 129.941 97.3655ZM129.749 96.6343C130.045 96.5567 130.292 96.4207 130.489 96.2263C130.691 96.0246 130.826 95.7844 130.896 95.5056C130.964 95.2211 130.956 94.9192 130.872 94.6C130.788 94.2808 130.648 94.0168 130.45 93.808C130.252 93.5935 130.016 93.4506 129.743 93.3795C129.475 93.3069 129.194 93.3094 128.898 93.387C128.602 93.4647 128.352 93.6014 128.149 93.7973C127.952 93.9916 127.817 94.2319 127.743 94.518C127.673 94.7967 127.68 95.0957 127.764 95.4149C127.848 95.7341 127.989 96.001 128.188 96.2156C128.391 96.4228 128.627 96.5656 128.896 96.644C129.169 96.7151 129.453 96.7119 129.749 96.6343ZM136.043 93.151C136.681 93.1451 137.078 93.4411 137.234 94.0389C137.341 94.4451 137.269 94.7989 137.02 95.1001C136.776 95.3997 136.352 95.6287 135.748 95.787L133.528 96.3691L132.318 91.7551L134.46 91.1935C135.006 91.0505 135.46 91.0431 135.822 91.1714C136.183 91.2938 136.413 91.5437 136.512 91.9209C136.576 92.1647 136.564 92.394 136.478 92.609C136.396 92.8166 136.251 92.9972 136.043 93.151ZM133.657 93.5254L134.911 93.1967C135.23 93.113 135.456 92.9918 135.588 92.8331C135.726 92.6729 135.766 92.4825 135.708 92.262C135.592 91.8209 135.209 91.6856 134.559 91.856L133.306 92.1847L133.657 93.5254ZM135.518 95.1588C135.867 95.0674 136.113 94.9438 136.259 94.7879C136.404 94.632 136.446 94.4379 136.385 94.2058C136.323 93.9678 136.195 93.8121 136.002 93.7386C135.815 93.6637 135.55 93.6711 135.208 93.7609L133.815 94.1261L134.178 95.5103L135.518 95.1588ZM139.3 89.8779C139.938 89.7105 140.467 89.7394 140.886 89.9645C141.31 90.1881 141.604 90.6104 141.767 91.2314L142.497 94.0173L141.705 94.225L141.545 93.6156C141.462 93.8669 141.306 94.0848 141.075 94.2693C140.848 94.4466 140.558 94.5816 140.204 94.6744C139.688 94.8099 139.24 94.7939 138.861 94.6265C138.488 94.4576 138.248 94.17 138.142 93.7638C138.035 93.3575 138.098 92.9937 138.33 92.6723C138.561 92.3451 138.998 92.0971 139.642 91.9282L140.965 91.5812L140.922 91.4158C140.828 91.0559 140.651 90.8076 140.392 90.6709C140.133 90.5342 139.8 90.5191 139.394 90.6256C139.121 90.6971 138.866 90.8136 138.629 90.9749C138.391 91.1304 138.202 91.3072 138.061 91.5053L137.549 90.9698C137.736 90.7159 137.983 90.4962 138.288 90.3108C138.591 90.1196 138.929 89.9753 139.3 89.8779ZM140.174 93.9937C140.494 93.91 140.751 93.768 140.947 93.5679C141.141 93.3619 141.256 93.1146 141.292 92.8261L141.123 92.1819L139.835 92.5197C139.126 92.7054 138.835 93.0362 138.96 93.5121C139.02 93.7442 139.158 93.9035 139.373 93.9898C139.588 94.0761 139.855 94.0774 140.174 93.9937ZM142.792 89.0086L143.628 88.7895L144.142 90.7483L146.771 90.0589L146.257 88.1001L147.093 87.8809L148.303 92.495L147.467 92.7141L146.96 90.7814L144.331 91.4708L144.838 93.4035L144.002 93.6226L142.792 89.0086ZM148.718 87.4548L149.554 87.2357L150.435 90.5961L152.383 86.4938L153.141 86.2952L154.35 90.9092L153.515 91.1283L152.634 87.768L150.694 91.868L149.928 92.0688L148.718 87.4548ZM159.545 87.1095C159.561 87.1733 159.578 87.259 159.593 87.3665L155.85 88.3481C156.009 88.7407 156.272 89.0222 156.639 89.1926C157.01 89.3557 157.423 89.3779 157.875 89.2592C158.427 89.1146 158.822 88.8125 159.061 88.3528L159.664 88.7716C159.519 89.0701 159.307 89.3243 159.027 89.5342C158.753 89.7425 158.424 89.8969 158.041 89.9973C157.553 90.1252 157.095 90.1399 156.666 90.0415C156.236 89.9373 155.869 89.7326 155.565 89.4276C155.268 89.121 155.06 88.7414 154.941 88.2887C154.824 87.8418 154.817 87.4126 154.92 87.001C155.029 86.5879 155.231 86.237 155.528 85.9484C155.829 85.6524 156.199 85.4466 156.641 85.3309C157.082 85.2153 157.5 85.2141 157.896 85.3275C158.296 85.4335 158.639 85.6413 158.924 85.9509C159.216 86.259 159.423 86.6452 159.545 87.1095ZM156.825 86.0361C156.425 86.1411 156.12 86.3513 155.911 86.6665C155.708 86.9803 155.635 87.3406 155.692 87.7474L158.652 86.9713C158.504 86.5946 158.261 86.3202 157.925 86.1479C157.592 85.9684 157.226 85.9311 156.825 86.0361Z" fill="white"/>
<path d="M21.0258 205.952L27.7789 218.216L25.5014 219.47L22.6072 214.214L16.2651 217.707L19.1593 222.962L16.8818 224.217L10.1287 211.953L12.4062 210.699L15.1943 215.762L21.5363 212.27L18.7483 207.206L21.0258 205.952ZM35.2109 214.283C34.2648 214.804 33.2997 215.069 32.3154 215.079C31.3311 215.088 30.4235 214.849 29.5926 214.363C28.767 213.859 28.1001 213.145 27.592 212.223C27.0839 211.3 26.8407 210.361 26.8624 209.405C26.8958 208.443 27.1796 207.549 27.7136 206.722C28.2477 205.895 28.9878 205.221 29.9338 204.7C30.8916 204.173 31.8626 203.904 32.8468 203.895C33.8311 203.886 34.7329 204.128 35.5521 204.62C36.383 205.106 37.0525 205.811 37.5606 206.733C38.0686 207.656 38.3092 208.604 38.2823 209.578C38.2605 210.534 37.9826 211.425 37.4486 212.252C36.9145 213.079 36.1686 213.756 35.2109 214.283ZM34.1786 212.409C34.9845 211.965 35.5023 211.33 35.7321 210.503C35.9618 209.676 35.8355 208.825 35.3531 207.949C34.8707 207.073 34.2189 206.511 33.3974 206.263C32.576 206.015 31.7623 206.113 30.9564 206.557C30.1505 207.001 29.6327 207.636 29.403 208.463C29.1849 209.283 29.3171 210.131 29.7995 211.007C30.2818 211.883 30.9279 212.448 31.7376 212.703C32.5591 212.95 33.3727 212.852 34.1786 212.409ZM51.4975 205.155L48.0823 198.953L47.8037 205.91L46.8577 206.431L40.8722 202.901L44.297 209.12L42.2998 210.22L37.1481 200.864L39.4432 199.601L45.994 203.619L46.2582 195.848L48.308 194.719L53.4772 204.065L51.4975 205.155ZM62.6274 192.999C62.711 193.15 62.8183 193.373 62.9493 193.666L55.6086 197.708C56.1166 198.327 56.7517 198.692 57.5141 198.805C58.2817 198.9 59.0685 198.726 59.8743 198.282C60.9022 197.716 61.5624 196.911 61.8551 195.867L63.7718 196.57C63.6279 197.303 63.3055 197.975 62.8046 198.586C62.3037 199.197 61.6503 199.724 60.8444 200.168C59.8166 200.734 58.7989 201.028 57.7912 201.05C56.7836 201.072 55.8643 200.84 55.0334 200.354C54.2078 199.85 53.5409 199.136 53.0328 198.213C52.5312 197.302 52.2853 196.372 52.2954 195.423C52.3107 194.456 52.5737 193.565 53.0844 192.751C53.5951 191.937 54.3118 191.276 55.2345 190.768C56.1455 190.266 57.0698 190.024 58.0073 190.04C58.9501 190.039 59.8227 190.296 60.625 190.813C61.4325 191.313 62.1 192.041 62.6274 192.999ZM56.1992 192.52C55.4984 192.906 55.0185 193.444 54.7595 194.135C54.5058 194.807 54.5161 195.517 54.7904 196.264L60.0988 193.341C59.6323 192.715 59.0439 192.323 58.3335 192.167C57.6231 192.01 56.9117 192.128 56.1992 192.52ZM67.5457 183.989C68.4567 183.487 69.3778 183.239 70.3089 183.243C71.2517 183.242 72.1269 183.49 72.9344 183.989C73.742 184.489 74.4062 185.211 74.9272 186.157C75.4481 187.103 75.7068 188.057 75.7032 189.018C75.6932 189.967 75.4354 190.839 74.93 191.635C74.4362 192.425 73.7338 193.07 72.8228 193.572C71.5614 194.266 70.3312 194.396 69.1323 193.96L71.631 198.498L69.441 199.704L62.4178 186.949L64.5027 185.801L65.178 187.028C65.2956 186.385 65.5562 185.807 65.9595 185.296C66.3746 184.778 66.9033 184.342 67.5457 183.989ZM71.5452 191.832C72.3511 191.389 72.8631 190.757 73.0812 189.936C73.3109 189.11 73.1846 188.258 72.7022 187.382C72.2198 186.506 71.568 185.944 70.7465 185.697C69.9368 185.442 69.1289 185.537 68.323 185.981C67.7975 186.27 67.392 186.653 67.1066 187.13C66.8147 187.595 66.6684 188.117 66.6675 188.696C66.6666 189.275 66.827 189.857 67.1486 190.441C67.4701 191.024 67.8757 191.471 68.3654 191.78C68.8551 192.088 69.3777 192.25 69.9332 192.263C70.4823 192.265 71.0196 192.122 71.5452 191.832ZM77.8396 178.32C79.2178 177.561 80.4523 177.315 81.543 177.582C82.639 177.831 83.5536 178.621 84.2868 179.953L87.3063 185.436L85.2391 186.575L84.612 185.436C84.5685 185.993 84.3567 186.52 83.9767 187.019C83.6019 187.499 83.0641 187.932 82.3633 188.318C81.6625 188.704 80.985 188.925 80.3308 188.981C79.6702 189.025 79.0781 188.917 78.5546 188.658C78.0363 188.38 77.6292 187.972 77.3334 187.435C76.8703 186.594 76.81 185.752 77.1525 184.909C77.5002 184.048 78.3456 183.247 79.6888 182.508L82.1065 181.176L82.0293 181.036C81.6691 180.382 81.194 179.989 80.604 179.858C80.0256 179.719 79.351 179.863 78.5801 180.287C78.0545 180.576 77.5798 180.944 77.156 181.391C76.7438 181.831 76.4429 182.293 76.2533 182.778L74.5169 181.657C74.8017 181.013 75.2339 180.402 75.8137 179.824C76.3934 179.246 77.0688 178.745 77.8396 178.32ZM81.9409 186.473C82.4899 186.171 82.907 185.781 83.1924 185.305C83.4831 184.81 83.5874 184.28 83.5053 183.717L82.9072 182.63L80.6472 183.875C79.3858 184.57 78.9834 185.331 79.44 186.161C79.6587 186.558 79.99 186.786 80.434 186.846C80.878 186.906 81.3803 186.782 81.9409 186.473Z" fill="white"/>
<path d="M32.9308 228.294L34.2763 227.553L37.2554 232.963L38.8314 225.044L40.0507 224.373L44.1411 231.801L42.7957 232.542L39.8166 227.132L38.2546 235.043L37.0213 235.722L32.9308 228.294ZM57.8012 222.745L59.4296 225.702L58.1542 226.405L57.1741 224.625L50.5167 228.291L46.4262 220.862L47.7717 220.121L51.2139 226.372L55.2784 224.134L51.8363 217.883L53.1817 217.142L56.6239 223.393L57.8012 222.745ZM64.8848 215.593C64.9414 215.696 65.0067 215.836 65.0806 216.015L59.0539 219.334C59.4982 219.941 60.0739 220.312 60.781 220.447C61.4923 220.566 62.2124 220.425 62.9412 220.024C63.8288 219.535 64.379 218.843 64.5916 217.946L65.8129 218.406C65.6927 218.984 65.4368 219.514 65.0455 219.998C64.6634 220.476 64.1641 220.885 63.5474 221.225C62.7625 221.657 61.979 221.881 61.1967 221.898C60.4093 221.905 59.6879 221.712 59.0325 221.318C58.3865 220.919 57.8628 220.355 57.4615 219.626C57.0653 218.907 56.8665 218.17 56.8652 217.415C56.8732 216.656 57.0701 215.963 57.4558 215.337C57.8457 214.696 58.3957 214.18 59.1058 213.789C59.8159 213.398 60.5366 213.214 61.268 213.237C62.0036 213.246 62.685 213.456 63.3124 213.865C63.949 214.27 64.4732 214.846 64.8848 215.593ZM59.7309 214.924C59.0862 215.279 58.6523 215.774 58.4293 216.408C58.2156 217.037 58.2463 217.69 58.5214 218.366L63.2867 215.742C62.8672 215.158 62.3298 214.79 61.6746 214.639C61.0235 214.474 60.3756 214.569 59.7309 214.924ZM64.9038 210.687L66.2493 209.947L67.9858 213.1L72.2185 210.769L70.482 207.616L71.8275 206.875L75.9179 214.303L74.5724 215.044L72.859 211.933L68.6264 214.263L70.3397 217.375L68.9942 218.116L64.9038 210.687ZM79.1826 206.112C80.1221 205.607 80.9552 205.429 81.682 205.576C82.4087 205.724 82.983 206.181 83.405 206.947C83.8474 207.751 83.9186 208.521 83.6185 209.259C83.3226 209.982 82.6722 210.614 81.6673 211.155L78.5341 212.862L74.4437 205.434L75.7891 204.693L77.1706 207.202L79.1826 206.112ZM81.7878 201.39L83.1333 200.649L87.2237 208.077L85.8782 208.818L81.7878 201.39ZM81.0058 210.186C81.6182 209.861 82.0092 209.488 82.1786 209.066C82.3574 208.638 82.3104 208.177 82.0377 207.682C81.7702 207.196 81.4205 206.926 80.9887 206.871C80.5568 206.817 80.03 206.955 79.4082 207.285L77.7109 208.183L79.3162 211.098L81.0058 210.186Z" fill="white"/>
<path d="M212.35 53.7849C213.242 54.0301 213.919 54.4474 214.383 55.0368C214.846 55.6128 215.075 56.3342 215.07 57.2008C215.063 58.4275 214.604 59.3781 213.693 60.0529C212.783 60.7276 211.467 61.0599 209.747 61.0499L203.108 61.0112L203.189 47.0114L209.449 47.0479C211.022 47.0571 212.247 47.3775 213.123 48.0093C214 48.6411 214.435 49.5303 214.428 50.677C214.424 51.4103 214.24 52.0426 213.877 52.5738C213.527 53.1051 213.018 53.5088 212.35 53.7849ZM205.714 53.0063L209.194 53.0265C210.034 53.0314 210.675 52.8685 211.117 52.5377C211.559 52.207 211.782 51.7149 211.786 51.0616C211.789 50.4083 211.572 49.9137 211.134 49.5778C210.696 49.2285 210.057 49.0515 209.217 49.0466L205.737 49.0263L205.714 53.0063ZM209.679 59.0495C211.519 59.0602 212.443 58.3722 212.451 56.9856C212.459 55.6256 211.543 54.9402 209.703 54.9295L205.703 54.9062L205.679 59.0262L209.679 59.0495ZM217.791 50.4166L220.291 50.4311L220.25 57.471L226.191 50.4655L228.471 50.4788L228.409 61.1586L225.909 61.144L225.95 54.1041L220.029 61.1098L217.729 61.0964L217.791 50.4166ZM243.184 59.1246L243.158 63.6245L240.818 63.6109L240.832 61.2309L232.592 61.1829L232.578 63.5629L230.258 63.5494L230.284 59.0495L230.784 59.0524C231.464 59.0297 231.927 58.599 232.172 57.7604C232.43 56.9086 232.604 55.7096 232.693 54.1634L232.854 50.5043L241.654 50.5556L241.604 59.1154L243.184 59.1246ZM234.972 54.3567C234.911 55.583 234.805 56.5824 234.654 57.3549C234.503 58.1274 234.233 58.6991 233.844 59.0702L239.104 59.1008L239.142 52.661L235.042 52.6371L234.972 54.3567ZM255.435 56.0359C255.434 56.2092 255.419 56.4558 255.391 56.7757L247.011 56.7269C247.153 57.5144 247.529 58.1432 248.14 58.6135C248.764 59.0704 249.536 59.3016 250.456 59.307C251.629 59.3138 252.598 58.9328 253.363 58.1639L254.694 59.7117C254.21 60.2822 253.601 60.712 252.866 61.001C252.131 61.2901 251.304 61.4319 250.384 61.4266C249.21 61.4198 248.178 61.1804 247.288 60.7085C246.397 60.2367 245.708 59.586 245.219 58.7565C244.744 57.9137 244.51 56.9656 244.516 55.9123C244.522 54.8723 244.76 53.9404 245.232 53.1164C245.717 52.2792 246.381 51.6298 247.223 51.168C248.066 50.7062 249.014 50.4784 250.067 50.4846C251.107 50.4906 252.033 50.7293 252.843 51.2007C253.667 51.6589 254.303 52.3093 254.752 53.1519C255.214 53.9813 255.441 54.9426 255.435 56.0359ZM250.056 52.4845C249.256 52.4799 248.574 52.7159 248.012 53.1926C247.462 53.6561 247.125 54.2808 247.001 55.0668L253.061 55.1021C252.958 54.3281 252.635 53.6996 252.091 53.2164C251.548 52.7332 250.869 52.4893 250.056 52.4845ZM262.898 61.4995C261.818 61.4932 260.846 61.2542 259.982 60.7825C259.118 60.3108 258.442 59.6602 257.953 58.8306C257.478 57.9878 257.244 57.0398 257.25 55.9865C257.256 54.9332 257.501 53.9946 257.986 53.1707C258.484 52.3469 259.168 51.7043 260.037 51.2426C260.907 50.781 261.882 50.5534 262.962 50.5597C264.055 50.566 265.033 50.8051 265.897 51.2768C266.761 51.7485 267.431 52.3991 267.906 53.2285C268.395 54.058 268.636 54.9995 268.63 56.0528C268.623 57.1061 268.371 58.0513 267.873 58.8884C267.388 59.7123 266.711 60.355 265.842 60.8166C264.972 61.2782 263.991 61.5058 262.898 61.4995ZM262.91 59.3595C263.83 59.3649 264.592 59.0626 265.196 58.4528C265.799 57.843 266.104 57.0381 266.11 56.0381C266.115 55.0381 265.82 54.2297 265.224 53.6129C264.627 52.9961 263.869 52.685 262.949 52.6796C262.029 52.6743 261.267 52.9765 260.664 53.5863C260.074 54.1962 259.776 55.0012 259.77 56.0012C259.764 57.0011 260.053 57.8095 260.636 58.4262C261.232 59.0431 261.99 59.3542 262.91 59.3595Z" fill="white"/>
<path d="M199.973 75.6874L200.933 75.693L200.92 77.9429L203.94 77.9605L203.953 75.7105L204.913 75.7161L204.882 81.016L203.922 81.0105L203.935 78.7905L200.915 78.7729L200.902 80.9929L199.942 80.9873L199.973 75.6874ZM208.67 75.688C209.403 75.6923 209.962 75.8755 210.347 76.2378C210.738 76.6001 210.931 77.1379 210.927 77.8512L210.909 81.0511L209.999 81.0458L210.003 80.3459C209.841 80.5916 209.61 80.7802 209.309 80.9118C209.015 81.0368 208.665 81.0981 208.258 81.0957C207.665 81.0923 207.189 80.9461 206.831 80.6574C206.479 80.3687 206.305 79.991 206.307 79.5243C206.31 79.0577 206.482 78.6853 206.824 78.4073C207.165 78.1226 207.706 77.9824 208.446 77.9868L209.966 77.9956L209.967 77.8056C209.97 77.3923 209.852 77.0749 209.613 76.8535C209.374 76.6321 209.022 76.5201 208.555 76.5174C208.242 76.5155 207.935 76.5671 207.634 76.672C207.333 76.7703 207.079 76.9054 206.872 77.0776L206.476 76.3553C206.75 76.1368 207.078 75.9721 207.459 75.861C207.839 75.7432 208.243 75.6855 208.67 75.688ZM208.423 80.3567C208.789 80.3588 209.106 80.2806 209.374 80.1222C209.642 79.9571 209.836 79.7249 209.958 79.4256L209.962 78.6856L208.482 78.677C207.669 78.6722 207.261 78.9432 207.258 79.4899C207.256 79.7565 207.358 79.9671 207.564 80.1217C207.77 80.2762 208.056 80.3545 208.423 80.3567ZM215.367 75.957C215.86 75.9599 216.3 76.0725 216.685 76.2947C217.07 76.517 217.369 76.8254 217.58 77.2199C217.797 77.6079 217.905 78.0518 217.902 78.5518C217.899 79.0652 217.78 79.5211 217.544 79.9198C217.315 80.3118 216.99 80.6166 216.569 80.8341C216.154 81.0517 215.68 81.1589 215.147 81.1558C214.247 81.1506 213.552 80.8399 213.062 80.2237C212.579 79.6009 212.341 78.7295 212.347 77.6095C212.354 76.5228 212.582 75.6741 213.032 75.0634C213.482 74.446 214.168 74.04 215.089 73.8454L217.512 73.3195L217.647 74.2003L215.414 74.6673C214.72 74.8166 214.202 75.0736 213.86 75.4382C213.518 75.8029 213.321 76.3285 213.271 77.0148C213.499 76.6762 213.794 76.4145 214.155 76.23C214.516 76.0454 214.92 75.9544 215.367 75.957ZM215.171 80.356C215.511 80.3579 215.812 80.283 216.073 80.1312C216.34 79.9794 216.548 79.7706 216.696 79.5048C216.845 79.2324 216.92 78.9228 216.922 78.5761C216.925 78.0495 216.767 77.6252 216.449 77.3034C216.131 76.9815 215.712 76.8191 215.192 76.816C214.672 76.813 214.248 76.9705 213.919 77.2886C213.597 77.6068 213.435 78.0291 213.432 78.5558C213.43 78.9025 213.501 79.2129 213.646 79.4871C213.798 79.7546 214.007 79.9658 214.273 80.1207C214.538 80.2756 214.838 80.354 215.171 80.356ZM223.8 75.8261L223.769 81.1261L222.809 81.1205L222.835 76.6605L220.555 76.6473L220.488 77.8269C220.451 78.54 220.384 79.1363 220.288 79.6158C220.192 80.0885 220.036 80.4676 219.821 80.7531C219.606 81.0385 219.309 81.1801 218.929 81.1779C218.755 81.1769 218.559 81.1457 218.339 81.0844L218.404 80.2748C218.49 80.2953 218.57 80.3058 218.644 80.3062C218.91 80.3077 219.111 80.1922 219.246 79.9597C219.38 79.7271 219.469 79.451 219.511 79.1312C219.552 78.8115 219.592 78.355 219.629 77.7619L219.73 75.8024L223.8 75.8261ZM230.346 75.8143C230.86 75.8173 231.319 75.9366 231.724 76.1723C232.13 76.4013 232.448 76.7232 232.679 77.1379C232.91 77.5459 233.024 78.0099 233.021 78.5299C233.017 79.0499 232.898 79.5159 232.662 79.9278C232.427 80.3331 232.105 80.6513 231.697 80.8822C231.289 81.1132 230.828 81.2272 230.315 81.2242C229.848 81.2215 229.425 81.1223 229.046 80.9268C228.668 80.7313 228.356 80.4594 228.111 80.1113C227.873 79.7566 227.726 79.3557 227.668 78.9087L226.598 78.9025L226.585 81.1425L225.625 81.1369L225.656 75.837L226.616 75.8426L226.603 78.0125L227.683 78.0188C227.753 77.5792 227.908 77.1934 228.15 76.8615C228.399 76.5229 228.71 76.2648 229.085 76.0869C229.466 75.9025 229.886 75.8116 230.346 75.8143ZM230.32 80.3842C230.646 80.3861 230.94 80.3111 231.201 80.1593C231.469 80.0076 231.68 79.7921 231.835 79.513C231.99 79.2272 232.068 78.8977 232.071 78.5244C232.073 78.1577 231.998 77.8339 231.846 77.553C231.695 77.2655 231.486 77.0443 231.22 76.8894C230.961 76.7345 230.668 76.6562 230.341 76.6543C230.015 76.6524 229.718 76.7273 229.45 76.8791C229.183 77.0309 228.971 77.2496 228.816 77.5354C228.668 77.8145 228.593 78.1374 228.591 78.5041C228.588 78.8774 228.66 79.2078 228.805 79.4954C228.957 79.7763 229.165 79.9941 229.431 80.149C229.697 80.3039 229.993 80.3823 230.32 80.3842ZM239.741 80.3791L239.729 82.449L238.829 82.4438L238.836 81.2138L234.406 81.188L234.399 82.418L233.489 82.4127L233.501 80.3427L233.781 80.3444C234.121 80.3263 234.356 80.0877 234.485 79.6284C234.614 79.1692 234.705 78.5197 234.756 77.68L234.847 75.8905L238.957 75.9144L238.931 80.3744L239.741 80.3791ZM235.636 77.7551C235.605 78.4216 235.545 78.9746 235.456 79.4141C235.374 79.847 235.222 80.1594 235.001 80.3515L237.971 80.3688L237.992 76.7488L235.692 76.7354L235.636 77.7551ZM245.791 78.6343C245.791 78.7076 245.784 78.8042 245.77 78.9242L241.47 78.8991C241.527 79.3661 241.728 79.744 242.073 80.0327C242.425 80.3147 242.861 80.4573 243.381 80.4603C244.014 80.464 244.525 80.2536 244.914 79.8292L245.441 80.4523C245.199 80.7309 244.898 80.9425 244.537 81.087C244.183 81.2316 243.786 81.3027 243.346 81.3001C242.786 81.2968 242.29 81.1806 241.858 80.9514C241.426 80.7156 241.091 80.3903 240.854 79.9756C240.623 79.5609 240.509 79.0935 240.512 78.5735C240.515 78.0602 240.631 77.5975 240.86 77.1855C241.096 76.7736 241.414 76.4554 241.815 76.2311C242.223 76.0001 242.681 75.8861 243.187 75.8891C243.694 75.892 244.143 76.0113 244.535 76.2469C244.934 76.4759 245.242 76.7977 245.46 77.2123C245.684 77.627 245.795 78.101 245.791 78.6343ZM243.183 76.6991C242.723 76.6964 242.335 76.8341 242.02 77.1123C241.712 77.3905 241.53 77.7561 241.474 78.2091L244.874 78.2289C244.823 77.782 244.642 77.4176 244.33 77.1358C244.025 76.8473 243.643 76.7017 243.183 76.6991ZM247.296 75.963L248.256 75.9686L248.243 78.2186L251.263 78.2362L251.276 75.9862L252.236 75.9918L252.205 81.2917L251.245 81.2861L251.258 79.0661L248.238 79.0485L248.225 81.2685L247.265 81.2629L247.296 75.963ZM254.103 76.0027L255.063 76.0082L255.04 79.8682L258.313 76.0272L259.183 76.0322L259.152 81.3322L258.192 81.3266L258.214 77.4666L254.952 81.3077L254.072 81.3026L254.103 76.0027ZM265.82 78.751C265.82 78.8243 265.813 78.9209 265.799 79.0408L261.499 79.0158C261.556 79.4828 261.757 79.8606 262.102 80.1493C262.454 80.4314 262.89 80.5739 263.41 80.5769C264.043 80.5806 264.554 80.3703 264.943 79.9459L265.47 80.5689C265.228 80.8475 264.927 81.0591 264.566 81.2037C264.212 81.3483 263.815 81.4193 263.375 81.4168C262.815 81.4135 262.319 81.2973 261.887 81.0681C261.455 80.8322 261.12 80.5069 260.883 80.0922C260.652 79.6775 260.538 79.2102 260.541 78.6902C260.544 78.1769 260.66 77.7142 260.889 77.3022C261.125 76.8902 261.443 76.5721 261.844 76.3478C262.252 76.1168 262.71 76.0028 263.216 76.0057C263.723 76.0087 264.172 76.128 264.564 76.3636C264.963 76.5926 265.271 76.9144 265.489 77.329C265.713 77.7436 265.824 78.2176 265.82 78.751ZM263.212 76.8157C262.752 76.813 262.364 76.9508 262.049 77.229C261.741 77.5072 261.559 77.8728 261.503 78.3258L264.903 78.3456C264.852 77.8986 264.671 77.5342 264.359 77.2524C264.054 76.964 263.672 76.8184 263.212 76.8157Z" fill="white"/>
</svg>
