<?xml version="1.0" encoding="UTF-8" standalone="no"?>
<svg
   viewBox="0 0 417.00001 396.00009"
   fill="none"
   version="1.1"
   id="svg167"
   sodipodi:docname="cat.svg"
   inkscape:version="1.1 (c68e22c387, 2021-05-23)"
   xmlns:inkscape="http://www.inkscape.org/namespaces/inkscape"
   xmlns:sodipodi="http://sodipodi.sourceforge.net/DTD/sodipodi-0.dtd"
   xmlns="http://www.w3.org/2000/svg"
   xmlns:svg="http://www.w3.org/2000/svg">
  <defs
     id="defs171" />

  <path
     d="m 1054.65,675.46798 c -21.35,-7.893 -48.02,7.165 -52.33,29.507 -5.41901,28.264 25.56,45.769 52.79,29.909 5.76,-3.384 6.78,-4.343 11.95,-11.727 5.01,-7.143 5.73,-8.673 6.63,-14.139 1.06,-6.678 -0.07,-13.922 -3.31,-20.14 -2.33,-4.507 -10.48,-11.404 -15.73,-13.41 z m 2.59,22.506 c 2.05,5.744 1.73,9.707 -1.25,14.797 -11.12,18.887 -40.71,15.752 -38.57,-4.161 1.97,-18.835 33.61,-27.304 39.82,-10.636 z"
     fill="#ffffff"
     id="path121" />
  <path
     d="m 964.29499,614.23998 c -6.019,-1.584 -16.081,0.103 -22.434,3.669 -4.827,2.72 -6.018,3.92 -11.02,11.064 -5.17,7.384 -5.722,8.672 -6.932,15.241 -2.659,14.645 2.163,28.787 12.669,36.981 7.09,5.562 13.21,7.336 21.566,6.249 19.832,-2.621 33.389,-23.151 29.791,-45.049 -1.666,-10.138 -5.513,-16.659 -13.343,-22.5 -4.043,-3.071 -7.539,-4.921 -10.297,-5.655 z m 6.13,23.789 c 3.991,7.819 3.55,16.96 -1.162,25.024 -11.346,19.208 -34.505,6.221 -29.96,-16.792 1.865,-9.34 9.75,-17.096 17.589,-17.109 5.215,0.062 10.895,3.8 13.533,8.877 z"
     fill="#ffffff"
     id="path123" />
  <path
     d="m 1060.83,760.42298 c -12.18,-4.464 -23.71,-3.685 -34.75,2.576 -6.82,3.722 -7.59,4.495 -12.31,11.237 -4.22,6.02 -5.25,8.166 -5.9,12.259 -1.07,6.543 0,13.517 3.11,19.76 2.26,4.452 3.42,5.626 10.09,10.293 7.05,4.942 7.87,5.275 15.41,6.364 30.06,4.302 53.94,-23.47 41.05,-47.449 -3.72,-7.033 -9.83,-12.502 -16.7,-15.04 z m 3.81,23.599 c 2.4,7.422 0.01,14.003 -6.9,19.208 -10.49,7.968 -27.85,5.385 -33.3,-5.015 -5.41,-10.128 2.88,-22.143 17.12,-24.615 9.71,-1.691 20.81,3.326 23.08,10.422 z"
     fill="#ffffff"
     id="path125" />
  <path
     d="m 953.99699,717.07298 c -12.317,-4.438 -28.637,-2.827 -40.67,4.178 -6.791,3.857 -7.06,3.908 -14.673,2.764 -5.561,-0.903 -10.327,-0.772 -16.576,0.475 -37.973,7.501 -54.037,52.473 -29.289,81.883 8.462,10.111 23.882,16.961 37.239,16.745 l 6.078,-0.17 1.92,5.77 c 4.208,12.515 15.325,24.008 27.944,29.017 21.362,8.378 45.833,0.633 59.377,-18.711 10.51,-15.009 11.632,-36.472 2.832,-52.442 -3.779,-6.953 -3.801,-7.088 -2.421,-14.734 2.636,-13.944 -1.913,-30.645 -11.171,-40.956 -4.175,-4.717 -14.616,-11.669 -20.59,-13.819 z m 11.35,27.684 c 5.739,8.325 7.154,21.158 3.583,31.097 -2.039,5.75 -1.796,8.073 1.696,12.432 4.667,6.019 6.7,10.792 7.664,17.926 1.318,10.134 0.077,15.245 -6.049,23.994 -4.272,6.1 -5.822,7.646 -10.244,10.291 -7.342,4.309 -14.532,5.733 -22.706,4.555 -6.391,-0.886 -7.735,-1.469 -14.165,-5.971 -6.116,-4.283 -7.382,-5.647 -9.931,-10.183 -1.532,-2.987 -3.373,-8.702 -4.118,-12.812 -1.722,-10.057 -3.525,-11.32 -13.722,-9.608 -4.173,0.786 -10.251,0.956 -13.447,0.513 -5.056,-0.79 -6.771,-1.512 -12.887,-5.795 -5.96,-4.172 -7.538,-5.756 -9.987,-10.103 -4.115,-7.307 -5.371,-14.526 -4.023,-22.793 1.076,-6.543 1.627,-7.831 6.236,-14.413 6.204,-8.694 10.639,-11.689 20.477,-13.891 7.034,-1.534 12.215,-1.256 19.467,1.071 5.29,1.791 7.556,1.224 12.261,-2.658 8.063,-6.675 20.606,-9.734 30.213,-7.433 7.085,1.731 15.609,7.58 19.682,13.781 z"
     fill="#ffffff"
     id="path129" />
  <path
     fill-rule="evenodd"
     clip-rule="evenodd"
     d="m 208.69499,56.878983 c 37.354,3.849 68.574,-38.3607 105.729,-32.9169 40.218,5.8929 94.153,23.3979 101.768,63.3189 8.716,45.688997 -55.712,74.614997 -66.84,119.776997 -7.401,30.035 32.144,64.091 15.163,89.947 -17.341,26.403 -62.983,7.663 -90.012,24.016 -27.931,16.898 -34.782,60.099 -65.808,70.254 -31.58,10.335 -70.296,3.316 -96.477,-17.143 -25.930997,-20.263 -21.560197,-60.969 -39.107897,-88.807 -18.5372,-29.408 -55.7936,-45.102 -66.2074803,-78.267 -11.48903,-36.589 -8.09606,-77.323 6.1742803,-112.919997 15.2286,-37.987 36.3037,-85.6813999 76.5128,-93.33979987 C 133.44599,-7.5549169 164.28499,52.303983 208.69499,56.878983 Z"
     fill="#f9eaef"
     fill-opacity="0.2"
     id="path147" />
  <g
     opacity="0.2"
     id="g163"
     transform="translate(-7.2579614e-6,-71.000017)">
    <path
       d="m 201.412,200.432 c -4.351,1.018 -7.067,2.469 -9.998,5.401 -3.271,3.24 -5.401,6.974 -6.543,11.448 -0.586,2.346 -0.524,8.487 0.093,11.418 0.278,1.266 0.617,3.117 0.71,4.074 l 0.216,1.728 -1.481,0.216 c -8.61,1.203 -16.757,4.166 -23.238,8.486 -3.147,2.099 -7.745,6.326 -9.473,8.672 -0.772,1.049 -1.235,1.45 -1.482,1.234 -0.833,-0.71 -5.4,-2.222 -7.992,-2.716 -3.333,-0.586 -4.506,-0.432 -6.45,0.803 -1.635,1.049 -3.055,3.549 -3.672,6.449 -0.586,2.839 -0.185,11.665 0.771,16.911 0.71,3.889 2.778,12.591 3.488,14.628 0.246,0.648 -0.062,1.481 -1.759,4.783 l -2.006,4.012 -1.698,-0.216 c -2.252,-0.247 -7.838,-0.309 -8.486,-0.062 -0.771,0.308 -1.45,1.913 -1.234,2.901 0.37,1.697 1.049,1.944 5.431,2.191 2.222,0.123 4.104,0.277 4.166,0.37 0.093,0.062 0,0.525 -0.185,1.018 -0.556,1.389 -1.543,7.746 -1.543,9.752 0,1.79 -0.031,1.821 -0.988,2.16 -0.555,0.216 -2.221,0.957 -3.672,1.666 -2.654,1.358 -3.364,2.099 -3.364,3.549 0,0.803 1.605,2.438 2.407,2.438 0.371,0 1.79,-0.555 3.179,-1.234 2.716,-1.296 3.024,-1.265 3.055,0.308 0.031,0.432 0.556,2.284 1.173,4.166 l 1.142,3.364 -2.654,2.654 c -1.883,1.882 -2.901,3.179 -3.611,4.66 -3.765,7.807 -1.882,14.01 5.339,17.59 3.826,1.913 7.437,2.53 14.195,2.561 6.481,0 8.548,-0.432 13.362,-2.777 l 2.901,-1.389 3.58,0.926 c 9.227,2.376 16.417,3.24 27.063,3.24 10.647,0 17.837,-0.864 27.064,-3.24 l 3.58,-0.926 2.9,1.389 c 4.815,2.345 6.882,2.777 13.363,2.777 6.727,-0.031 10.214,-0.648 14.133,-2.531 7.252,-3.548 9.165,-9.782 5.401,-17.62 -0.71,-1.481 -1.729,-2.778 -3.642,-4.691 l -2.685,-2.685 0.618,-1.481 c 0.308,-0.833 0.925,-2.808 1.327,-4.413 0.401,-1.604 0.802,-2.962 0.864,-3.024 0.061,-0.093 1.234,0.432 2.623,1.111 1.357,0.71 2.777,1.265 3.147,1.265 0.803,0 2.438,-1.604 2.438,-2.438 0,-1.45 -0.71,-2.191 -3.364,-3.549 -1.45,-0.709 -3.116,-1.45 -3.641,-1.666 -0.987,-0.339 -1.018,-0.37 -1.018,-2.16 0,-2.006 -0.988,-8.363 -1.543,-9.752 -0.185,-0.493 -0.278,-0.956 -0.185,-1.018 0.061,-0.093 1.944,-0.247 4.166,-0.37 4.382,-0.247 5.061,-0.494 5.431,-2.191 0.216,-0.988 -0.463,-2.593 -1.235,-2.901 -0.648,-0.247 -6.233,-0.185 -8.486,0.062 l -1.697,0.216 -1.975,-3.981 -1.944,-3.981 1.111,-4.043 c 4.752,-17.404 5.03,-29.625 0.679,-33.976 -1.79,-1.79 -3.488,-2.222 -6.697,-1.728 -2.592,0.401 -5.832,1.389 -7.9,2.438 l -1.296,0.679 -1.08,-1.512 c -1.759,-2.376 -6.419,-6.635 -9.536,-8.672 -5.277,-3.518 -12.251,-6.419 -18.484,-7.653 l -2.87,-0.586 -0.34,-3.364 c -0.216,-1.851 -0.586,-4.536 -0.895,-5.987 -0.586,-2.9 -0.463,-4.629 0.432,-6.418 0.803,-1.605 2.531,-3.055 3.889,-3.333 1.913,-0.34 5.215,0.833 8.424,3.024 1.975,1.358 3.395,1.852 5.339,1.852 5.863,0 9.505,-6.018 6.912,-11.357 -0.648,-1.327 -1.327,-2.067 -2.9,-3.24 -2.623,-1.944 -7.561,-4.413 -10.523,-5.215 -2.994,-0.833 -8.147,-1.08 -10.647,-0.494 z m 10.307,5.925 c 2.685,0.895 6.943,3.24 8.456,4.66 1.018,1.018 1.111,2.438 0.185,3.61 -0.926,1.173 -2.5,1.111 -4.321,-0.216 -2.098,-1.481 -6.048,-3.24 -8.146,-3.641 -4.845,-0.895 -8.95,1.111 -11.388,5.555 -1.82,3.363 -2.067,5.77 -1.141,10.677 0.339,1.697 0.709,4.012 0.802,5.154 l 0.216,2.098 h -2.623 -2.623 l -0.185,-1.79 c -0.124,-0.956 -0.494,-3.302 -0.864,-5.153 -1.111,-6.018 -0.278,-10.647 2.715,-15.06 4.321,-6.326 11.171,-8.455 18.917,-5.894 z m -12.529,33.606 c 11.881,1.543 22.25,6.758 28.638,14.38 l 1.203,1.451 -2.252,1.327 c -1.204,0.71 -3.858,2.407 -5.864,3.734 l -3.641,2.438 -2.222,-0.895 c -7.777,-3.21 -15.677,-4.567 -24.904,-4.29 -7.529,0.216 -13.917,1.512 -20.398,4.105 l -2.684,1.049 -2.87,-1.944 c -1.605,-1.08 -4.259,-2.778 -5.894,-3.765 l -2.994,-1.79 0.895,-1.111 c 2.376,-2.993 6.11,-6.079 10.184,-8.486 9.042,-5.37 21.416,-7.684 32.803,-6.203 z m -56.658,15.893 c 1.42,0.339 3.426,0.987 4.475,1.481 2.963,1.358 9.659,5.277 14.566,8.548 2.715,1.821 4.69,2.932 5.184,2.932 0.432,0 1.821,-0.433 3.055,-0.957 7.993,-3.426 15.306,-4.783 24.04,-4.506 7.622,0.247 12.683,1.296 19.595,4.105 1.883,0.74 3.796,1.358 4.29,1.358 0.555,0 1.975,-0.772 4.135,-2.284 10.986,-7.561 21.293,-12.344 23.792,-11.017 1.574,0.864 2.191,7.406 1.297,14.226 -0.587,4.321 -2.068,11.202 -3.333,15.523 -1.636,5.585 -1.636,5.523 0.185,8.733 0.833,1.512 1.759,3.24 2.006,3.857 l 0.463,1.08 -3.58,1.049 c -4.104,1.173 -10.893,4.413 -12.56,5.956 -1.172,1.111 -1.358,1.944 -0.74,3.086 0.987,1.883 2.283,1.883 5.678,-0.061 4.227,-2.438 12.498,-5.432 13.115,-4.753 0.525,0.617 2.16,9.752 1.79,10.122 -0.062,0.062 -1.451,-0.092 -3.055,-0.339 -3.673,-0.525 -9.844,-0.895 -10.894,-0.618 -0.864,0.216 -1.759,1.574 -1.759,2.654 0,0.371 0.371,1.05 0.864,1.512 0.803,0.803 1.05,0.865 4.537,1.05 3.672,0.216 9.659,0.987 9.998,1.296 0.216,0.247 -0.494,3.61 -1.296,5.956 -0.71,2.191 -0.401,2.098 -3.765,1.172 -2.407,-0.679 -7.653,-0.709 -10.183,-0.031 -9.196,2.377 -16.479,10.986 -15.8,18.639 0.123,1.111 0.277,2.408 0.37,2.84 0.216,0.771 0.154,0.802 -3.456,1.604 -8.456,1.944 -13.764,2.5 -23.392,2.5 -9.628,0 -14.936,-0.556 -23.391,-2.5 -3.611,-0.802 -3.672,-0.833 -3.456,-1.604 0.092,-0.432 0.247,-1.729 0.37,-2.84 0.679,-7.745 -6.481,-16.17 -15.8,-18.639 -2.5,-0.678 -7.746,-0.648 -10.184,0.031 -3.271,0.895 -3.055,0.957 -3.61,-0.709 -0.679,-1.945 -1.481,-5.123 -1.481,-5.864 0,-0.524 0.339,-0.679 2.098,-0.956 3.086,-0.556 7.375,-0.988 9.566,-0.988 1.759,0 2.068,-0.092 2.87,-0.895 0.494,-0.494 0.895,-1.203 0.895,-1.574 0,-1.08 -0.895,-2.438 -1.759,-2.654 -1.049,-0.277 -7.221,0.093 -10.893,0.618 -1.605,0.247 -2.993,0.401 -3.055,0.339 -0.37,-0.37 1.265,-9.505 1.79,-10.122 0.617,-0.679 8.887,2.315 13.115,4.753 3.394,1.944 4.691,1.944 5.678,0.061 1.018,-1.882 -0.062,-3.147 -4.783,-5.554 -3.642,-1.883 -7.468,-3.364 -10.492,-4.105 l -1.605,-0.37 0.463,-1.111 c 0.247,-0.648 1.142,-2.345 1.975,-3.827 0.864,-1.512 1.543,-3.085 1.543,-3.548 0,-0.494 -0.556,-2.809 -1.265,-5.185 -1.389,-4.876 -2.839,-11.788 -3.395,-16.263 -0.494,-4.258 -0.247,-10.893 0.463,-12.282 0.957,-1.789 1.049,-1.82 4.721,-0.925 z m 6.604,76.407 c 6.728,1.975 12.221,8.672 11.264,13.795 -0.401,2.129 -3.765,4.814 -6.974,5.554 l -0.772,0.185 v -3.98 c 0,-3.765 -0.031,-4.012 -0.74,-4.753 -1.05,-1.111 -2.716,-1.111 -3.765,0 -0.648,0.71 -0.741,1.08 -0.833,4.074 -0.124,4.351 -0.186,4.629 -1.451,5.215 -0.895,0.432 -1.172,0.432 -2.036,0.092 -1.42,-0.586 -1.821,-1.851 -1.821,-5.616 0,-2.808 -0.062,-3.209 -0.679,-3.857 -0.957,-1.019 -2.685,-0.957 -3.672,0.092 -0.71,0.741 -0.741,0.988 -0.741,4.753 v 3.98 l -0.771,-0.185 c -3.272,-0.74 -6.543,-3.333 -6.975,-5.493 -0.555,-2.993 0.803,-6.357 3.703,-9.288 3.457,-3.457 7.16,-5.031 11.789,-5.061 1.666,0 3.456,0.185 4.474,0.493 z m 94.739,0 c 5.647,1.667 10.8,6.851 11.294,11.387 0.247,2.161 -0.123,3.488 -1.481,4.938 -1.111,1.204 -3.642,2.592 -5.524,3.024 l -0.771,0.185 v -3.98 c 0,-3.765 -0.031,-4.012 -0.741,-4.753 -0.957,-1.018 -2.623,-1.08 -3.641,-0.123 -0.648,0.617 -0.71,0.926 -0.71,3.857 0,3.796 -0.401,5.061 -1.821,5.647 -0.864,0.34 -1.142,0.34 -2.037,-0.092 -1.265,-0.586 -1.327,-0.864 -1.45,-5.215 -0.093,-2.994 -0.185,-3.364 -0.833,-4.074 -1.049,-1.111 -2.716,-1.111 -3.765,0 -0.71,0.741 -0.741,0.988 -0.741,4.753 l 0.031,3.98 -0.802,-0.185 c -1.821,-0.401 -4.66,-2.006 -5.678,-3.24 -1.759,-2.037 -1.852,-4.598 -0.309,-7.746 1.666,-3.487 5.555,-6.758 9.597,-8.116 2.593,-0.895 6.82,-0.987 9.382,-0.247 z"
       fill="#f6a6bf"
       id="path155" />
    <path
       d="m 160.554,292.918 c -2.962,0.771 -4.382,1.481 -4.937,2.469 -0.834,1.481 0.432,3.672 2.129,3.672 0.463,0 1.635,-0.278 2.654,-0.648 1.018,-0.37 2.993,-0.71 4.505,-0.802 4.506,-0.278 6.728,0.956 8.487,4.752 0.555,1.234 1.296,2.376 1.635,2.561 1.049,0.556 2.16,0.34 3.148,-0.617 1.142,-1.142 1.08,-2.068 -0.247,-4.783 -1.667,-3.364 -4.444,-5.771 -7.808,-6.758 -2.314,-0.679 -6.696,-0.618 -9.566,0.154 z"
       fill="#f6a6bf"
       id="path157" />
    <path
       d="m 211.534,292.733 c -4.227,1.296 -8.239,5.739 -8.671,9.566 -0.124,1.142 -0.031,1.45 0.648,2.129 1.543,1.543 3.734,0.741 4.536,-1.666 0.556,-1.667 2.592,-3.95 4.166,-4.66 1.728,-0.802 5.246,-0.771 8.024,0.062 3.518,1.049 4.32,1.08 5.215,0.154 0.802,-0.771 1.018,-2.006 0.617,-3.117 -0.278,-0.709 -2.129,-1.574 -4.937,-2.314 -2.809,-0.71 -7.561,-0.802 -9.598,-0.154 z"
       fill="#f6a6bf"
       id="path159" />
    <path
       d="m 185.365,308.44 c -2.746,1.327 -4.166,3.981 -3.487,6.604 0.247,1.049 0.926,2.006 2.808,4.042 1.389,1.451 3.025,2.994 3.642,3.426 l 1.172,0.771 0.031,4.629 c 0,4.228 -0.061,4.783 -0.679,6.018 -0.401,0.74 -1.08,1.605 -1.512,1.944 -1.697,1.234 -4.444,1.234 -6.11,0 -1.635,-1.234 -1.975,-2.068 -2.191,-5.215 -0.185,-2.623 -0.278,-3.055 -0.895,-3.549 -1.173,-0.957 -2.685,-0.864 -3.641,0.216 -0.617,0.679 -0.71,1.111 -0.71,3.518 0,3.518 0.771,5.709 2.746,7.807 3.981,4.259 10.307,4.629 14.628,0.834 l 1.049,-0.895 0.679,0.709 c 1.018,1.08 3.364,2.253 5.339,2.654 3.363,0.679 7.005,-0.586 9.535,-3.302 1.975,-2.098 2.747,-4.289 2.747,-7.807 0,-2.407 -0.093,-2.839 -0.679,-3.518 -0.988,-1.08 -2.5,-1.173 -3.673,-0.216 -0.617,0.494 -0.709,0.926 -0.894,3.549 -0.216,3.147 -0.556,3.981 -2.191,5.215 -1.667,1.234 -4.413,1.234 -6.111,0 -0.432,-0.339 -1.111,-1.204 -1.481,-1.944 -0.648,-1.235 -0.71,-1.79 -0.71,-6.018 l 0.031,-4.629 1.173,-0.771 c 0.617,-0.432 2.253,-1.975 3.641,-3.426 1.883,-2.036 2.562,-2.993 2.808,-4.042 0.587,-2.253 -0.401,-4.567 -2.53,-6.049 -1.204,-0.833 -1.204,-0.833 -7.406,-0.894 -4.845,-0.062 -6.419,0 -7.129,0.339 z m 11.758,5.154 c 0.277,0.462 -4.228,4.906 -4.969,4.906 -0.74,0 -5.246,-4.444 -4.968,-4.906 0.154,-0.217 1.728,-0.34 4.968,-0.34 3.241,0 4.814,0.123 4.969,0.34 z"
       fill="#f6a6bf"
       id="path161" />
  </g>
</svg>
