<?xml version="1.0" encoding="UTF-8" standalone="no"?>
<svg
   width="626.92987"
   height="595.46204"
   viewBox="0 0 626.92987 595.46204"
   fill="none"
   version="1.1"
   id="svg127"
   sodipodi:docname="paw.svg"
   inkscape:version="1.1 (c68e22c387, 2021-05-23)"
   xmlns:inkscape="http://www.inkscape.org/namespaces/inkscape"
   xmlns:sodipodi="http://sodipodi.sourceforge.net/DTD/sodipodi-0.dtd"
   xmlns="http://www.w3.org/2000/svg"
   xmlns:svg="http://www.w3.org/2000/svg">
  <defs
     id="defs131" />
  <sodipodi:namedview
     id="namedview129"
     pagecolor="#ffffff"
     bordercolor="#666666"
     borderopacity="1.0"
     inkscape:pageshadow="2"
     inkscape:pageopacity="0.0"
     inkscape:pagecheckerboard="0"
     showgrid="false"
     inkscape:zoom="0.92583333"
     inkscape:cx="26.462646"
     inkscape:cy="360.21602"
     inkscape:window-width="1280"
     inkscape:window-height="961"
     inkscape:window-x="-8"
     inkscape:window-y="-8"
     inkscape:window-maximized="1"
     inkscape:current-layer="svg127" />
  <path
     fill-rule="evenodd"
     clip-rule="evenodd"
     d="m 313.17165,509.9329 c -56.16,-5.787 -103.096,57.683 -158.956,49.497 -60.465003,-8.86 -141.552003,-35.184 -153.0010033,-95.212 -13.1029997,-68.701 83.7590003,-112.198 100.4900033,-180.108 11.126,-45.162 -48.328003,-96.373 -22.797003,-135.252 26.071003,-39.702 94.690003,-11.523 135.327003,-36.112 41.992,-25.409605 52.291,-90.371605 98.937,-105.6403548 47.478,-15.54123 105.684,-4.98705 145.048,25.7766498 38.98,30.4695 32.41,91.679705 58.79,133.539705 27.87,44.22 83.89,67.818 99.54,117.688 17.28,55.018 12.17,116.271 -9.28,169.797 -22.9,57.122 -54.58,128.839 -115.03,140.355 -65.936,12.56 -112.302,-77.449 -179.068,-84.329 z"
     fill="#f9eaef"
     fill-opacity="0.3"
     id="path71" />
  <path
     d="m 434.64965,252.4679 c -21.354,-7.893 -48.023,7.165 -52.332,29.507 -5.417,28.264 25.563,45.769 52.792,29.909 5.76,-3.384 6.78,-4.343 11.95,-11.727 5.01,-7.143 5.73,-8.673 6.63,-14.139 1.06,-6.678 -0.07,-13.922 -3.31,-20.14 -2.33,-4.507 -10.48,-11.404 -15.73,-13.41 z m 2.59,22.506 c 2.05,5.744 1.73,9.707 -1.25,14.797 -11.122,18.887 -40.712,15.752 -38.572,-4.161 1.97,-18.835 33.612,-27.304 39.822,-10.636 z"
     fill="#ffffff"
     id="path101" />
  <path
     d="m 344.29465,191.2399 c -6.019,-1.584 -16.081,0.103 -22.434,3.669 -4.827,2.72 -6.018,3.92 -11.02,11.064 -5.17,7.384 -5.722,8.672 -6.932,15.241 -2.659,14.645 2.163,28.787 12.669,36.981 7.09,5.562 13.21,7.336 21.566,6.249 19.832,-2.621 33.389,-23.151 29.791,-45.049 -1.666,-10.138 -5.513,-16.659 -13.343,-22.5 -4.043,-3.071 -7.539,-4.921 -10.297,-5.655 z m 6.13,23.789 c 3.991,7.819 3.55,16.96 -1.162,25.024 -11.346,19.208 -34.505,6.221 -29.96,-16.792 1.865,-9.34 9.75,-17.096 17.589,-17.109 5.215,0.062 10.895,3.8 13.533,8.877 z"
     fill="#ffffff"
     id="path103" />
  <path
     d="m 440.82965,337.4229 c -12.18,-4.464 -23.708,-3.685 -34.753,2.576 -6.813,3.722 -7.588,4.495 -12.309,11.237 -4.215,6.02 -5.251,8.166 -5.896,12.259 -1.076,6.543 0,13.517 3.108,19.76 2.258,4.452 3.422,5.626 10.088,10.293 7.057,4.942 7.875,5.275 15.409,6.364 30.063,4.302 53.943,-23.47 41.053,-47.449 -3.72,-7.033 -9.83,-12.502 -16.7,-15.04 z m 3.81,23.599 c 2.4,7.422 0.01,14.003 -6.9,19.208 -10.49,7.968 -27.845,5.385 -33.301,-5.015 -5.412,-10.128 2.884,-22.143 17.119,-24.615 9.712,-1.691 20.812,3.326 23.082,10.422 z"
     fill="#ffffff"
     id="path105" />
  <path
     d="m 261.46165,216.2459 c -7.521,-2.276 -15.899,-1.324 -23.072,2.744 -4.636,2.615 -6.074,4.001 -10.232,9.941 -4.384,6.26 -4.879,7.468 -6.069,15.008 -4.983,30.482 22.712,54.181 47.82,41.02 4.354,-2.214 5.545,-3.414 10.266,-10.156 4.586,-6.717 5.419,-8.406 6.269,-13.792 2.162,-12.601 -1.651,-26.515 -9.734,-35.165 -4.881,-5.212 -8.444,-7.467 -15.248,-9.6 z m 7.295,24.964 c 5.926,10.729 2.672,25.556 -6.644,30.516 -4.22,2.188 -11.631,1.424 -16.022,-1.65 -9.41,-6.589 -12.018,-23.726 -5.217,-33.438 3.091,-4.414 10.025,-6.975 15.709,-5.746 3.509,0.663 9.803,6.027 12.174,10.318 z"
     fill="#ffffff"
     id="path107" />
  <path
     d="m 333.99665,294.0729 c -12.317,-4.438 -28.637,-2.827 -40.67,4.178 -6.791,3.857 -7.06,3.908 -14.673,2.764 -5.561,-0.903 -10.327,-0.772 -16.576,0.475 -37.973,7.501 -54.037,52.473 -29.289,81.883 8.462,10.111 23.882,16.961 37.239,16.745 l 6.078,-0.17 1.92,5.77 c 4.208,12.515 15.325,24.008 27.944,29.017 21.362,8.378 45.833,0.633 59.377,-18.711 10.51,-15.009 11.632,-36.472 2.832,-52.442 -3.779,-6.953 -3.801,-7.088 -2.421,-14.734 2.636,-13.944 -1.913,-30.645 -11.171,-40.956 -4.175,-4.717 -14.616,-11.669 -20.59,-13.819 z m 11.35,27.684 c 5.739,8.325 7.154,21.158 3.583,31.097 -2.039,5.75 -1.796,8.073 1.696,12.432 4.667,6.019 6.7,10.792 7.664,17.926 1.318,10.134 0.077,15.245 -6.049,23.994 -4.272,6.1 -5.822,7.646 -10.244,10.291 -7.342,4.309 -14.532,5.733 -22.706,4.555 -6.391,-0.886 -7.735,-1.469 -14.165,-5.971 -6.116,-4.283 -7.382,-5.647 -9.931,-10.183 -1.532,-2.987 -3.373,-8.702 -4.118,-12.812 -1.722,-10.057 -3.525,-11.32 -13.722,-9.608 -4.173,0.786 -10.251,0.956 -13.447,0.513 -5.056,-0.79 -6.771,-1.512 -12.887,-5.795 -5.96,-4.172 -7.538,-5.756 -9.987,-10.103 -4.115,-7.307 -5.371,-14.526 -4.023,-22.793 1.076,-6.543 1.627,-7.831 6.236,-14.413 6.204,-8.694 10.639,-11.689 20.477,-13.891 7.034,-1.534 12.215,-1.256 19.467,1.071 5.29,1.791 7.556,1.224 12.261,-2.658 8.063,-6.675 20.606,-9.734 30.213,-7.433 7.085,1.731 15.609,7.58 19.682,13.781 z"
     fill="#ffffff"
     id="path109" />
</svg>
