<svg width="625" height="595" viewBox="0 0 625 595" fill="none" xmlns="http://www.w3.org/2000/svg">
<path fill-rule="evenodd" clip-rule="evenodd" d="M312.792 85.4628C368.779 91.2453 415.571 27.8243 471.259 36.0037C531.538 44.8573 612.375 71.1603 623.789 131.142C636.852 199.79 540.288 243.254 523.609 311.11C512.517 356.237 571.787 407.409 546.335 446.258C520.344 485.929 451.936 457.772 411.425 482.342C369.562 507.731 359.295 572.643 312.792 587.9C265.46 603.429 207.433 592.883 168.192 562.143C129.327 531.697 135.878 470.535 109.577 428.708C81.7939 384.522 25.954 360.942 10.3456 311.11C-6.87412 256.135 -1.78873 194.93 19.5996 141.445C42.4242 84.3679 74.0117 12.7063 134.277 1.19928C200.009 -11.3514 246.231 78.5882 312.792 85.4628Z" fill="#F9EAEF" fill-opacity="0.3"/>
</svg>
